{"glyphs":{"0":{"ha":813,"x_min":53,"x_max":761,"o":"m 407 958 q 670 832 579 958 q 761 468 761 706 q 670 104 761 232 q 407 -24 579 -24 q 144 104 235 -24 q 53 468 53 232 q 144 832 53 706 q 407 958 235 958 m 407 796 q 332 765 360 796 q 291 664 304 735 q 278 468 278 593 q 291 272 278 343 q 332 169 304 200 q 407 139 360 139 q 482 169 454 139 q 523 270 510 199 q 536 468 536 342 q 523 666 536 594 q 482 767 510 738 q 407 796 454 796 z "},"1":{"ha":644,"x_min":18,"x_max":531,"o":"m 531 939 l 531 0 l 315 0 l 315 725 l 114 601 l 18 747 l 335 939 l 531 939 z "},"2":{"ha":718,"x_min":8,"x_max":674,"o":"m 331 958 q 505 922 432 958 q 616 825 578 886 q 654 690 654 764 q 624 547 654 615 q 515 391 593 479 q 289 168 438 303 l 674 168 l 651 0 l 40 0 l 40 156 q 289 409 211 324 q 398 551 367 494 q 429 668 429 608 q 397 758 429 725 q 308 790 364 790 q 219 767 258 790 q 138 693 181 744 l 8 796 q 148 915 67 872 q 331 958 229 958 z "},"3":{"ha":722,"x_min":-6,"x_max":675,"o":"m 332 958 q 501 926 431 958 q 608 840 571 894 q 644 719 644 786 q 597 578 644 635 q 461 496 549 521 q 615 428 556 486 q 675 265 675 371 q 633 120 675 186 q 510 15 592 54 q 317 -24 429 -24 q -6 118 111 -24 l 113 233 q 205 165 160 186 q 304 143 250 143 q 410 179 369 143 q 450 279 450 215 q 412 383 450 351 q 297 414 374 414 l 219 414 l 243 565 l 297 565 q 396 597 360 565 q 432 688 432 629 q 399 767 432 739 q 307 796 365 796 q 124 714 208 796 l 15 832 q 332 958 149 958 z "},"4":{"ha":785,"x_min":39,"x_max":756,"o":"m 756 367 l 756 203 l 650 203 l 650 0 l 436 0 l 435 203 l 39 203 l 39 349 l 306 963 l 492 893 l 265 367 l 438 367 l 461 589 l 650 589 l 650 367 l 756 367 z "},"5":{"ha":744,"x_min":18,"x_max":699,"o":"m 631 782 l 290 782 l 290 585 q 429 615 356 615 q 568 579 507 615 q 664 474 629 543 q 699 310 699 404 q 653 135 699 211 q 524 18 608 60 q 331 -24 440 -24 q 18 118 140 -24 l 140 232 q 322 142 217 142 q 434 185 394 142 q 474 308 474 228 q 342 465 474 465 q 288 458 314 465 q 229 432 261 450 l 81 432 l 81 939 l 656 939 l 631 782 z "},"6":{"ha":783,"x_min":53,"x_max":749,"o":"m 479 632 q 618 595 557 632 q 714 488 679 558 q 749 321 749 418 q 707 147 749 225 q 588 22 665 68 q 408 -24 511 -24 q 140 97 228 -24 q 53 429 53 218 q 102 707 53 588 q 244 892 151 826 q 461 958 336 958 q 675 896 582 958 l 594 765 q 467 801 532 801 q 339 735 388 801 q 281 546 290 668 q 479 632 365 632 m 411 133 q 499 183 469 133 q 529 318 529 232 q 501 443 529 406 q 418 481 474 481 q 281 407 343 481 q 313 196 283 258 q 411 133 342 133 z "},"7":{"ha":650,"x_min":18,"x_max":625,"o":"m 625 939 l 625 790 l 281 -22 l 82 44 l 397 774 l 18 774 l 18 939 l 625 939 z "},"8":{"ha":807,"x_min":40,"x_max":765,"o":"m 579 504 q 719 397 674 458 q 765 254 765 335 q 722 115 765 178 q 594 14 678 51 q 399 -24 511 -24 q 208 13 289 -24 q 83 112 126 50 q 40 250 40 174 q 215 483 40 407 q 78 706 78 564 q 119 838 78 781 q 235 926 161 894 q 404 958 310 958 q 638 894 547 958 q 729 717 729 829 q 692 599 729 654 q 579 504 656 544 m 406 810 q 322 782 353 810 q 290 703 290 754 q 317 626 290 656 q 404 571 344 596 l 433 560 q 499 624 481 590 q 517 706 517 658 q 488 781 517 753 q 406 810 460 810 m 406 133 q 509 167 472 133 q 546 256 546 201 q 514 345 546 313 q 401 407 482 378 l 356 424 q 261 261 261 371 q 300 168 261 203 q 406 133 339 133 z "},"9":{"ha":778,"x_min":36,"x_max":735,"o":"m 385 958 q 644 859 554 958 q 735 594 735 760 q 673 279 735 404 q 483 78 611 154 q 150 -39 356 3 l 106 114 q 379 226 288 158 q 499 415 471 293 q 304 325 425 325 q 169 363 231 325 q 72 471 108 400 q 36 635 36 542 q 82 804 36 731 q 208 918 128 878 q 385 958 288 958 m 372 479 q 448 501 413 479 q 511 563 483 522 q 483 747 513 693 q 385 801 454 801 q 291 760 325 801 q 257 642 257 719 q 288 517 257 556 q 372 479 319 479 z "},"\r":{"ha":329,"x_min":0,"x_max":0,"o":""}," ":{"ha":329,"x_min":0,"x_max":0,"o":""},"A":{"ha":819,"x_min":-18,"x_max":839,"o":"m 597 0 l 547 207 l 267 207 l 218 0 l -18 0 l 272 963 l 549 963 l 839 0 l 597 0 m 306 372 l 508 372 l 407 797 l 306 372 z "},"Á":{"ha":819,"x_min":-18,"x_max":839,"o":"m 597 0 l 547 207 l 267 207 l 218 0 l -18 0 l 272 963 l 549 963 l 839 0 l 597 0 m 306 372 l 508 372 l 407 797 l 306 372 m 524 1328 l 606 1164 l 272 1043 l 217 1154 l 524 1328 z "},"Ă":{"ha":819,"x_min":-18,"x_max":839,"o":"m 597 0 l 547 207 l 267 207 l 218 0 l -18 0 l 272 963 l 549 963 l 839 0 l 597 0 m 306 372 l 508 372 l 407 797 l 306 372 m 410 1043 q 242 1108 306 1043 q 171 1268 179 1174 l 292 1289 q 335 1220 306 1246 q 410 1194 364 1194 q 485 1220 456 1194 q 529 1289 514 1246 l 650 1268 q 578 1108 642 1174 q 410 1043 514 1043 z "},"Ắ":{"ha":819,"x_min":-18,"x_max":839,"o":"m 597 0 l 547 207 l 267 207 l 218 0 l -18 0 l 272 963 l 549 963 l 839 0 l 597 0 m 306 372 l 508 372 l 407 797 l 306 372 m 411 1024 q 244 1089 307 1024 q 172 1249 181 1154 l 293 1269 q 336 1201 307 1226 q 411 1175 365 1175 q 486 1201 457 1175 q 531 1269 515 1226 l 651 1249 q 579 1089 643 1154 q 411 1024 515 1024 m 514 1563 l 633 1446 l 414 1250 l 331 1325 l 514 1563 z "},"Ặ":{"ha":819,"x_min":-18,"x_max":839,"o":"m 597 0 l 547 207 l 267 207 l 218 0 l -18 0 l 272 963 l 549 963 l 839 0 l 597 0 m 306 372 l 508 372 l 407 797 l 306 372 m 410 1043 q 242 1108 306 1043 q 171 1268 179 1174 l 292 1289 q 335 1220 306 1246 q 410 1194 364 1194 q 485 1220 456 1194 q 529 1289 514 1246 l 650 1268 q 578 1108 642 1174 q 410 1043 514 1043 m 411 -333 q 317 -298 354 -333 q 281 -208 281 -262 q 317 -119 281 -154 q 411 -83 354 -83 q 504 -119 468 -83 q 540 -208 540 -154 q 504 -298 540 -262 q 411 -333 468 -333 z "},"Ằ":{"ha":819,"x_min":-18,"x_max":839,"o":"m 597 0 l 547 207 l 267 207 l 218 0 l -18 0 l 272 963 l 549 963 l 839 0 l 597 0 m 306 372 l 508 372 l 407 797 l 306 372 m 411 1024 q 244 1089 307 1024 q 172 1249 181 1154 l 293 1269 q 336 1201 307 1226 q 411 1175 365 1175 q 486 1201 457 1175 q 531 1269 515 1226 l 651 1249 q 579 1089 643 1154 q 411 1024 515 1024 m 307 1563 l 489 1325 l 407 1250 l 188 1446 l 307 1563 z "},"Ẳ":{"ha":819,"x_min":-18,"x_max":839,"o":"m 597 0 l 547 207 l 267 207 l 218 0 l -18 0 l 272 963 l 549 963 l 839 0 l 597 0 m 306 372 l 508 372 l 407 797 l 306 372 m 411 1024 q 244 1089 307 1024 q 172 1249 181 1154 l 293 1269 q 336 1201 307 1226 q 411 1175 365 1175 q 486 1201 457 1175 q 531 1269 515 1226 l 651 1249 q 579 1089 643 1154 q 411 1024 515 1024 m 347 1374 q 423 1388 400 1376 q 446 1426 446 1400 q 431 1458 446 1447 q 390 1469 417 1469 q 307 1451 353 1469 l 271 1543 q 422 1579 333 1579 q 549 1540 504 1579 q 594 1438 594 1501 q 478 1308 594 1331 l 478 1250 l 347 1250 l 347 1374 z "},"Ẵ":{"ha":819,"x_min":-18,"x_max":839,"o":"m 597 0 l 547 207 l 267 207 l 218 0 l -18 0 l 272 963 l 549 963 l 839 0 l 597 0 m 306 372 l 508 372 l 407 797 l 306 372 m 413 1024 q 245 1089 308 1024 q 174 1249 182 1154 l 294 1269 q 338 1201 308 1226 q 413 1175 367 1175 q 488 1201 458 1175 q 532 1269 517 1226 l 653 1249 q 581 1089 644 1154 q 413 1024 517 1024 m 494 1307 q 441 1317 464 1307 q 393 1343 418 1326 q 362 1361 375 1356 q 336 1367 349 1367 q 297 1353 313 1367 q 263 1308 281 1339 l 153 1358 q 227 1469 181 1426 q 332 1513 274 1513 q 387 1503 364 1513 q 438 1476 410 1494 q 469 1458 457 1464 q 493 1453 481 1453 q 531 1467 515 1453 q 565 1511 547 1481 l 675 1460 q 599 1349 646 1390 q 494 1307 553 1307 z "},"Ǎ":{"ha":819,"x_min":-18,"x_max":839,"o":"m 597 0 l 547 207 l 267 207 l 218 0 l -18 0 l 272 963 l 549 963 l 839 0 l 597 0 m 306 372 l 508 372 l 407 797 l 306 372 m 596 1311 l 674 1221 l 478 1042 l 344 1042 l 147 1221 l 226 1311 l 411 1194 l 596 1311 z "},"Â":{"ha":819,"x_min":-18,"x_max":839,"o":"m 597 0 l 547 207 l 267 207 l 218 0 l -18 0 l 272 963 l 549 963 l 839 0 l 597 0 m 306 372 l 508 372 l 407 797 l 306 372 m 226 1049 l 147 1139 l 344 1318 l 478 1318 l 674 1139 l 596 1049 l 411 1165 l 226 1049 z "},"Ấ":{"ha":819,"x_min":-18,"x_max":857,"o":"m 597 0 l 547 207 l 267 207 l 218 0 l -18 0 l 272 963 l 549 963 l 839 0 l 597 0 m 306 372 l 508 372 l 407 797 l 306 372 m 226 1001 l 147 1092 l 344 1271 l 478 1271 l 674 1092 l 596 1001 l 411 1118 l 226 1001 m 738 1519 l 857 1403 l 638 1207 l 554 1282 l 738 1519 z "},"Ậ":{"ha":819,"x_min":-18,"x_max":839,"o":"m 597 0 l 547 207 l 267 207 l 218 0 l -18 0 l 272 963 l 549 963 l 839 0 l 597 0 m 306 372 l 508 372 l 407 797 l 306 372 m 226 1049 l 147 1139 l 344 1318 l 478 1318 l 674 1139 l 596 1049 l 411 1165 l 226 1049 m 411 -333 q 317 -298 354 -333 q 281 -208 281 -262 q 317 -119 281 -154 q 411 -83 354 -83 q 504 -119 468 -83 q 540 -208 540 -154 q 504 -298 540 -262 q 411 -333 468 -333 z "},"Ầ":{"ha":819,"x_min":-33,"x_max":839,"o":"m 597 0 l 547 207 l 267 207 l 218 0 l -18 0 l 272 963 l 549 963 l 839 0 l 597 0 m 306 372 l 508 372 l 407 797 l 306 372 m 225 1001 l 146 1092 l 343 1271 l 476 1271 l 672 1092 l 594 1001 l 410 1118 l 225 1001 m 86 1519 l 268 1282 l 186 1207 l -33 1403 l 86 1519 z "},"Ẩ":{"ha":819,"x_min":-18,"x_max":839,"o":"m 597 0 l 547 207 l 267 207 l 218 0 l -18 0 l 272 963 l 549 963 l 839 0 l 597 0 m 306 372 l 508 372 l 407 797 l 306 372 m 225 1001 l 146 1092 l 343 1271 l 476 1271 l 672 1092 l 594 1001 l 410 1118 l 225 1001 m 583 1313 q 659 1327 636 1315 q 682 1365 682 1339 q 667 1397 682 1386 q 626 1408 653 1408 q 543 1390 589 1408 l 507 1482 q 658 1518 569 1518 q 785 1479 740 1518 q 831 1376 831 1440 q 714 1247 831 1269 l 714 1189 l 583 1189 l 583 1313 z "},"Ẫ":{"ha":819,"x_min":-18,"x_max":839,"o":"m 597 0 l 547 207 l 267 207 l 218 0 l -18 0 l 272 963 l 549 963 l 839 0 l 597 0 m 306 372 l 508 372 l 407 797 l 306 372 m 224 1001 l 144 1092 l 342 1271 l 475 1271 l 671 1092 l 593 1001 l 408 1118 l 224 1001 m 489 1307 q 435 1317 458 1307 q 388 1343 413 1326 q 356 1361 369 1356 q 331 1367 343 1367 q 291 1353 307 1367 q 257 1308 275 1339 l 147 1358 q 222 1469 175 1426 q 326 1513 268 1513 q 381 1503 358 1513 q 432 1476 404 1494 q 463 1458 451 1464 q 488 1453 475 1453 q 526 1467 510 1453 q 560 1511 542 1481 l 669 1460 q 594 1349 640 1390 q 489 1307 547 1307 z "},"Ȁ":{"ha":819,"x_min":-18,"x_max":839,"o":"m 597 0 l 547 207 l 267 207 l 218 0 l -18 0 l 272 963 l 549 963 l 839 0 l 597 0 m 306 372 l 508 372 l 407 797 l 306 372 m 229 1369 l 364 1096 l 251 1043 l 82 1296 l 229 1369 m 474 1369 l 596 1096 l 481 1050 l 324 1300 l 474 1369 z "},"Ä":{"ha":819,"x_min":-18,"x_max":839,"o":"m 597 0 l 547 207 l 267 207 l 218 0 l -18 0 l 272 963 l 549 963 l 839 0 l 597 0 m 306 372 l 508 372 l 407 797 l 306 372 m 249 1285 q 328 1253 296 1285 q 361 1175 361 1221 q 328 1097 361 1129 q 249 1065 296 1065 q 169 1097 201 1065 q 136 1175 136 1129 q 169 1253 136 1221 q 249 1285 201 1285 m 569 1285 q 650 1253 618 1285 q 682 1175 682 1221 q 650 1097 682 1129 q 569 1065 618 1065 q 491 1097 524 1065 q 458 1175 458 1129 q 491 1253 458 1221 q 569 1285 524 1285 z "},"Ǟ":{"ha":819,"x_min":-18,"x_max":839,"o":"m 597 0 l 547 207 l 267 207 l 218 0 l -18 0 l 272 963 l 549 963 l 839 0 l 597 0 m 306 372 l 508 372 l 407 797 l 306 372 m 250 1254 q 330 1222 297 1254 q 363 1144 363 1190 q 330 1067 363 1099 q 250 1035 297 1035 q 170 1067 203 1035 q 138 1144 138 1099 q 170 1222 138 1190 q 250 1254 203 1254 m 571 1254 q 651 1222 619 1254 q 683 1144 683 1190 q 651 1067 683 1099 q 571 1035 619 1035 q 492 1067 525 1035 q 460 1144 460 1099 q 492 1222 460 1190 q 571 1254 525 1254 m 626 1306 l 203 1306 l 203 1458 l 626 1458 l 626 1306 z "},"Ȧ":{"ha":819,"x_min":-18,"x_max":839,"o":"m 597 0 l 547 207 l 267 207 l 218 0 l -18 0 l 272 963 l 549 963 l 839 0 l 597 0 m 306 372 l 508 372 l 407 797 l 306 372 m 410 1301 q 503 1266 467 1301 q 540 1176 540 1231 q 503 1087 540 1122 q 410 1051 467 1051 q 317 1087 353 1051 q 281 1176 281 1122 q 317 1266 281 1231 q 410 1301 353 1301 z "},"Ạ":{"ha":819,"x_min":-18,"x_max":839,"o":"m 597 0 l 547 207 l 267 207 l 218 0 l -18 0 l 272 963 l 549 963 l 839 0 l 597 0 m 306 372 l 508 372 l 407 797 l 306 372 m 411 -333 q 317 -298 354 -333 q 281 -208 281 -262 q 317 -119 281 -154 q 411 -83 354 -83 q 504 -119 468 -83 q 540 -208 540 -154 q 504 -298 540 -262 q 411 -333 468 -333 z "},"Ǡ":{"ha":819,"x_min":-18,"x_max":839,"o":"m 597 0 l 547 207 l 267 207 l 218 0 l -18 0 l 272 963 l 549 963 l 839 0 l 597 0 m 306 372 l 508 372 l 407 797 l 306 372 m 408 1272 q 502 1237 465 1272 q 539 1147 539 1201 q 502 1058 539 1093 q 408 1022 465 1022 q 315 1058 351 1022 q 279 1147 279 1093 q 315 1237 279 1201 q 408 1272 351 1272 m 622 1307 l 199 1307 l 199 1460 l 622 1460 l 622 1307 z "},"À":{"ha":819,"x_min":-18,"x_max":839,"o":"m 597 0 l 547 207 l 267 207 l 218 0 l -18 0 l 272 963 l 549 963 l 839 0 l 597 0 m 306 372 l 508 372 l 407 797 l 306 372 m 293 1328 l 600 1154 l 544 1043 l 211 1164 l 293 1328 z "},"Ả":{"ha":819,"x_min":-18,"x_max":839,"o":"m 597 0 l 547 207 l 267 207 l 218 0 l -18 0 l 272 963 l 549 963 l 839 0 l 597 0 m 306 372 l 508 372 l 407 797 l 306 372 m 344 1185 q 420 1199 397 1188 q 443 1238 443 1211 q 428 1269 443 1258 q 388 1281 414 1281 q 304 1263 350 1281 l 268 1354 q 419 1390 331 1390 q 547 1351 501 1390 q 592 1249 592 1313 q 475 1119 592 1142 l 475 1061 l 344 1061 l 344 1185 z "},"Ȃ":{"ha":819,"x_min":-18,"x_max":839,"o":"m 597 0 l 547 207 l 267 207 l 218 0 l -18 0 l 272 963 l 549 963 l 839 0 l 597 0 m 306 372 l 508 372 l 407 797 l 306 372 m 410 1322 q 578 1254 515 1322 q 650 1082 642 1186 l 529 1061 q 410 1169 500 1169 q 292 1061 318 1169 l 171 1082 q 242 1255 179 1188 q 410 1322 304 1322 z "},"Ɑ":{"ha":957,"x_min":46,"x_max":918,"o":"m 858 249 q 871 177 858 200 q 918 138 883 154 l 853 -24 q 737 14 782 -11 q 667 83 692 39 q 425 -24 574 -24 q 227 34 313 -24 q 94 202 142 92 q 46 465 46 313 q 95 744 46 626 q 231 924 144 863 q 429 986 318 986 q 650 890 557 986 l 664 963 l 858 963 l 858 249 m 471 139 q 631 210 567 139 l 631 749 q 475 819 567 819 q 333 736 381 819 q 285 465 285 653 q 333 215 285 290 q 471 139 381 139 z "},"Ā":{"ha":819,"x_min":-18,"x_max":839,"o":"m 597 0 l 547 207 l 267 207 l 218 0 l -18 0 l 272 963 l 549 963 l 839 0 l 597 0 m 306 372 l 508 372 l 407 797 l 306 372 m 622 1085 l 199 1085 l 199 1238 l 622 1238 l 622 1085 z "},"Ą":{"ha":819,"x_min":-18,"x_max":839,"o":"m 722 0 q 558 -142 558 -61 q 632 -206 558 -206 q 717 -194 665 -206 l 701 -331 q 604 -342 653 -342 q 457 -297 514 -342 q 400 -179 400 -253 q 449 -53 400 -106 q 589 36 497 0 l 547 207 l 267 207 l 218 0 l -18 0 l 272 963 l 549 963 l 839 0 l 722 0 m 306 372 l 508 372 l 407 797 l 306 372 z "},"Å":{"ha":819,"x_min":-18,"x_max":839,"o":"m 597 0 l 547 207 l 267 207 l 218 0 l -18 0 l 272 963 l 549 963 l 839 0 l 597 0 m 306 372 l 508 372 l 407 797 l 306 372 m 411 1379 q 551 1326 499 1379 q 604 1197 604 1274 q 551 1068 604 1121 q 411 1015 499 1015 q 271 1068 324 1015 q 218 1197 218 1121 q 271 1326 218 1274 q 411 1379 324 1379 m 411 1267 q 365 1249 382 1267 q 349 1197 349 1231 q 365 1146 349 1164 q 411 1128 382 1128 q 456 1146 439 1128 q 474 1197 474 1164 q 457 1249 474 1231 q 411 1267 440 1267 z "},"Ǻ":{"ha":819,"x_min":-18,"x_max":839,"o":"m 597 0 l 547 207 l 267 207 l 218 0 l -18 0 l 272 963 l 549 963 l 839 0 l 597 0 m 306 372 l 508 372 l 407 797 l 306 372 m 411 1364 q 551 1311 499 1364 q 604 1182 604 1258 q 551 1053 604 1106 q 411 1000 499 1000 q 271 1053 324 1000 q 218 1182 218 1106 q 271 1311 218 1258 q 411 1364 324 1364 m 411 1251 q 365 1233 382 1251 q 349 1182 349 1215 q 365 1131 349 1149 q 411 1113 382 1113 q 456 1131 439 1113 q 474 1182 474 1149 q 457 1233 474 1215 q 411 1251 440 1251 m 525 1654 l 607 1490 l 274 1369 l 218 1481 l 525 1654 z "},"Ⱥ":{"ha":819,"x_min":-18,"x_max":839,"o":"m 617 0 l 564 207 l 406 207 l 324 -103 l 243 -85 l 321 207 l 251 207 l 199 0 l -18 0 l 272 963 l 519 963 l 543 1050 l 622 1031 l 578 864 l 839 0 l 617 0 m 290 363 l 361 363 l 444 675 l 407 819 l 290 363 m 446 363 l 524 363 l 486 513 l 446 363 z "},"Ã":{"ha":819,"x_min":-18,"x_max":839,"o":"m 597 0 l 547 207 l 267 207 l 218 0 l -18 0 l 272 963 l 549 963 l 839 0 l 597 0 m 306 372 l 508 372 l 407 797 l 306 372 m 492 1057 q 439 1067 461 1057 q 390 1094 417 1076 q 333 1119 356 1119 q 294 1105 310 1119 q 260 1058 278 1090 l 150 1111 q 224 1229 178 1183 q 329 1275 271 1275 q 384 1265 361 1275 q 435 1236 407 1254 q 466 1218 454 1224 q 490 1213 478 1213 q 528 1227 513 1213 q 563 1274 544 1242 l 672 1219 q 597 1101 643 1146 q 492 1057 550 1057 z "},"Æ":{"ha":1174,"x_min":-32,"x_max":1128,"o":"m 808 164 l 1128 164 l 1128 0 l 617 0 l 581 207 l 282 207 l 213 0 l -32 0 l 346 963 l 1076 963 l 1053 800 l 678 800 l 725 567 l 1064 567 l 1064 407 l 758 407 l 808 164 m 338 372 l 553 372 l 479 796 l 338 372 z "},"Ǽ":{"ha":1174,"x_min":-32,"x_max":1128,"o":"m 808 164 l 1128 164 l 1128 0 l 617 0 l 581 207 l 282 207 l 213 0 l -32 0 l 346 963 l 1076 963 l 1053 800 l 678 800 l 725 567 l 1064 567 l 1064 407 l 758 407 l 808 164 m 338 372 l 553 372 l 479 796 l 338 372 m 783 1328 l 865 1164 l 532 1043 l 476 1154 l 783 1328 z "},"Ǣ":{"ha":1174,"x_min":-32,"x_max":1128,"o":"m 808 164 l 1128 164 l 1128 0 l 617 0 l 581 207 l 282 207 l 213 0 l -32 0 l 346 963 l 1076 963 l 1053 800 l 678 800 l 725 567 l 1064 567 l 1064 407 l 758 407 l 808 164 m 338 372 l 553 372 l 479 796 l 338 372 m 882 1085 l 458 1085 l 458 1238 l 882 1238 l 882 1085 z "},"B":{"ha":857,"x_min":90,"x_max":819,"o":"m 603 510 q 759 439 699 492 q 819 281 819 386 q 709 63 819 126 q 400 0 599 0 l 90 0 l 90 963 l 363 963 q 672 905 565 963 q 779 717 779 847 q 728 580 779 632 q 603 510 678 528 m 318 801 l 318 578 l 403 578 q 547 694 547 578 q 508 777 547 753 q 385 801 469 801 l 318 801 m 401 165 q 538 192 492 165 q 585 293 585 219 q 418 426 585 426 l 318 426 l 318 165 l 401 165 z "},"Ḃ":{"ha":857,"x_min":90,"x_max":819,"o":"m 603 510 q 759 439 699 492 q 819 281 819 386 q 709 63 819 126 q 400 0 599 0 l 90 0 l 90 963 l 363 963 q 672 905 565 963 q 779 717 779 847 q 728 580 779 632 q 603 510 678 528 m 318 801 l 318 578 l 403 578 q 547 694 547 578 q 508 777 547 753 q 385 801 469 801 l 318 801 m 401 165 q 538 192 492 165 q 585 293 585 219 q 418 426 585 426 l 318 426 l 318 165 l 401 165 m 408 1301 q 502 1266 465 1301 q 539 1176 539 1231 q 502 1087 539 1122 q 408 1051 465 1051 q 315 1087 351 1051 q 279 1176 279 1122 q 315 1266 279 1231 q 408 1301 351 1301 z "},"Ḅ":{"ha":857,"x_min":90,"x_max":819,"o":"m 603 510 q 759 439 699 492 q 819 281 819 386 q 709 63 819 126 q 400 0 599 0 l 90 0 l 90 963 l 363 963 q 672 905 565 963 q 779 717 779 847 q 728 580 779 632 q 603 510 678 528 m 318 801 l 318 578 l 403 578 q 547 694 547 578 q 508 777 547 753 q 385 801 469 801 l 318 801 m 401 165 q 538 192 492 165 q 585 293 585 219 q 418 426 585 426 l 318 426 l 318 165 l 401 165 m 431 -333 q 337 -298 374 -333 q 300 -208 300 -262 q 337 -119 300 -154 q 431 -83 374 -83 q 524 -119 488 -83 q 560 -208 560 -154 q 524 -298 560 -262 q 431 -333 488 -333 z "},"Ꞵ":{"ha":857,"x_min":90,"x_max":819,"o":"m 603 510 q 819 286 819 468 q 717 68 819 136 q 460 0 615 0 q 318 14 392 0 l 318 -292 l 90 -292 l 90 963 l 363 963 q 672 905 565 963 q 779 717 779 847 q 728 580 779 632 q 603 510 678 528 m 429 165 q 543 197 501 165 q 585 300 585 229 q 544 395 585 364 q 436 426 504 426 l 389 426 l 403 578 l 421 578 q 513 606 478 578 q 547 690 547 635 q 508 776 547 751 q 385 801 469 801 l 318 801 l 318 174 q 429 165 372 165 z "},"Ɓ":{"ha":1053,"x_min":6,"x_max":1017,"o":"m 800 510 q 956 439 896 492 q 1017 281 1017 386 q 906 63 1017 126 q 597 0 796 0 l 288 0 l 288 800 l 247 800 q 200 785 217 800 q 183 742 183 769 q 207 651 183 706 l 67 589 q 22 671 39 631 q 6 756 6 711 q 74 907 6 851 q 260 963 143 963 l 560 963 q 869 905 763 963 q 976 717 976 847 q 926 580 976 632 q 800 510 875 528 m 515 801 l 515 578 l 600 578 q 744 694 744 578 q 706 777 744 753 q 582 801 667 801 l 515 801 m 599 165 q 735 192 689 165 q 782 293 782 219 q 615 426 782 426 l 515 426 l 515 165 l 599 165 z "},"Ƀ":{"ha":876,"x_min":19,"x_max":839,"o":"m 622 510 q 778 439 718 492 q 839 281 839 386 q 728 63 839 126 q 419 0 618 0 l 110 0 l 110 243 l 19 243 l 19 354 l 110 354 l 110 963 l 382 963 q 692 905 585 963 q 799 717 799 847 q 748 580 799 632 q 622 510 697 528 m 338 801 l 338 578 l 422 578 q 567 694 567 578 q 528 777 567 753 q 404 801 489 801 l 338 801 m 421 165 q 558 192 511 165 q 604 293 604 219 q 438 426 604 426 l 338 426 l 338 354 l 497 354 l 497 243 l 338 243 l 338 165 l 421 165 z "},"Ƃ":{"ha":828,"x_min":90,"x_max":803,"o":"m 421 619 q 703 543 604 619 q 803 318 803 467 q 700 81 803 161 q 425 0 597 0 l 90 0 l 90 963 l 690 963 l 667 790 l 318 790 l 318 619 l 421 619 m 406 165 q 565 315 565 165 q 401 461 565 461 l 318 461 l 318 165 l 406 165 z "},"C":{"ha":799,"x_min":46,"x_max":788,"o":"m 483 986 q 644 960 574 986 q 776 881 714 933 l 668 751 q 583 801 625 785 q 494 818 542 818 q 341 736 397 818 q 285 483 285 654 q 341 234 285 315 q 497 153 397 153 q 593 173 550 153 q 686 231 636 193 l 788 100 q 656 11 733 46 q 486 -24 579 -24 q 254 35 353 -24 q 101 208 156 93 q 46 483 46 322 q 102 754 46 640 q 258 927 158 868 q 483 986 357 986 z "},"Ć":{"ha":799,"x_min":46,"x_max":788,"o":"m 483 986 q 644 960 574 986 q 776 881 714 933 l 668 751 q 583 801 625 785 q 494 818 542 818 q 341 736 397 818 q 285 483 285 654 q 341 234 285 315 q 497 153 397 153 q 593 173 550 153 q 686 231 636 193 l 788 100 q 656 11 733 46 q 486 -24 579 -24 q 254 35 353 -24 q 101 208 156 93 q 46 483 46 322 q 102 754 46 640 q 258 927 158 868 q 483 986 357 986 m 604 1328 l 686 1164 l 353 1043 l 297 1154 l 604 1328 z "},"Č":{"ha":799,"x_min":46,"x_max":788,"o":"m 483 986 q 644 960 574 986 q 776 881 714 933 l 668 751 q 583 801 625 785 q 494 818 542 818 q 341 736 397 818 q 285 483 285 654 q 341 234 285 315 q 497 153 397 153 q 593 173 550 153 q 686 231 636 193 l 788 100 q 656 11 733 46 q 486 -24 579 -24 q 254 35 353 -24 q 101 208 156 93 q 46 483 46 322 q 102 754 46 640 q 258 927 158 868 q 483 986 357 986 m 676 1311 l 754 1221 l 558 1042 l 425 1042 l 228 1221 l 307 1311 l 492 1194 l 676 1311 z "},"Ç":{"ha":799,"x_min":46,"x_max":788,"o":"m 532 -67 q 641 -110 606 -75 q 676 -204 676 -146 q 620 -319 676 -275 q 469 -364 564 -364 q 382 -352 422 -364 q 314 -322 342 -340 l 364 -221 q 453 -244 411 -244 q 518 -203 518 -244 q 488 -167 518 -178 q 390 -156 457 -156 l 407 -18 q 142 137 239 7 q 46 483 46 267 q 102 754 46 640 q 258 927 158 868 q 483 986 357 986 q 644 960 574 986 q 776 881 714 933 l 668 751 q 583 801 625 785 q 494 818 542 818 q 341 736 397 818 q 285 483 285 654 q 341 234 285 315 q 497 153 397 153 q 593 173 550 153 q 686 231 636 193 l 788 100 q 675 20 740 53 q 532 -21 610 -12 l 532 -67 z "},"Ĉ":{"ha":799,"x_min":46,"x_max":788,"o":"m 483 986 q 644 960 574 986 q 776 881 714 933 l 668 751 q 583 801 625 785 q 494 818 542 818 q 341 736 397 818 q 285 483 285 654 q 341 234 285 315 q 497 153 397 153 q 593 173 550 153 q 686 231 636 193 l 788 100 q 656 11 733 46 q 486 -24 579 -24 q 254 35 353 -24 q 101 208 156 93 q 46 483 46 322 q 102 754 46 640 q 258 927 158 868 q 483 986 357 986 m 307 1049 l 228 1139 l 425 1318 l 558 1318 l 754 1139 l 676 1049 l 492 1165 l 307 1049 z "},"Ċ":{"ha":799,"x_min":46,"x_max":788,"o":"m 483 986 q 644 960 574 986 q 776 881 714 933 l 668 751 q 583 801 625 785 q 494 818 542 818 q 341 736 397 818 q 285 483 285 654 q 341 234 285 315 q 497 153 397 153 q 593 173 550 153 q 686 231 636 193 l 788 100 q 656 11 733 46 q 486 -24 579 -24 q 254 35 353 -24 q 101 208 156 93 q 46 483 46 322 q 102 754 46 640 q 258 927 158 868 q 483 986 357 986 m 490 1301 q 584 1266 547 1301 q 621 1176 621 1231 q 584 1087 621 1122 q 490 1051 547 1051 q 397 1087 433 1051 q 361 1176 361 1122 q 397 1266 361 1231 q 490 1301 433 1301 z "},"Ꭓ":{"ha":794,"x_min":-6,"x_max":800,"o":"m 529 410 l 800 -224 l 551 -224 l 392 257 l 236 -224 l -6 -224 l 257 403 l 15 963 l 263 963 l 394 544 l 535 963 l 776 963 l 529 410 z "},"Ƈ":{"ha":799,"x_min":46,"x_max":1007,"o":"m 819 1182 q 1007 1131 925 1182 l 943 994 q 895 1015 917 1008 q 849 1021 874 1021 q 776 935 776 1021 l 776 881 l 679 764 q 590 804 635 790 q 493 818 546 818 q 341 735 397 818 q 285 483 285 653 q 341 234 285 315 q 497 153 397 153 q 591 174 549 153 q 685 233 633 194 l 788 100 q 657 12 735 47 q 486 -24 579 -24 q 254 35 353 -24 q 101 208 156 93 q 46 483 46 322 q 101 753 46 639 q 251 926 157 867 q 457 986 346 986 q 583 964 528 986 q 648 1125 589 1068 q 819 1182 707 1182 z "},"Ȼ":{"ha":799,"x_min":46,"x_max":788,"o":"m 788 100 q 656 11 733 46 q 486 -24 579 -24 q 382 -14 429 -24 l 358 -103 l 278 -85 l 303 11 q 114 182 182 61 q 46 483 46 303 q 102 754 46 640 q 258 927 158 868 q 483 986 357 986 q 561 981 528 986 l 579 1050 l 658 1031 l 640 961 q 776 881 714 935 l 668 751 q 596 796 629 781 l 429 164 q 497 153 463 153 q 593 173 550 153 q 686 231 636 193 l 788 100 m 285 483 q 357 214 285 294 l 517 817 q 494 818 510 818 q 341 736 397 818 q 285 483 285 654 z "},"D":{"ha":904,"x_min":90,"x_max":858,"o":"m 358 963 q 722 860 585 963 q 858 486 858 758 q 725 109 858 218 q 379 0 592 0 l 90 0 l 90 963 l 358 963 m 318 797 l 318 165 l 393 165 q 564 235 506 165 q 622 486 622 306 q 593 678 622 610 q 514 772 564 746 q 390 797 464 797 l 318 797 z "},"Ǳ":{"ha":1625,"x_min":90,"x_max":1588,"o":"m 358 963 q 722 860 585 963 q 858 486 858 758 q 725 109 858 218 q 379 0 592 0 l 90 0 l 90 963 l 358 963 m 318 797 l 318 165 l 393 165 q 564 235 506 165 q 622 486 622 306 q 593 678 622 610 q 514 772 564 746 q 390 797 464 797 l 318 797 m 1581 963 l 1581 790 l 1163 182 l 1588 182 l 1565 0 l 894 0 l 894 171 l 1321 786 l 938 786 l 938 963 l 1581 963 z "},"Ǆ":{"ha":1625,"x_min":90,"x_max":1588,"o":"m 358 963 q 722 860 585 963 q 858 486 858 758 q 725 109 858 218 q 379 0 592 0 l 90 0 l 90 963 l 358 963 m 318 797 l 318 165 l 393 165 q 564 235 506 165 q 622 486 622 306 q 593 678 622 610 q 514 772 564 746 q 390 797 464 797 l 318 797 m 1581 963 l 1581 790 l 1163 182 l 1588 182 l 1565 0 l 894 0 l 894 171 l 1321 786 l 938 786 l 938 963 l 1581 963 m 1438 1311 l 1515 1221 l 1319 1042 l 1186 1042 l 989 1221 l 1068 1311 l 1253 1194 l 1438 1311 z "},"Ɖ":{"ha":924,"x_min":19,"x_max":878,"o":"m 378 963 q 741 860 604 963 q 878 486 878 758 q 744 109 878 218 q 399 0 611 0 l 110 0 l 110 422 l 19 422 l 19 558 l 110 558 l 110 963 l 378 963 m 413 165 q 583 235 525 165 q 642 486 642 306 q 613 678 642 610 q 533 772 583 746 q 410 797 483 797 l 338 797 l 338 558 l 524 558 l 524 422 l 338 422 l 338 165 l 413 165 z "},"Ð":{"ha":924,"x_min":19,"x_max":878,"o":"m 378 963 q 741 860 604 963 q 878 486 878 758 q 744 109 878 218 q 399 0 611 0 l 110 0 l 110 422 l 19 422 l 19 558 l 110 558 l 110 963 l 378 963 m 413 165 q 583 235 525 165 q 642 486 642 306 q 613 678 642 610 q 533 772 583 746 q 410 797 483 797 l 338 797 l 338 558 l 524 558 l 524 422 l 338 422 l 338 165 l 413 165 z "},"Ď":{"ha":904,"x_min":90,"x_max":858,"o":"m 358 963 q 722 860 585 963 q 858 486 858 758 q 725 109 858 218 q 379 0 592 0 l 90 0 l 90 963 l 358 963 m 318 797 l 318 165 l 393 165 q 564 235 506 165 q 622 486 622 306 q 593 678 622 610 q 514 772 564 746 q 390 797 464 797 l 318 797 m 596 1311 l 674 1221 l 478 1042 l 344 1042 l 147 1221 l 226 1311 l 411 1194 l 596 1311 z "},"Ḓ":{"ha":904,"x_min":90,"x_max":858,"o":"m 358 963 q 722 860 585 963 q 858 486 858 758 q 725 109 858 218 q 379 0 592 0 l 90 0 l 90 963 l 358 963 m 318 797 l 318 165 l 393 165 q 564 235 506 165 q 622 486 622 306 q 593 678 622 610 q 514 772 564 746 q 390 797 464 797 l 318 797 m 239 -368 l 161 -278 l 357 -87 l 492 -87 l 688 -278 l 610 -368 l 425 -240 l 239 -368 z "},"Đ":{"ha":924,"x_min":19,"x_max":878,"o":"m 378 963 q 741 860 604 963 q 878 486 878 758 q 744 109 878 218 q 399 0 611 0 l 110 0 l 110 422 l 19 422 l 19 558 l 110 558 l 110 963 l 378 963 m 413 165 q 583 235 525 165 q 642 486 642 306 q 613 678 642 610 q 533 772 583 746 q 410 797 483 797 l 338 797 l 338 558 l 524 558 l 524 422 l 338 422 l 338 165 l 413 165 z "},"Ḋ":{"ha":904,"x_min":90,"x_max":858,"o":"m 358 963 q 722 860 585 963 q 858 486 858 758 q 725 109 858 218 q 379 0 592 0 l 90 0 l 90 963 l 358 963 m 318 797 l 318 165 l 393 165 q 564 235 506 165 q 622 486 622 306 q 593 678 622 610 q 514 772 564 746 q 390 797 464 797 l 318 797 m 410 1301 q 503 1266 467 1301 q 540 1176 540 1231 q 503 1087 540 1122 q 410 1051 467 1051 q 317 1087 353 1051 q 281 1176 281 1122 q 317 1266 281 1231 q 410 1301 353 1301 z "},"Ḍ":{"ha":904,"x_min":90,"x_max":858,"o":"m 358 963 q 722 860 585 963 q 858 486 858 758 q 725 109 858 218 q 379 0 592 0 l 90 0 l 90 963 l 358 963 m 318 797 l 318 165 l 393 165 q 564 235 506 165 q 622 486 622 306 q 593 678 622 610 q 514 772 564 746 q 390 797 464 797 l 318 797 m 425 -333 q 331 -298 368 -333 q 294 -208 294 -262 q 331 -119 294 -154 q 425 -83 368 -83 q 518 -119 482 -83 q 554 -208 554 -154 q 518 -298 554 -262 q 425 -333 482 -333 z "},"Ɗ":{"ha":1101,"x_min":6,"x_max":1056,"o":"m 556 963 q 919 860 782 963 q 1056 486 1056 758 q 922 109 1056 218 q 576 0 789 0 l 288 0 l 288 800 l 247 800 q 200 785 217 800 q 183 742 183 769 q 207 651 183 706 l 67 589 q 22 671 39 631 q 6 756 6 711 q 74 907 6 851 q 260 963 143 963 l 556 963 m 590 165 q 761 235 703 165 q 819 486 819 306 q 790 678 819 610 q 711 772 761 746 q 588 797 661 797 l 515 797 l 515 165 l 590 165 z "},"Ḏ":{"ha":904,"x_min":90,"x_max":858,"o":"m 358 963 q 722 860 585 963 q 858 486 858 758 q 725 109 858 218 q 379 0 592 0 l 90 0 l 90 963 l 358 963 m 318 797 l 318 165 l 393 165 q 564 235 506 165 q 622 486 622 306 q 593 678 622 610 q 514 772 564 746 q 390 797 464 797 l 318 797 m 636 -265 l 213 -265 l 213 -112 l 636 -112 l 636 -265 z "},"Ƌ":{"ha":828,"x_min":25,"x_max":738,"o":"m 738 0 l 394 0 q 125 77 225 0 q 25 310 25 154 q 126 539 25 458 q 407 619 226 619 l 510 619 l 510 790 l 146 790 l 146 963 l 738 963 l 738 0 m 510 165 l 510 461 l 426 461 q 263 310 263 461 q 421 165 263 165 l 510 165 z "},"ǲ":{"ha":1528,"x_min":90,"x_max":1503,"o":"m 358 963 q 722 860 585 963 q 858 486 858 758 q 725 109 858 218 q 379 0 592 0 l 90 0 l 90 963 l 358 963 m 318 797 l 318 165 l 393 165 q 564 235 506 165 q 622 486 622 306 q 593 678 622 610 q 514 772 564 746 q 390 797 464 797 l 318 797 m 1496 738 l 1496 583 l 1163 167 l 1503 167 l 1483 0 l 908 0 l 908 156 l 1243 572 l 938 572 l 938 738 l 1496 738 z "},"ǅ":{"ha":1528,"x_min":90,"x_max":1503,"o":"m 358 963 q 722 860 585 963 q 858 486 858 758 q 725 109 858 218 q 379 0 592 0 l 90 0 l 90 963 l 358 963 m 318 797 l 318 165 l 393 165 q 564 235 506 165 q 622 486 622 306 q 593 678 622 610 q 514 772 564 746 q 390 797 464 797 l 318 797 m 1496 738 l 1496 583 l 1163 167 l 1503 167 l 1483 0 l 908 0 l 908 156 l 1243 572 l 938 572 l 938 738 l 1496 738 m 1399 1129 l 1476 1039 l 1281 849 l 1147 849 l 950 1039 l 1029 1129 l 1214 1003 l 1399 1129 z "},"E":{"ha":731,"x_min":90,"x_max":681,"o":"m 681 963 l 657 800 l 318 800 l 318 569 l 614 569 l 614 410 l 318 410 l 318 164 l 681 164 l 681 0 l 90 0 l 90 963 l 681 963 z "},"É":{"ha":731,"x_min":90,"x_max":681,"o":"m 681 963 l 657 800 l 318 800 l 318 569 l 614 569 l 614 410 l 318 410 l 318 164 l 681 164 l 681 0 l 90 0 l 90 963 l 681 963 m 500 1328 l 582 1164 l 249 1043 l 193 1154 l 500 1328 z "},"Ĕ":{"ha":731,"x_min":90,"x_max":681,"o":"m 681 963 l 657 800 l 318 800 l 318 569 l 614 569 l 614 410 l 318 410 l 318 164 l 681 164 l 681 0 l 90 0 l 90 963 l 681 963 m 386 1043 q 219 1108 282 1043 q 147 1268 156 1174 l 268 1289 q 311 1220 282 1246 q 386 1194 340 1194 q 461 1220 432 1194 q 506 1289 490 1246 l 626 1268 q 554 1108 618 1174 q 386 1043 490 1043 z "},"Ě":{"ha":731,"x_min":90,"x_max":681,"o":"m 681 963 l 657 800 l 318 800 l 318 569 l 614 569 l 614 410 l 318 410 l 318 164 l 681 164 l 681 0 l 90 0 l 90 963 l 681 963 m 572 1311 l 650 1221 l 454 1042 l 321 1042 l 124 1221 l 203 1311 l 388 1194 l 572 1311 z "},"Ȩ":{"ha":731,"x_min":90,"x_max":681,"o":"m 318 164 l 681 164 l 681 0 l 442 0 l 442 -67 q 551 -110 515 -75 q 586 -204 586 -146 q 530 -319 586 -275 q 379 -364 474 -364 q 292 -352 332 -364 q 224 -322 251 -340 l 274 -221 q 363 -244 321 -244 q 428 -203 428 -244 q 397 -167 428 -178 q 300 -156 367 -156 l 318 0 l 90 0 l 90 963 l 681 963 l 657 800 l 318 800 l 318 569 l 614 569 l 614 410 l 318 410 l 318 164 z "},"Ê":{"ha":731,"x_min":90,"x_max":681,"o":"m 681 963 l 657 800 l 318 800 l 318 569 l 614 569 l 614 410 l 318 410 l 318 164 l 681 164 l 681 0 l 90 0 l 90 963 l 681 963 m 203 1049 l 124 1139 l 321 1318 l 454 1318 l 650 1139 l 572 1049 l 388 1165 l 203 1049 z "},"Ế":{"ha":731,"x_min":90,"x_max":833,"o":"m 681 963 l 657 800 l 318 800 l 318 569 l 614 569 l 614 410 l 318 410 l 318 164 l 681 164 l 681 0 l 90 0 l 90 963 l 681 963 m 203 1001 l 124 1092 l 321 1271 l 454 1271 l 650 1092 l 572 1001 l 388 1118 l 203 1001 m 714 1519 l 833 1403 l 614 1207 l 531 1282 l 714 1519 z "},"Ệ":{"ha":731,"x_min":90,"x_max":681,"o":"m 681 963 l 657 800 l 318 800 l 318 569 l 614 569 l 614 410 l 318 410 l 318 164 l 681 164 l 681 0 l 90 0 l 90 963 l 681 963 m 203 1049 l 124 1139 l 321 1318 l 454 1318 l 650 1139 l 572 1049 l 388 1165 l 203 1049 m 385 -333 q 291 -298 328 -333 q 254 -208 254 -262 q 291 -119 254 -154 q 385 -83 328 -83 q 478 -119 442 -83 q 514 -208 514 -154 q 478 -298 514 -262 q 385 -333 442 -333 z "},"Ề":{"ha":731,"x_min":-57,"x_max":681,"o":"m 681 963 l 657 800 l 318 800 l 318 569 l 614 569 l 614 410 l 318 410 l 318 164 l 681 164 l 681 0 l 90 0 l 90 963 l 681 963 m 201 1001 l 122 1092 l 319 1271 l 453 1271 l 649 1092 l 571 1001 l 386 1118 l 201 1001 m 63 1519 l 244 1282 l 163 1207 l -57 1403 l 63 1519 z "},"Ể":{"ha":731,"x_min":90,"x_max":807,"o":"m 681 963 l 657 800 l 318 800 l 318 569 l 614 569 l 614 410 l 318 410 l 318 164 l 681 164 l 681 0 l 90 0 l 90 963 l 681 963 m 201 1001 l 122 1092 l 319 1271 l 453 1271 l 649 1092 l 571 1001 l 386 1118 l 201 1001 m 560 1313 q 635 1327 613 1315 q 658 1365 658 1339 q 644 1397 658 1386 q 603 1408 629 1408 q 519 1390 565 1408 l 483 1482 q 635 1518 546 1518 q 762 1479 717 1518 q 807 1376 807 1440 q 690 1247 807 1269 l 690 1189 l 560 1189 l 560 1313 z "},"Ễ":{"ha":731,"x_min":90,"x_max":681,"o":"m 681 963 l 657 800 l 318 800 l 318 569 l 614 569 l 614 410 l 318 410 l 318 164 l 681 164 l 681 0 l 90 0 l 90 963 l 681 963 m 200 1001 l 121 1092 l 318 1271 l 451 1271 l 647 1092 l 569 1001 l 385 1118 l 200 1001 m 465 1307 q 412 1317 435 1307 q 364 1343 389 1326 q 333 1361 346 1356 q 307 1367 319 1367 q 267 1353 283 1367 q 233 1308 251 1339 l 124 1358 q 198 1469 151 1426 q 303 1513 244 1513 q 358 1503 335 1513 q 408 1476 381 1494 q 440 1458 428 1464 q 464 1453 451 1453 q 502 1467 486 1453 q 536 1511 518 1481 l 646 1460 q 570 1349 617 1390 q 465 1307 524 1307 z "},"Ȅ":{"ha":731,"x_min":58,"x_max":681,"o":"m 681 963 l 657 800 l 318 800 l 318 569 l 614 569 l 614 410 l 318 410 l 318 164 l 681 164 l 681 0 l 90 0 l 90 963 l 681 963 m 206 1369 l 340 1096 l 228 1043 l 58 1296 l 206 1369 m 450 1369 l 572 1096 l 457 1050 l 300 1300 l 450 1369 z "},"Ë":{"ha":731,"x_min":90,"x_max":681,"o":"m 681 963 l 657 800 l 318 800 l 318 569 l 614 569 l 614 410 l 318 410 l 318 164 l 681 164 l 681 0 l 90 0 l 90 963 l 681 963 m 225 1285 q 305 1253 272 1285 q 338 1175 338 1221 q 305 1097 338 1129 q 225 1065 272 1065 q 145 1097 178 1065 q 113 1175 113 1129 q 145 1253 113 1221 q 225 1285 178 1285 m 546 1285 q 626 1253 594 1285 q 658 1175 658 1221 q 626 1097 658 1129 q 546 1065 594 1065 q 467 1097 500 1065 q 435 1175 435 1129 q 467 1253 435 1221 q 546 1285 500 1285 z "},"Ė":{"ha":731,"x_min":90,"x_max":681,"o":"m 681 963 l 657 800 l 318 800 l 318 569 l 614 569 l 614 410 l 318 410 l 318 164 l 681 164 l 681 0 l 90 0 l 90 963 l 681 963 m 386 1301 q 480 1266 443 1301 q 517 1176 517 1231 q 480 1087 517 1122 q 386 1051 443 1051 q 293 1087 329 1051 q 257 1176 257 1122 q 293 1266 257 1231 q 386 1301 329 1301 z "},"Ẹ":{"ha":731,"x_min":90,"x_max":681,"o":"m 681 963 l 657 800 l 318 800 l 318 569 l 614 569 l 614 410 l 318 410 l 318 164 l 681 164 l 681 0 l 90 0 l 90 963 l 681 963 m 385 -333 q 291 -298 328 -333 q 254 -208 254 -262 q 291 -119 254 -154 q 385 -83 328 -83 q 478 -119 442 -83 q 514 -208 514 -154 q 478 -298 514 -262 q 385 -333 442 -333 z "},"È":{"ha":731,"x_min":90,"x_max":681,"o":"m 681 963 l 657 800 l 318 800 l 318 569 l 614 569 l 614 410 l 318 410 l 318 164 l 681 164 l 681 0 l 90 0 l 90 963 l 681 963 m 269 1328 l 576 1154 l 521 1043 l 188 1164 l 269 1328 z "},"Ẻ":{"ha":731,"x_min":90,"x_max":681,"o":"m 681 963 l 657 800 l 318 800 l 318 569 l 614 569 l 614 410 l 318 410 l 318 164 l 681 164 l 681 0 l 90 0 l 90 963 l 681 963 m 321 1185 q 397 1199 374 1188 q 419 1238 419 1211 q 405 1269 419 1258 q 364 1281 390 1281 q 281 1263 326 1281 l 244 1354 q 396 1390 307 1390 q 523 1351 478 1390 q 568 1249 568 1313 q 451 1119 568 1142 l 451 1061 l 321 1061 l 321 1185 z "},"Ȇ":{"ha":731,"x_min":90,"x_max":681,"o":"m 681 963 l 657 800 l 318 800 l 318 569 l 614 569 l 614 410 l 318 410 l 318 164 l 681 164 l 681 0 l 90 0 l 90 963 l 681 963 m 386 1322 q 555 1254 492 1322 q 626 1082 618 1186 l 506 1061 q 386 1169 476 1169 q 268 1061 294 1169 l 147 1082 q 218 1255 156 1188 q 386 1322 281 1322 z "},"Ē":{"ha":731,"x_min":90,"x_max":681,"o":"m 681 963 l 657 800 l 318 800 l 318 569 l 614 569 l 614 410 l 318 410 l 318 164 l 681 164 l 681 0 l 90 0 l 90 963 l 681 963 m 599 1085 l 175 1085 l 175 1238 l 599 1238 l 599 1085 z "},"Ę":{"ha":731,"x_min":90,"x_max":681,"o":"m 318 164 l 681 164 l 681 0 l 625 0 q 461 -142 461 -61 q 535 -206 461 -206 q 619 -194 568 -206 l 604 -331 q 507 -342 556 -342 q 360 -297 417 -342 q 303 -179 303 -253 q 417 0 303 -68 l 90 0 l 90 963 l 681 963 l 657 800 l 318 800 l 318 569 l 614 569 l 614 410 l 318 410 l 318 164 z "},"Ɛ":{"ha":751,"x_min":36,"x_max":754,"o":"m 404 986 q 580 954 501 986 q 726 858 658 922 l 617 743 q 431 821 529 821 q 331 790 363 821 q 300 708 300 760 q 338 620 300 651 q 443 589 375 589 l 549 589 l 521 425 l 447 425 q 318 388 361 425 q 275 285 275 351 q 318 181 275 218 q 438 144 361 144 q 541 165 494 144 q 633 231 588 186 l 754 111 q 415 -24 628 -24 q 219 13 306 -24 q 85 116 133 49 q 36 271 36 183 q 101 438 36 376 q 281 511 165 499 q 120 590 175 532 q 65 733 65 649 q 108 863 65 806 q 226 953 150 921 q 404 986 303 986 z "},"Ǝ":{"ha":731,"x_min":50,"x_max":640,"o":"m 57 963 l 640 963 l 640 0 l 50 0 l 50 164 l 413 164 l 413 410 l 117 410 l 117 569 l 413 569 l 413 800 l 57 800 l 57 963 z "},"Ʃ":{"ha":699,"x_min":29,"x_max":669,"o":"m 669 963 l 669 797 l 281 797 l 514 519 l 514 429 l 279 169 l 669 169 l 669 0 l 29 0 l 29 165 l 296 472 l 29 797 l 29 963 l 669 963 z "},"Ɇ":{"ha":731,"x_min":90,"x_max":681,"o":"m 468 410 l 403 164 l 681 164 l 681 0 l 360 0 l 332 -103 l 251 -85 l 274 0 l 90 0 l 90 963 l 528 963 l 551 1050 l 632 1031 l 614 963 l 681 963 l 657 800 l 571 800 l 510 569 l 614 569 l 614 410 l 468 410 m 318 800 l 318 569 l 425 569 l 485 800 l 318 800 m 318 410 l 318 168 l 382 410 l 318 410 z "},"Ẽ":{"ha":731,"x_min":90,"x_max":681,"o":"m 681 963 l 657 800 l 318 800 l 318 569 l 614 569 l 614 410 l 318 410 l 318 164 l 681 164 l 681 0 l 90 0 l 90 963 l 681 963 m 468 1057 q 415 1067 438 1057 q 367 1094 393 1076 q 310 1119 332 1119 q 270 1105 286 1119 q 236 1058 254 1090 l 126 1111 q 201 1229 154 1183 q 306 1275 247 1275 q 360 1265 338 1275 q 411 1236 383 1254 q 442 1218 431 1224 q 467 1213 454 1213 q 505 1227 489 1213 q 539 1274 521 1242 l 649 1219 q 573 1101 619 1146 q 468 1057 526 1057 z "},"Ʒ":{"ha":760,"x_min":6,"x_max":722,"o":"m 426 560 q 646 482 569 554 q 722 285 722 410 q 676 127 722 197 q 544 17 631 57 q 338 -24 457 -24 q 144 13 225 -24 q 6 118 64 49 l 122 232 q 217 166 171 186 q 326 146 264 146 q 445 185 403 146 q 488 294 488 224 q 314 428 488 428 l 176 428 l 176 556 l 422 797 l 60 797 l 60 963 l 674 963 l 674 803 l 426 560 z "},"Ǯ":{"ha":760,"x_min":6,"x_max":722,"o":"m 426 560 q 646 482 569 554 q 722 285 722 410 q 676 127 722 197 q 544 17 631 57 q 338 -24 457 -24 q 144 13 225 -24 q 6 118 64 49 l 122 232 q 217 166 171 186 q 326 146 264 146 q 445 185 403 146 q 488 294 488 224 q 314 428 488 428 l 176 428 l 176 556 l 422 797 l 60 797 l 60 963 l 674 963 l 674 803 l 426 560 m 553 1311 l 631 1221 l 435 1042 l 301 1042 l 104 1221 l 183 1311 l 368 1194 l 553 1311 z "},"Ƹ":{"ha":760,"x_min":36,"x_max":754,"o":"m 754 118 q 610 13 693 49 q 411 -24 528 -24 q 212 16 297 -24 q 81 124 126 56 q 36 282 36 193 q 116 478 36 403 q 333 560 196 554 l 86 803 l 86 963 l 699 963 l 699 797 l 340 797 l 583 553 l 583 428 l 444 428 q 316 391 360 428 q 272 285 272 354 q 313 183 272 219 q 424 146 353 146 q 540 166 490 146 q 636 232 589 186 l 754 118 z "},"F":{"ha":676,"x_min":90,"x_max":664,"o":"m 90 0 l 90 963 l 664 963 l 640 800 l 318 800 l 318 544 l 599 544 l 599 382 l 318 382 l 318 0 l 90 0 z "},"Ḟ":{"ha":676,"x_min":90,"x_max":664,"o":"m 90 0 l 90 963 l 664 963 l 640 800 l 318 800 l 318 544 l 599 544 l 599 382 l 318 382 l 318 0 l 90 0 m 389 1301 q 483 1266 446 1301 q 519 1176 519 1231 q 483 1087 519 1122 q 389 1051 446 1051 q 296 1087 332 1051 q 260 1176 260 1122 q 296 1266 260 1231 q 389 1301 332 1301 z "},"Ƒ":{"ha":676,"x_min":-157,"x_max":664,"o":"m 318 800 l 318 544 l 599 544 l 599 382 l 318 382 l 318 -43 q 243 -241 318 -174 q 39 -308 168 -308 q -157 -249 -78 -308 l -82 -114 q -32 -136 -51 -129 q 15 -143 -12 -143 q 71 -122 51 -143 q 90 -58 90 -100 l 90 963 l 664 963 l 640 800 l 318 800 z "},"G":{"ha":896,"x_min":46,"x_max":833,"o":"m 507 986 q 828 868 693 986 l 713 747 q 617 803 661 786 q 517 821 574 821 q 346 737 410 821 q 282 482 282 653 q 331 220 282 297 q 482 143 379 143 q 613 175 554 143 l 613 393 l 488 393 l 465 554 l 833 554 l 833 78 q 668 3 758 29 q 488 -24 578 -24 q 157 105 268 -24 q 46 482 46 233 q 106 754 46 640 q 272 927 167 868 q 507 986 376 986 z "},"Ǵ":{"ha":896,"x_min":46,"x_max":833,"o":"m 507 986 q 828 868 693 986 l 713 747 q 617 803 661 786 q 517 821 574 821 q 346 737 410 821 q 282 482 282 653 q 331 220 282 297 q 482 143 379 143 q 613 175 554 143 l 613 393 l 488 393 l 465 554 l 833 554 l 833 78 q 668 3 758 29 q 488 -24 578 -24 q 157 105 268 -24 q 46 482 46 233 q 106 754 46 640 q 272 927 167 868 q 507 986 376 986 m 601 1328 l 683 1164 l 350 1043 l 294 1154 l 601 1328 z "},"Ɣ":{"ha":792,"x_min":-18,"x_max":810,"o":"m 517 128 q 587 -12 565 49 q 608 -135 608 -72 q 558 -262 608 -215 q 399 -308 507 -308 q 241 -262 293 -308 q 189 -136 189 -217 q 210 -21 189 -79 q 283 128 232 38 l -18 963 l 222 963 l 400 276 l 576 963 l 810 963 l 517 128 m 439 -121 q 429 -67 439 -96 q 399 8 419 -39 q 358 -121 358 -79 q 369 -154 358 -143 q 399 -165 379 -165 q 428 -153 418 -165 q 439 -121 439 -142 z "},"Ğ":{"ha":896,"x_min":46,"x_max":833,"o":"m 507 986 q 828 868 693 986 l 713 747 q 617 803 661 786 q 517 821 574 821 q 346 737 410 821 q 282 482 282 653 q 331 220 282 297 q 482 143 379 143 q 613 175 554 143 l 613 393 l 488 393 l 465 554 l 833 554 l 833 78 q 668 3 758 29 q 488 -24 578 -24 q 157 105 268 -24 q 46 482 46 233 q 106 754 46 640 q 272 927 167 868 q 507 986 376 986 m 488 1043 q 320 1108 383 1043 q 249 1268 257 1174 l 369 1289 q 413 1220 383 1246 q 488 1194 442 1194 q 563 1220 533 1194 q 607 1289 592 1246 l 728 1268 q 656 1108 719 1174 q 488 1043 592 1043 z "},"Ǧ":{"ha":896,"x_min":46,"x_max":833,"o":"m 507 986 q 828 868 693 986 l 713 747 q 617 803 661 786 q 517 821 574 821 q 346 737 410 821 q 282 482 282 653 q 331 220 282 297 q 482 143 379 143 q 613 175 554 143 l 613 393 l 488 393 l 465 554 l 833 554 l 833 78 q 668 3 758 29 q 488 -24 578 -24 q 157 105 268 -24 q 46 482 46 233 q 106 754 46 640 q 272 927 167 868 q 507 986 376 986 m 674 1311 l 751 1221 l 556 1042 l 422 1042 l 225 1221 l 304 1311 l 489 1194 l 674 1311 z "},"Ĝ":{"ha":896,"x_min":46,"x_max":833,"o":"m 507 986 q 828 868 693 986 l 713 747 q 617 803 661 786 q 517 821 574 821 q 346 737 410 821 q 282 482 282 653 q 331 220 282 297 q 482 143 379 143 q 613 175 554 143 l 613 393 l 488 393 l 465 554 l 833 554 l 833 78 q 668 3 758 29 q 488 -24 578 -24 q 157 105 268 -24 q 46 482 46 233 q 106 754 46 640 q 272 927 167 868 q 507 986 376 986 m 304 1049 l 225 1139 l 422 1318 l 556 1318 l 751 1139 l 674 1049 l 489 1165 l 304 1049 z "},"Ģ":{"ha":896,"x_min":46,"x_max":833,"o":"m 507 986 q 828 868 693 986 l 713 747 q 617 803 661 786 q 517 821 574 821 q 346 737 410 821 q 282 482 282 653 q 331 220 282 297 q 482 143 379 143 q 613 175 554 143 l 613 393 l 488 393 l 465 554 l 833 554 l 833 78 q 668 3 758 29 q 488 -24 578 -24 q 157 105 268 -24 q 46 482 46 233 q 106 754 46 640 q 272 927 167 868 q 507 986 376 986 m 483 -94 q 562 -125 531 -94 q 593 -201 593 -156 q 585 -252 593 -228 q 556 -318 576 -276 l 492 -451 l 382 -451 l 419 -292 q 374 -201 374 -256 q 405 -126 374 -157 q 483 -94 436 -94 z "},"Ġ":{"ha":896,"x_min":46,"x_max":833,"o":"m 507 986 q 828 868 693 986 l 713 747 q 617 803 661 786 q 517 821 574 821 q 346 737 410 821 q 282 482 282 653 q 331 220 282 297 q 482 143 379 143 q 613 175 554 143 l 613 393 l 488 393 l 465 554 l 833 554 l 833 78 q 668 3 758 29 q 488 -24 578 -24 q 157 105 268 -24 q 46 482 46 233 q 106 754 46 640 q 272 927 167 868 q 507 986 376 986 m 488 1301 q 581 1266 544 1301 q 618 1176 618 1231 q 581 1087 618 1122 q 488 1051 544 1051 q 394 1087 431 1051 q 358 1176 358 1122 q 394 1266 358 1231 q 488 1301 431 1301 z "},"Ɠ":{"ha":850,"x_min":46,"x_max":1058,"o":"m 871 1182 q 1058 1131 979 1182 l 994 994 q 947 1015 968 1008 q 900 1021 925 1021 q 828 935 828 1021 l 828 868 l 721 757 q 620 805 668 789 q 517 821 572 821 q 346 737 410 821 q 282 482 282 653 q 331 220 282 297 q 482 143 379 143 q 613 175 554 143 l 613 393 l 488 393 l 465 554 l 833 554 l 833 78 q 668 3 758 29 q 483 -24 578 -24 q 156 105 267 -24 q 46 482 46 233 q 106 753 46 639 q 265 927 165 868 q 481 986 365 986 q 635 957 568 986 q 697 1123 638 1064 q 871 1182 757 1182 z "},"Ɂ":{"ha":707,"x_min":6,"x_max":679,"o":"m 204 458 l 281 479 q 405 548 367 504 q 443 674 443 592 q 407 781 443 742 q 304 821 371 821 q 209 802 254 821 q 115 743 164 783 l 6 858 q 335 986 142 986 q 518 949 440 986 q 638 842 596 911 q 679 685 679 774 q 626 504 679 569 q 467 400 572 439 l 432 388 l 432 0 l 204 0 l 204 458 z "},"Ǥ":{"ha":924,"x_min":46,"x_max":921,"o":"m 921 244 l 833 244 l 833 78 q 668 3 758 29 q 486 -24 578 -24 q 157 105 268 -24 q 46 482 46 233 q 106 754 46 640 q 272 927 167 868 q 506 986 376 986 q 684 956 606 986 q 828 868 763 925 l 714 747 q 617 803 661 786 q 517 821 574 821 q 346 737 410 821 q 282 482 282 653 q 331 220 282 297 q 482 143 379 143 q 629 174 556 143 l 629 244 l 479 244 l 479 376 l 629 376 l 629 436 l 485 436 l 465 575 l 833 575 l 833 376 l 921 376 l 921 244 z "},"Ȝ":{"ha":722,"x_min":-3,"x_max":686,"o":"m 328 986 q 503 953 429 986 q 617 861 578 919 q 657 726 657 803 q 603 578 657 636 q 442 497 549 519 q 686 271 686 469 q 543 11 686 124 q 96 -157 400 -101 l 78 11 q 305 90 224 49 q 417 176 386 131 q 447 281 447 222 q 275 411 447 411 l 174 411 l 201 575 l 279 575 q 386 608 349 575 q 424 701 424 640 q 393 789 424 757 q 297 821 363 821 q 103 743 201 821 l -3 858 q 328 986 132 986 z "},"H":{"ha":925,"x_min":90,"x_max":835,"o":"m 607 0 l 607 413 l 318 413 l 318 0 l 90 0 l 90 963 l 318 963 l 318 590 l 607 590 l 607 963 l 835 963 l 835 0 l 607 0 z "},"Ħ":{"ha":940,"x_min":18,"x_max":922,"o":"m 922 822 l 922 694 l 843 694 l 843 0 l 615 0 l 615 413 l 326 413 l 326 0 l 99 0 l 99 694 l 18 694 l 18 822 l 99 822 l 99 963 l 326 963 l 326 822 l 615 822 l 615 963 l 843 963 l 843 822 l 922 822 m 615 590 l 615 694 l 326 694 l 326 590 l 615 590 z "},"Ȟ":{"ha":925,"x_min":90,"x_max":835,"o":"m 607 0 l 607 413 l 318 413 l 318 0 l 90 0 l 90 963 l 318 963 l 318 590 l 607 590 l 607 963 l 835 963 l 835 0 l 607 0 m 647 1311 l 725 1221 l 529 1042 l 396 1042 l 199 1221 l 278 1311 l 463 1194 l 647 1311 z "},"Ĥ":{"ha":925,"x_min":90,"x_max":835,"o":"m 607 0 l 607 413 l 318 413 l 318 0 l 90 0 l 90 963 l 318 963 l 318 590 l 607 590 l 607 963 l 835 963 l 835 0 l 607 0 m 278 1049 l 199 1139 l 396 1318 l 529 1318 l 725 1139 l 647 1049 l 463 1165 l 278 1049 z "},"Ḥ":{"ha":925,"x_min":90,"x_max":835,"o":"m 607 0 l 607 413 l 318 413 l 318 0 l 90 0 l 90 963 l 318 963 l 318 590 l 607 590 l 607 963 l 835 963 l 835 0 l 607 0 m 463 -333 q 369 -298 406 -333 q 332 -208 332 -262 q 369 -119 332 -154 q 463 -83 406 -83 q 556 -119 519 -83 q 592 -208 592 -154 q 556 -298 592 -262 q 463 -333 519 -333 z "},"Ɦ":{"ha":1121,"x_min":6,"x_max":1032,"o":"m 1032 963 l 1032 0 l 804 0 l 804 413 l 515 413 l 515 0 l 288 0 l 288 800 l 247 800 q 200 785 217 800 q 183 742 183 769 q 207 651 183 706 l 67 589 q 22 671 39 631 q 6 756 6 711 q 74 907 6 851 q 260 963 143 963 l 515 963 l 515 590 l 804 590 l 804 963 l 1032 963 z "},"Ɥ":{"ha":860,"x_min":29,"x_max":769,"o":"m 769 963 l 769 0 l 542 0 l 542 356 q 442 300 493 318 q 328 282 392 282 q 108 371 188 282 q 29 613 29 460 l 29 963 l 254 963 l 254 615 q 288 491 254 531 q 393 451 321 451 q 542 506 485 451 l 542 963 l 769 963 z "},"Ƕ":{"ha":1321,"x_min":90,"x_max":1263,"o":"m 1222 738 q 1252 543 1242 636 q 1263 344 1263 450 q 1211 137 1263 219 q 1078 15 1160 54 q 903 -24 996 -24 q 690 45 774 -24 q 607 250 607 114 l 607 413 l 318 413 l 318 0 l 90 0 l 90 963 l 318 963 l 318 590 l 607 590 l 607 963 l 835 963 l 835 254 q 918 138 835 138 q 1006 191 969 138 q 1043 363 1043 244 q 1006 738 1043 519 l 1222 738 z "},"I":{"ha":407,"x_min":90,"x_max":318,"o":"m 318 963 l 318 0 l 90 0 l 90 963 l 318 963 z "},"Ĳ":{"ha":847,"x_min":90,"x_max":763,"o":"m 318 963 l 318 0 l 90 0 l 90 963 l 318 963 m 763 146 q 722 -44 763 31 q 613 -162 681 -119 q 453 -235 546 -204 l 392 -74 q 483 -19 453 -50 q 524 51 514 11 q 535 154 535 92 l 535 963 l 763 963 l 763 146 z "},"Í":{"ha":407,"x_min":8,"x_max":397,"o":"m 318 963 l 318 0 l 90 0 l 90 963 l 318 963 m 315 1328 l 397 1164 l 64 1043 l 8 1154 l 315 1328 z "},"Ĭ":{"ha":407,"x_min":-37,"x_max":442,"o":"m 318 963 l 318 0 l 90 0 l 90 963 l 318 963 m 201 1043 q 34 1108 97 1043 q -37 1268 -29 1174 l 83 1289 q 126 1220 97 1246 q 201 1194 156 1194 q 276 1220 247 1194 q 321 1289 306 1246 l 442 1268 q 369 1108 433 1174 q 201 1043 306 1043 z "},"Ǐ":{"ha":407,"x_min":-61,"x_max":465,"o":"m 318 963 l 318 0 l 90 0 l 90 963 l 318 963 m 388 1311 l 465 1221 l 269 1042 l 136 1042 l -61 1221 l 18 1311 l 203 1194 l 388 1311 z "},"Î":{"ha":407,"x_min":-61,"x_max":465,"o":"m 318 963 l 318 0 l 90 0 l 90 963 l 318 963 m 18 1049 l -61 1139 l 136 1318 l 269 1318 l 465 1139 l 388 1049 l 203 1165 l 18 1049 z "},"Ȉ":{"ha":407,"x_min":-126,"x_max":388,"o":"m 318 963 l 318 0 l 90 0 l 90 963 l 318 963 m 21 1369 l 156 1096 l 43 1043 l -126 1296 l 21 1369 m 265 1369 l 388 1096 l 272 1050 l 115 1300 l 265 1369 z "},"Ï":{"ha":407,"x_min":-72,"x_max":474,"o":"m 318 963 l 318 0 l 90 0 l 90 963 l 318 963 m 40 1285 q 120 1253 88 1285 q 153 1175 153 1221 q 120 1097 153 1129 q 40 1065 88 1065 q -40 1097 -7 1065 q -72 1175 -72 1129 q -40 1253 -72 1221 q 40 1285 -7 1285 m 361 1285 q 442 1253 410 1285 q 474 1175 474 1221 q 442 1097 474 1129 q 361 1065 410 1065 q 283 1097 315 1065 q 250 1175 250 1129 q 283 1253 250 1221 q 361 1285 315 1285 z "},"Ḯ":{"ha":407,"x_min":-79,"x_max":485,"o":"m 318 963 l 318 0 l 90 0 l 90 963 l 318 963 m 303 1524 l 422 1407 l 203 1211 l 119 1286 l 303 1524 m 33 1258 q 113 1226 79 1258 q 146 1149 146 1194 q 113 1071 146 1103 q 33 1039 79 1039 q -47 1071 -14 1039 q -79 1149 -79 1103 q -47 1226 -79 1194 q 33 1258 -14 1258 m 372 1258 q 452 1226 419 1258 q 485 1149 485 1194 q 452 1071 485 1103 q 372 1039 419 1039 q 292 1071 325 1039 q 260 1149 260 1103 q 292 1226 260 1194 q 372 1258 325 1258 z "},"İ":{"ha":407,"x_min":72,"x_max":332,"o":"m 318 963 l 318 0 l 90 0 l 90 963 l 318 963 m 201 1301 q 295 1266 258 1301 q 332 1176 332 1231 q 295 1087 332 1122 q 201 1051 258 1051 q 108 1087 144 1051 q 72 1176 72 1122 q 108 1266 72 1231 q 201 1301 144 1301 z "},"Ị":{"ha":407,"x_min":72,"x_max":332,"o":"m 318 963 l 318 0 l 90 0 l 90 963 l 318 963 m 203 -333 q 109 -298 146 -333 q 72 -208 72 -262 q 109 -119 72 -154 q 203 -83 146 -83 q 296 -119 260 -83 q 332 -208 332 -154 q 296 -298 332 -262 q 203 -333 260 -333 z "},"Ì":{"ha":407,"x_min":3,"x_max":392,"o":"m 318 963 l 318 0 l 90 0 l 90 963 l 318 963 m 85 1328 l 392 1154 l 336 1043 l 3 1164 l 85 1328 z "},"Ỉ":{"ha":407,"x_min":60,"x_max":383,"o":"m 318 963 l 318 0 l 90 0 l 90 963 l 318 963 m 136 1185 q 212 1199 189 1188 q 235 1238 235 1211 q 220 1269 235 1258 q 179 1281 206 1281 q 96 1263 142 1281 l 60 1354 q 211 1390 122 1390 q 338 1351 293 1390 q 383 1249 383 1313 q 267 1119 383 1142 l 267 1061 l 136 1061 l 136 1185 z "},"Ȋ":{"ha":407,"x_min":-37,"x_max":442,"o":"m 318 963 l 318 0 l 90 0 l 90 963 l 318 963 m 201 1322 q 370 1254 307 1322 q 442 1082 433 1186 l 321 1061 q 201 1169 292 1169 q 83 1061 110 1169 l -37 1082 q 33 1255 -29 1188 q 201 1322 96 1322 z "},"Ī":{"ha":407,"x_min":-10,"x_max":414,"o":"m 318 963 l 318 0 l 90 0 l 90 963 l 318 963 m 414 1085 l -10 1085 l -10 1238 l 414 1238 l 414 1085 z "},"Į":{"ha":407,"x_min":-44,"x_max":318,"o":"m 318 963 l 318 0 l 278 0 q 114 -142 114 -61 q 188 -206 114 -206 q 272 -194 221 -206 l 257 -331 q 160 -342 208 -342 q 13 -297 69 -342 q -44 -179 -44 -253 q 90 11 -44 -60 l 90 963 l 318 963 z "},"Ɩ":{"ha":543,"x_min":75,"x_max":550,"o":"m 550 36 q 354 -24 471 -24 q 150 44 225 -24 q 75 242 75 111 l 75 286 l 76 286 l 76 963 l 304 963 l 304 285 l 303 285 l 303 226 q 322 163 303 185 q 378 142 342 142 q 425 149 406 142 q 475 171 444 156 l 550 36 z "},"Ɨ":{"ha":458,"x_min":7,"x_max":450,"o":"m 450 583 l 450 417 l 343 417 l 343 0 l 115 0 l 115 417 l 7 417 l 7 583 l 115 583 l 115 963 l 343 963 l 343 583 l 450 583 z "},"Ĩ":{"ha":407,"x_min":-58,"x_max":464,"o":"m 318 963 l 318 0 l 90 0 l 90 963 l 318 963 m 283 1057 q 231 1067 253 1057 q 182 1094 208 1076 q 125 1119 147 1119 q 85 1105 101 1119 q 51 1058 69 1090 l -58 1111 q 16 1229 -31 1183 q 121 1275 63 1275 q 176 1265 153 1275 q 226 1236 199 1254 q 258 1218 246 1224 q 282 1213 269 1213 q 320 1227 304 1213 q 354 1274 336 1242 l 464 1219 q 388 1101 435 1146 q 283 1057 342 1057 z "},"J":{"ha":440,"x_min":-15,"x_max":356,"o":"m 356 146 q 315 -44 356 31 q 206 -162 274 -119 q 46 -235 139 -204 l -15 -74 q 76 -19 46 -50 q 117 51 107 11 q 128 154 128 92 l 128 963 l 356 963 l 356 146 z "},"Ĵ":{"ha":440,"x_min":-22,"x_max":504,"o":"m 356 146 q 315 -44 356 31 q 206 -162 274 -119 q 46 -235 139 -204 l -15 -74 q 76 -19 46 -50 q 117 51 107 11 q 128 154 128 92 l 128 963 l 356 963 l 356 146 m 57 1049 l -22 1139 l 175 1318 l 308 1318 l 504 1139 l 426 1049 l 242 1165 l 57 1049 z "},"Ʝ":{"ha":492,"x_min":-122,"x_max":553,"o":"m 513 -153 q 383 -106 438 -119 q 90 -308 329 -308 q -67 -264 -11 -308 q -122 -143 -122 -219 q -60 -12 -122 -58 q 115 35 1 35 q 174 32 143 35 l 174 963 l 401 963 l 401 43 q 400 -1 401 13 q 553 -61 478 -24 l 513 -153 m 82 -193 q 149 -166 129 -193 q 172 -74 169 -139 q 115 -71 144 -71 q 38 -87 63 -71 q 14 -137 14 -104 q 82 -193 14 -193 z "},"Ɉ":{"ha":468,"x_min":-15,"x_max":463,"o":"m 463 392 l 356 392 l 356 146 q 315 -44 356 31 q 206 -162 274 -119 q 46 -235 139 -204 l -15 -74 q 76 -19 46 -50 q 117 51 107 11 q 128 154 128 92 l 128 392 l 19 392 l 19 561 l 128 561 l 128 963 l 356 963 l 356 561 l 463 561 l 463 392 z "},"K":{"ha":879,"x_min":90,"x_max":896,"o":"m 318 963 l 318 0 l 90 0 l 90 963 l 318 963 m 871 963 l 564 531 l 896 0 l 632 0 l 325 514 l 631 963 l 871 963 z "},"Ǩ":{"ha":879,"x_min":90,"x_max":896,"o":"m 318 963 l 318 0 l 90 0 l 90 963 l 318 963 m 871 963 l 564 531 l 896 0 l 632 0 l 325 514 l 631 963 l 871 963 m 642 1311 l 719 1221 l 524 1042 l 390 1042 l 193 1221 l 272 1311 l 457 1194 l 642 1311 z "},"Ķ":{"ha":879,"x_min":90,"x_max":896,"o":"m 318 963 l 318 0 l 90 0 l 90 963 l 318 963 m 871 963 l 564 531 l 896 0 l 632 0 l 325 514 l 631 963 l 871 963 m 451 -94 q 530 -125 499 -94 q 561 -201 561 -156 q 553 -252 561 -228 q 524 -318 544 -276 l 460 -451 l 350 -451 l 388 -292 q 342 -201 342 -256 q 373 -126 342 -157 q 451 -94 404 -94 z "},"Ƙ":{"ha":907,"x_min":90,"x_max":925,"o":"m 325 514 l 518 821 q 628 949 574 913 q 768 986 682 986 q 925 935 854 986 l 864 804 q 800 824 833 824 q 751 810 771 824 q 703 751 731 796 l 563 531 l 896 0 l 632 0 l 325 514 m 318 963 l 318 0 l 90 0 l 90 963 l 318 963 z "},"L":{"ha":713,"x_min":90,"x_max":693,"o":"m 318 963 l 318 181 l 693 181 l 669 0 l 90 0 l 90 963 l 318 963 z "},"Ǉ":{"ha":1121,"x_min":90,"x_max":1036,"o":"m 318 963 l 318 181 l 693 181 l 669 0 l 90 0 l 90 963 l 318 963 m 1036 146 q 995 -44 1036 31 q 887 -162 954 -119 q 726 -235 819 -204 l 665 -74 q 757 -19 726 -50 q 798 51 788 11 q 808 154 808 92 l 808 963 l 1036 963 l 1036 146 z "},"Ĺ":{"ha":713,"x_min":10,"x_max":693,"o":"m 318 963 l 318 181 l 693 181 l 669 0 l 90 0 l 90 963 l 318 963 m 317 1328 l 399 1164 l 65 1043 l 10 1154 l 317 1328 z "},"Ƚ":{"ha":736,"x_min":7,"x_max":717,"o":"m 342 181 l 717 181 l 693 0 l 114 0 l 114 419 l 7 419 l 7 589 l 114 589 l 114 963 l 342 963 l 342 589 l 450 589 l 450 419 l 342 419 l 342 181 z "},"Ɬ":{"ha":851,"x_min":1,"x_max":832,"o":"m 832 181 l 808 0 l 229 0 l 229 350 l 228 350 q 58 401 115 353 q 1 532 1 450 q 50 651 1 608 q 176 694 99 694 q 229 689 201 694 l 229 963 l 457 963 l 457 479 q 624 499 540 483 l 640 381 q 457 356 549 361 l 457 181 l 832 181 m 229 476 l 229 575 q 193 579 213 579 q 159 567 171 579 q 147 533 147 556 q 228 476 147 476 l 229 476 z "},"Ľ":{"ha":713,"x_min":90,"x_max":693,"o":"m 318 963 l 318 181 l 693 181 l 669 0 l 90 0 l 90 963 l 318 963 m 497 664 l 574 963 l 407 986 l 375 682 l 497 664 z "},"Ḽ":{"ha":713,"x_min":90,"x_max":693,"o":"m 318 963 l 318 181 l 693 181 l 669 0 l 90 0 l 90 963 l 318 963 m 193 -368 l 115 -278 l 311 -87 l 446 -87 l 642 -278 l 564 -368 l 379 -240 l 193 -368 z "},"Ļ":{"ha":713,"x_min":90,"x_max":693,"o":"m 318 963 l 318 181 l 693 181 l 669 0 l 90 0 l 90 963 l 318 963 m 381 -94 q 459 -125 428 -94 q 490 -201 490 -156 q 482 -252 490 -228 q 453 -318 474 -276 l 389 -451 l 279 -451 l 317 -292 q 271 -201 271 -256 q 302 -126 271 -157 q 381 -94 333 -94 z "},"Ŀ":{"ha":713,"x_min":90,"x_max":693,"o":"m 318 963 l 318 181 l 693 181 l 669 0 l 90 0 l 90 963 l 318 963 m 554 681 q 648 645 611 681 q 685 556 685 610 q 648 466 685 501 q 554 431 611 431 q 461 466 497 431 q 425 556 425 501 q 461 645 425 610 q 554 681 497 681 z "},"Ḷ":{"ha":713,"x_min":90,"x_max":693,"o":"m 318 963 l 318 181 l 693 181 l 669 0 l 90 0 l 90 963 l 318 963 m 379 -333 q 285 -298 322 -333 q 249 -208 249 -262 q 285 -119 249 -154 q 379 -83 322 -83 q 472 -119 436 -83 q 508 -208 508 -154 q 472 -298 508 -262 q 379 -333 436 -333 z "},"ǈ":{"ha":1082,"x_min":90,"x_max":1017,"o":"m 318 963 l 318 181 l 693 181 l 669 0 l 90 0 l 90 963 l 318 963 m 996 83 q 959 -107 996 -32 q 859 -227 922 -182 q 700 -307 796 -272 l 626 -147 q 711 -99 681 -122 q 759 -35 742 -75 q 776 69 776 4 l 776 738 l 996 738 l 996 83 m 886 1126 q 980 1091 943 1126 q 1017 1001 1017 1056 q 980 912 1017 947 q 886 876 943 876 q 793 912 829 876 q 757 1001 757 947 q 793 1091 757 1056 q 886 1126 829 1126 z "},"Ł":{"ha":768,"x_min":11,"x_max":749,"o":"m 374 181 l 749 181 l 725 0 l 146 0 l 146 313 l 86 275 l 11 396 l 144 478 l 146 479 l 146 963 l 374 963 l 374 619 l 550 729 l 625 610 l 374 454 l 374 181 z "},"M":{"ha":1092,"x_min":46,"x_max":1046,"o":"m 1046 0 l 822 0 l 806 376 q 799 617 799 511 q 803 769 799 697 l 654 101 l 439 101 l 281 769 q 289 542 289 649 q 285 374 289 461 l 268 0 l 46 0 l 118 963 l 406 963 l 550 310 l 685 963 l 974 963 l 1046 0 z "},"Ḿ":{"ha":1092,"x_min":46,"x_max":1046,"o":"m 1046 0 l 822 0 l 806 376 q 799 617 799 511 q 803 769 799 697 l 654 101 l 439 101 l 281 769 q 289 542 289 649 q 285 374 289 461 l 268 0 l 46 0 l 118 963 l 406 963 l 550 310 l 685 963 l 974 963 l 1046 0 m 658 1328 l 740 1164 l 407 1043 l 351 1154 l 658 1328 z "},"Ṁ":{"ha":1092,"x_min":46,"x_max":1046,"o":"m 1046 0 l 822 0 l 806 376 q 799 617 799 511 q 803 769 799 697 l 654 101 l 439 101 l 281 769 q 289 542 289 649 q 285 374 289 461 l 268 0 l 46 0 l 118 963 l 406 963 l 550 310 l 685 963 l 974 963 l 1046 0 m 544 1301 q 638 1266 601 1301 q 675 1176 675 1231 q 638 1087 675 1122 q 544 1051 601 1051 q 451 1087 488 1051 q 415 1176 415 1122 q 451 1266 415 1231 q 544 1301 488 1301 z "},"Ɯ":{"ha":1271,"x_min":76,"x_max":1181,"o":"m 1181 963 l 1181 0 l 982 0 l 965 89 q 865 3 917 31 q 747 -24 813 -24 q 623 10 675 -24 q 543 104 571 43 q 432 6 486 36 q 308 -24 378 -24 q 138 51 200 -24 q 76 246 76 125 l 76 963 l 304 963 l 304 257 q 325 175 304 204 q 385 146 346 146 q 447 169 418 146 q 514 239 476 192 l 514 246 l 514 963 l 743 963 l 743 257 q 764 175 743 204 q 822 146 785 146 q 890 168 861 146 q 953 240 919 190 l 953 963 l 1181 963 z "},"N":{"ha":921,"x_min":90,"x_max":832,"o":"m 832 0 l 542 0 l 264 746 q 285 552 278 636 q 293 353 293 468 l 293 0 l 90 0 l 90 963 l 374 963 l 658 215 q 628 574 628 406 l 628 963 l 832 963 l 832 0 z "},"Ǌ":{"ha":1361,"x_min":90,"x_max":1276,"o":"m 832 0 l 542 0 l 264 746 q 285 552 278 636 q 293 353 293 468 l 293 0 l 90 0 l 90 963 l 374 963 l 658 215 q 628 574 628 406 l 628 963 l 832 963 l 832 0 m 1276 146 q 1235 -44 1276 31 q 1127 -162 1194 -119 q 967 -235 1060 -204 l 906 -74 q 997 -19 967 -50 q 1038 51 1028 11 q 1049 154 1049 92 l 1049 963 l 1276 963 l 1276 146 z "},"Ń":{"ha":921,"x_min":90,"x_max":832,"o":"m 832 0 l 542 0 l 264 746 q 285 552 278 636 q 293 353 293 468 l 293 0 l 90 0 l 90 963 l 374 963 l 658 215 q 628 574 628 406 l 628 963 l 832 963 l 832 0 m 579 1328 l 661 1164 l 328 1043 l 272 1154 l 579 1328 z "},"Ň":{"ha":921,"x_min":90,"x_max":832,"o":"m 832 0 l 542 0 l 264 746 q 285 552 278 636 q 293 353 293 468 l 293 0 l 90 0 l 90 963 l 374 963 l 658 215 q 628 574 628 406 l 628 963 l 832 963 l 832 0 m 651 1311 l 729 1221 l 533 1042 l 400 1042 l 203 1221 l 282 1311 l 467 1194 l 651 1311 z "},"Ṋ":{"ha":921,"x_min":90,"x_max":832,"o":"m 832 0 l 542 0 l 264 746 q 285 552 278 636 q 293 353 293 468 l 293 0 l 90 0 l 90 963 l 374 963 l 658 215 q 628 574 628 406 l 628 963 l 832 963 l 832 0 m 275 -368 l 197 -278 l 393 -87 l 528 -87 l 724 -278 l 646 -368 l 461 -240 l 275 -368 z "},"Ņ":{"ha":921,"x_min":90,"x_max":832,"o":"m 832 0 l 542 0 l 264 746 q 285 552 278 636 q 293 353 293 468 l 293 0 l 90 0 l 90 963 l 374 963 l 658 215 q 628 574 628 406 l 628 963 l 832 963 l 832 0 m 463 -94 q 541 -125 510 -94 q 572 -201 572 -156 q 564 -252 572 -228 q 535 -318 556 -276 l 471 -451 l 361 -451 l 399 -292 q 353 -201 353 -256 q 384 -126 353 -157 q 463 -94 415 -94 z "},"Ṅ":{"ha":921,"x_min":90,"x_max":832,"o":"m 832 0 l 542 0 l 264 746 q 285 552 278 636 q 293 353 293 468 l 293 0 l 90 0 l 90 963 l 374 963 l 658 215 q 628 574 628 406 l 628 963 l 832 963 l 832 0 m 465 1301 q 559 1266 522 1301 q 596 1176 596 1231 q 559 1087 596 1122 q 465 1051 522 1051 q 372 1087 408 1051 q 336 1176 336 1122 q 372 1266 336 1231 q 465 1301 408 1301 z "},"Ṇ":{"ha":921,"x_min":90,"x_max":832,"o":"m 832 0 l 542 0 l 264 746 q 285 552 278 636 q 293 353 293 468 l 293 0 l 90 0 l 90 963 l 374 963 l 658 215 q 628 574 628 406 l 628 963 l 832 963 l 832 0 m 461 -333 q 367 -298 404 -333 q 331 -208 331 -262 q 367 -119 331 -154 q 461 -83 404 -83 q 554 -119 518 -83 q 590 -208 590 -154 q 554 -298 590 -262 q 461 -333 518 -333 z "},"Ǹ":{"ha":921,"x_min":90,"x_max":832,"o":"m 832 0 l 542 0 l 264 746 q 285 552 278 636 q 293 353 293 468 l 293 0 l 90 0 l 90 963 l 374 963 l 658 215 q 628 574 628 406 l 628 963 l 832 963 l 832 0 m 349 1328 l 656 1154 l 600 1043 l 267 1164 l 349 1328 z "},"Ŋ":{"ha":921,"x_min":90,"x_max":832,"o":"m 832 963 l 832 -43 q 757 -241 832 -174 q 553 -308 682 -308 q 357 -249 436 -308 l 432 -114 q 482 -136 463 -129 q 529 -143 501 -143 q 585 -122 565 -143 q 604 -58 604 -100 l 604 0 l 542 0 l 264 746 q 285 552 278 636 q 293 353 293 468 l 293 0 l 90 0 l 90 963 l 374 963 l 658 215 q 628 574 628 406 l 628 963 l 832 963 z "},"Ɲ":{"ha":921,"x_min":-161,"x_max":832,"o":"m 832 963 l 832 0 l 542 0 l 264 746 q 285 552 278 636 q 293 353 293 468 l 293 -44 q 224 -241 293 -174 q 35 -308 154 -308 q -161 -249 -82 -308 l -86 -118 q -37 -142 -57 -135 q 11 -149 -17 -149 q 69 -127 49 -149 q 90 -64 90 -106 l 90 963 l 374 963 l 658 215 q 628 574 628 406 l 628 963 l 832 963 z "},"ǋ":{"ha":1311,"x_min":90,"x_max":1246,"o":"m 832 0 l 542 0 l 264 746 q 285 552 278 636 q 293 353 293 468 l 293 0 l 90 0 l 90 963 l 374 963 l 658 215 q 628 574 628 406 l 628 963 l 832 963 l 832 0 m 1225 83 q 1188 -107 1225 -32 q 1088 -227 1151 -182 q 929 -307 1025 -272 l 856 -147 q 940 -99 910 -122 q 988 -35 971 -75 q 1006 69 1006 4 l 1006 738 l 1225 738 l 1225 83 m 1115 1126 q 1209 1091 1172 1126 q 1246 1001 1246 1056 q 1209 912 1246 947 q 1115 876 1172 876 q 1022 912 1058 876 q 986 1001 986 947 q 1022 1091 986 1056 q 1115 1126 1058 1126 z "},"Ƞ":{"ha":908,"x_min":90,"x_max":826,"o":"m 576 986 q 763 915 700 986 q 826 729 826 844 l 826 -292 l 599 -292 l 599 693 q 574 786 599 756 q 497 817 550 817 q 404 794 444 817 q 318 722 364 772 l 318 0 l 90 0 l 90 963 l 289 963 l 307 871 q 431 958 368 931 q 576 986 493 986 z "},"Ñ":{"ha":921,"x_min":90,"x_max":832,"o":"m 832 0 l 542 0 l 264 746 q 285 552 278 636 q 293 353 293 468 l 293 0 l 90 0 l 90 963 l 374 963 l 658 215 q 628 574 628 406 l 628 963 l 832 963 l 832 0 m 547 1057 q 494 1067 517 1057 q 446 1094 472 1076 q 389 1119 411 1119 q 349 1105 365 1119 q 315 1058 333 1090 l 206 1111 q 280 1229 233 1183 q 385 1275 326 1275 q 440 1265 417 1275 q 490 1236 463 1254 q 522 1218 510 1224 q 546 1213 533 1213 q 584 1227 568 1213 q 618 1274 600 1242 l 728 1219 q 652 1101 699 1146 q 547 1057 606 1057 z "},"O":{"ha":960,"x_min":46,"x_max":914,"o":"m 479 986 q 799 854 685 986 q 914 482 914 722 q 862 211 914 325 q 712 37 810 97 q 479 -24 614 -24 q 247 36 344 -24 q 98 209 150 96 q 46 482 46 322 q 98 751 46 638 q 247 926 150 865 q 479 986 344 986 m 479 819 q 333 740 381 819 q 285 482 285 660 q 333 224 285 304 q 479 143 382 143 q 627 223 579 143 q 675 482 675 303 q 626 740 675 661 q 479 819 578 819 z "},"Ȣ":{"ha":904,"x_min":46,"x_max":858,"o":"m 676 556 q 812 458 765 522 q 858 303 858 393 q 809 140 858 215 q 667 21 760 65 q 451 -24 575 -24 q 236 19 328 -24 q 95 137 144 63 q 46 301 46 211 q 92 453 46 389 q 226 553 139 518 q 103 765 103 619 l 103 963 l 331 963 l 331 756 q 358 657 331 690 q 453 624 386 624 q 575 756 575 624 l 575 963 l 803 963 l 803 765 q 770 642 803 696 q 676 556 738 589 m 451 143 q 578 185 536 143 q 619 306 619 228 q 576 422 619 379 q 451 464 533 464 q 328 422 371 464 q 285 304 285 379 q 328 185 285 228 q 451 143 371 143 z "},"Ó":{"ha":960,"x_min":46,"x_max":914,"o":"m 479 986 q 799 854 685 986 q 914 482 914 722 q 862 211 914 325 q 712 37 810 97 q 479 -24 614 -24 q 247 36 344 -24 q 98 209 150 96 q 46 482 46 322 q 98 751 46 638 q 247 926 150 865 q 479 986 344 986 m 479 819 q 333 740 381 819 q 285 482 285 660 q 333 224 285 304 q 479 143 382 143 q 627 223 579 143 q 675 482 675 303 q 626 740 675 661 q 479 819 578 819 m 592 1328 l 674 1164 l 340 1043 l 285 1154 l 592 1328 z "},"Ŏ":{"ha":960,"x_min":46,"x_max":914,"o":"m 479 986 q 799 854 685 986 q 914 482 914 722 q 862 211 914 325 q 712 37 810 97 q 479 -24 614 -24 q 247 36 344 -24 q 98 209 150 96 q 46 482 46 322 q 98 751 46 638 q 247 926 150 865 q 479 986 344 986 m 479 819 q 333 740 381 819 q 285 482 285 660 q 333 224 285 304 q 479 143 382 143 q 627 223 579 143 q 675 482 675 303 q 626 740 675 661 q 479 819 578 819 m 478 1043 q 310 1108 374 1043 q 239 1268 247 1174 l 360 1289 q 403 1220 374 1246 q 478 1194 432 1194 q 553 1220 524 1194 q 597 1289 582 1246 l 718 1268 q 646 1108 710 1174 q 478 1043 582 1043 z "},"Ǒ":{"ha":960,"x_min":46,"x_max":914,"o":"m 479 986 q 799 854 685 986 q 914 482 914 722 q 862 211 914 325 q 712 37 810 97 q 479 -24 614 -24 q 247 36 344 -24 q 98 209 150 96 q 46 482 46 322 q 98 751 46 638 q 247 926 150 865 q 479 986 344 986 m 479 819 q 333 740 381 819 q 285 482 285 660 q 333 224 285 304 q 479 143 382 143 q 627 223 579 143 q 675 482 675 303 q 626 740 675 661 q 479 819 578 819 m 664 1311 l 742 1221 l 546 1042 l 413 1042 l 215 1221 l 294 1311 l 479 1194 l 664 1311 z "},"Ɵ":{"ha":960,"x_min":46,"x_max":914,"o":"m 479 986 q 799 854 685 986 q 914 482 914 722 q 862 211 914 325 q 712 37 810 97 q 479 -24 614 -24 q 247 36 344 -24 q 98 209 150 96 q 46 482 46 322 q 98 751 46 638 q 247 926 150 865 q 479 986 344 986 m 479 819 q 340 756 390 819 q 281 551 290 692 l 679 551 q 619 756 669 692 q 479 819 569 819 m 479 143 q 622 210 571 143 q 681 424 672 276 l 279 424 q 479 143 294 143 z "},"Ô":{"ha":960,"x_min":46,"x_max":914,"o":"m 479 986 q 799 854 685 986 q 914 482 914 722 q 862 211 914 325 q 712 37 810 97 q 479 -24 614 -24 q 247 36 344 -24 q 98 209 150 96 q 46 482 46 322 q 98 751 46 638 q 247 926 150 865 q 479 986 344 986 m 479 819 q 333 740 381 819 q 285 482 285 660 q 333 224 285 304 q 479 143 382 143 q 627 223 579 143 q 675 482 675 303 q 626 740 675 661 q 479 819 578 819 m 294 1049 l 215 1139 l 413 1318 l 546 1318 l 742 1139 l 664 1049 l 479 1165 l 294 1049 z "},"Ố":{"ha":960,"x_min":46,"x_max":925,"o":"m 479 986 q 799 854 685 986 q 914 482 914 722 q 862 211 914 325 q 712 37 810 97 q 479 -24 614 -24 q 247 36 344 -24 q 98 209 150 96 q 46 482 46 322 q 98 751 46 638 q 247 926 150 865 q 479 986 344 986 m 479 819 q 333 740 381 819 q 285 482 285 660 q 333 224 285 304 q 479 143 382 143 q 627 223 579 143 q 675 482 675 303 q 626 740 675 661 q 479 819 578 819 m 294 1001 l 215 1092 l 413 1271 l 546 1271 l 742 1092 l 664 1001 l 479 1118 l 294 1001 m 806 1519 l 925 1403 l 706 1207 l 622 1282 l 806 1519 z "},"Ộ":{"ha":960,"x_min":46,"x_max":914,"o":"m 479 986 q 799 854 685 986 q 914 482 914 722 q 862 211 914 325 q 712 37 810 97 q 479 -24 614 -24 q 247 36 344 -24 q 98 209 150 96 q 46 482 46 322 q 98 751 46 638 q 247 926 150 865 q 479 986 344 986 m 479 819 q 333 740 381 819 q 285 482 285 660 q 333 224 285 304 q 479 143 382 143 q 627 223 579 143 q 675 482 675 303 q 626 740 675 661 q 479 819 578 819 m 294 1049 l 215 1139 l 413 1318 l 546 1318 l 742 1139 l 664 1049 l 479 1165 l 294 1049 m 479 -333 q 385 -298 422 -333 q 349 -208 349 -262 q 385 -119 349 -154 q 479 -83 422 -83 q 572 -119 536 -83 q 608 -208 608 -154 q 572 -298 608 -262 q 479 -333 536 -333 z "},"Ồ":{"ha":960,"x_min":35,"x_max":914,"o":"m 479 986 q 799 854 685 986 q 914 482 914 722 q 862 211 914 325 q 712 37 810 97 q 479 -24 614 -24 q 247 36 344 -24 q 98 209 150 96 q 46 482 46 322 q 98 751 46 638 q 247 926 150 865 q 479 986 344 986 m 479 819 q 333 740 381 819 q 285 482 285 660 q 333 224 285 304 q 479 143 382 143 q 627 223 579 143 q 675 482 675 303 q 626 740 675 661 q 479 819 578 819 m 293 1001 l 214 1092 l 411 1271 l 544 1271 l 740 1092 l 663 1001 l 478 1118 l 293 1001 m 154 1519 l 336 1282 l 254 1207 l 35 1403 l 154 1519 z "},"Ổ":{"ha":960,"x_min":46,"x_max":914,"o":"m 479 986 q 799 854 685 986 q 914 482 914 722 q 862 211 914 325 q 712 37 810 97 q 479 -24 614 -24 q 247 36 344 -24 q 98 209 150 96 q 46 482 46 322 q 98 751 46 638 q 247 926 150 865 q 479 986 344 986 m 479 819 q 333 740 381 819 q 285 482 285 660 q 333 224 285 304 q 479 143 382 143 q 627 223 579 143 q 675 482 675 303 q 626 740 675 661 q 479 819 578 819 m 293 1001 l 214 1092 l 411 1271 l 544 1271 l 740 1092 l 663 1001 l 478 1118 l 293 1001 m 651 1313 q 727 1327 704 1315 q 750 1365 750 1339 q 735 1397 750 1386 q 694 1408 721 1408 q 611 1390 657 1408 l 575 1482 q 726 1518 638 1518 q 853 1479 808 1518 q 899 1376 899 1440 q 782 1247 899 1269 l 782 1189 l 651 1189 l 651 1313 z "},"Ỗ":{"ha":960,"x_min":46,"x_max":914,"o":"m 479 986 q 799 854 685 986 q 914 482 914 722 q 862 211 914 325 q 712 37 810 97 q 479 -24 614 -24 q 247 36 344 -24 q 98 209 150 96 q 46 482 46 322 q 98 751 46 638 q 247 926 150 865 q 479 986 344 986 m 479 819 q 333 740 381 819 q 285 482 285 660 q 333 224 285 304 q 479 143 382 143 q 627 223 579 143 q 675 482 675 303 q 626 740 675 661 q 479 819 578 819 m 292 1001 l 213 1092 l 410 1271 l 543 1271 l 739 1092 l 661 1001 l 476 1118 l 292 1001 m 557 1307 q 503 1317 526 1307 q 456 1343 481 1326 q 424 1361 438 1356 q 399 1367 411 1367 q 359 1353 375 1367 q 325 1308 343 1339 l 215 1358 q 290 1469 243 1426 q 394 1513 336 1513 q 449 1503 426 1513 q 500 1476 472 1494 q 531 1458 519 1464 q 556 1453 543 1453 q 594 1467 578 1453 q 628 1511 610 1481 l 738 1460 q 662 1349 708 1390 q 557 1307 615 1307 z "},"Ȍ":{"ha":960,"x_min":46,"x_max":914,"o":"m 479 986 q 799 854 685 986 q 914 482 914 722 q 862 211 914 325 q 712 37 810 97 q 479 -24 614 -24 q 247 36 344 -24 q 98 209 150 96 q 46 482 46 322 q 98 751 46 638 q 247 926 150 865 q 479 986 344 986 m 479 819 q 333 740 381 819 q 285 482 285 660 q 333 224 285 304 q 479 143 382 143 q 627 223 579 143 q 675 482 675 303 q 626 740 675 661 q 479 819 578 819 m 297 1369 l 432 1096 l 319 1043 l 150 1296 l 297 1369 m 542 1369 l 664 1096 l 549 1050 l 392 1300 l 542 1369 z "},"Ö":{"ha":960,"x_min":46,"x_max":914,"o":"m 479 986 q 799 854 685 986 q 914 482 914 722 q 862 211 914 325 q 712 37 810 97 q 479 -24 614 -24 q 247 36 344 -24 q 98 209 150 96 q 46 482 46 322 q 98 751 46 638 q 247 926 150 865 q 479 986 344 986 m 479 819 q 333 740 381 819 q 285 482 285 660 q 333 224 285 304 q 479 143 382 143 q 627 223 579 143 q 675 482 675 303 q 626 740 675 661 q 479 819 578 819 m 317 1285 q 397 1253 364 1285 q 429 1175 429 1221 q 397 1097 429 1129 q 317 1065 364 1065 q 237 1097 269 1065 q 204 1175 204 1129 q 237 1253 204 1221 q 317 1285 269 1285 m 638 1285 q 718 1253 686 1285 q 750 1175 750 1221 q 718 1097 750 1129 q 638 1065 686 1065 q 559 1097 592 1065 q 526 1175 526 1129 q 559 1253 526 1221 q 638 1285 592 1285 z "},"Ȫ":{"ha":960,"x_min":46,"x_max":914,"o":"m 479 986 q 799 854 685 986 q 914 482 914 722 q 862 211 914 325 q 712 37 810 97 q 479 -24 614 -24 q 247 36 344 -24 q 98 209 150 96 q 46 482 46 322 q 98 751 46 638 q 247 926 150 865 q 479 986 344 986 m 479 819 q 333 740 381 819 q 285 482 285 660 q 333 224 285 304 q 479 143 382 143 q 627 223 579 143 q 675 482 675 303 q 626 740 675 661 q 479 819 578 819 m 318 1254 q 398 1222 365 1254 q 431 1144 431 1190 q 398 1067 431 1099 q 318 1035 365 1035 q 238 1067 271 1035 q 206 1144 206 1099 q 238 1222 206 1190 q 318 1254 271 1254 m 639 1254 q 719 1222 688 1254 q 751 1144 751 1190 q 719 1067 751 1099 q 639 1035 688 1035 q 560 1067 593 1035 q 528 1144 528 1099 q 560 1222 528 1190 q 639 1254 593 1254 m 694 1306 l 271 1306 l 271 1458 l 694 1458 l 694 1306 z "},"Ȯ":{"ha":960,"x_min":46,"x_max":914,"o":"m 479 986 q 799 854 685 986 q 914 482 914 722 q 862 211 914 325 q 712 37 810 97 q 479 -24 614 -24 q 247 36 344 -24 q 98 209 150 96 q 46 482 46 322 q 98 751 46 638 q 247 926 150 865 q 479 986 344 986 m 479 819 q 333 740 381 819 q 285 482 285 660 q 333 224 285 304 q 479 143 382 143 q 627 223 579 143 q 675 482 675 303 q 626 740 675 661 q 479 819 578 819 m 478 1301 q 572 1266 535 1301 q 608 1176 608 1231 q 572 1087 608 1122 q 478 1051 535 1051 q 385 1087 421 1051 q 349 1176 349 1122 q 385 1266 349 1231 q 478 1301 421 1301 z "},"Ȱ":{"ha":960,"x_min":46,"x_max":914,"o":"m 479 986 q 799 854 685 986 q 914 482 914 722 q 862 211 914 325 q 712 37 810 97 q 479 -24 614 -24 q 247 36 344 -24 q 98 209 150 96 q 46 482 46 322 q 98 751 46 638 q 247 926 150 865 q 479 986 344 986 m 479 819 q 333 740 381 819 q 285 482 285 660 q 333 224 285 304 q 479 143 382 143 q 627 223 579 143 q 675 482 675 303 q 626 740 675 661 q 479 819 578 819 m 476 1272 q 570 1237 533 1272 q 607 1147 607 1201 q 570 1058 607 1093 q 476 1022 533 1022 q 383 1058 419 1022 q 347 1147 347 1093 q 383 1237 347 1201 q 476 1272 419 1272 m 690 1307 l 267 1307 l 267 1460 l 690 1460 l 690 1307 z "},"Ọ":{"ha":960,"x_min":46,"x_max":914,"o":"m 479 986 q 799 854 685 986 q 914 482 914 722 q 862 211 914 325 q 712 37 810 97 q 479 -24 614 -24 q 247 36 344 -24 q 98 209 150 96 q 46 482 46 322 q 98 751 46 638 q 247 926 150 865 q 479 986 344 986 m 479 819 q 333 740 381 819 q 285 482 285 660 q 333 224 285 304 q 479 143 382 143 q 627 223 579 143 q 675 482 675 303 q 626 740 675 661 q 479 819 578 819 m 479 -333 q 385 -298 422 -333 q 349 -208 349 -262 q 385 -119 349 -154 q 479 -83 422 -83 q 572 -119 536 -83 q 608 -208 608 -154 q 572 -298 608 -262 q 479 -333 536 -333 z "},"Ò":{"ha":960,"x_min":46,"x_max":914,"o":"m 479 986 q 799 854 685 986 q 914 482 914 722 q 862 211 914 325 q 712 37 810 97 q 479 -24 614 -24 q 247 36 344 -24 q 98 209 150 96 q 46 482 46 322 q 98 751 46 638 q 247 926 150 865 q 479 986 344 986 m 479 819 q 333 740 381 819 q 285 482 285 660 q 333 224 285 304 q 479 143 382 143 q 627 223 579 143 q 675 482 675 303 q 626 740 675 661 q 479 819 578 819 m 361 1328 l 668 1154 l 613 1043 l 279 1164 l 361 1328 z "},"Ỏ":{"ha":960,"x_min":46,"x_max":914,"o":"m 479 986 q 799 854 685 986 q 914 482 914 722 q 862 211 914 325 q 712 37 810 97 q 479 -24 614 -24 q 247 36 344 -24 q 98 209 150 96 q 46 482 46 322 q 98 751 46 638 q 247 926 150 865 q 479 986 344 986 m 479 819 q 333 740 381 819 q 285 482 285 660 q 333 224 285 304 q 479 143 382 143 q 627 223 579 143 q 675 482 675 303 q 626 740 675 661 q 479 819 578 819 m 413 1185 q 488 1199 465 1188 q 511 1238 511 1211 q 497 1269 511 1258 q 456 1281 482 1281 q 372 1263 418 1281 l 336 1354 q 488 1390 399 1390 q 615 1351 569 1390 q 660 1249 660 1313 q 543 1119 660 1142 l 543 1061 l 413 1061 l 413 1185 z "},"Ơ":{"ha":993,"x_min":46,"x_max":990,"o":"m 990 951 q 953 838 990 881 q 849 782 917 796 q 914 482 914 663 q 862 211 914 325 q 712 37 810 97 q 479 -24 614 -24 q 247 36 344 -24 q 98 209 150 96 q 46 482 46 322 q 98 751 46 638 q 247 926 150 865 q 479 986 344 986 q 774 881 661 986 q 825 903 810 885 q 840 958 840 922 q 836 1006 840 986 q 822 1053 832 1026 l 964 1074 q 990 951 990 1024 m 479 143 q 627 223 579 143 q 675 482 675 303 q 626 740 675 661 q 479 819 578 819 q 333 740 381 819 q 285 482 285 660 q 333 224 285 304 q 479 143 382 143 z "},"Ớ":{"ha":993,"x_min":46,"x_max":990,"o":"m 674 1164 l 340 1043 l 285 1154 l 592 1328 l 674 1164 m 990 951 q 953 838 990 881 q 849 782 917 796 q 914 482 914 663 q 862 211 914 325 q 712 37 810 97 q 479 -24 614 -24 q 247 36 344 -24 q 98 209 150 96 q 46 482 46 322 q 98 751 46 638 q 247 926 150 865 q 479 986 344 986 q 774 881 661 986 q 825 903 810 885 q 840 958 840 922 q 836 1006 840 986 q 822 1053 832 1026 l 964 1074 q 990 951 990 1024 m 479 143 q 627 223 579 143 q 675 482 675 303 q 626 740 675 661 q 479 819 578 819 q 333 740 381 819 q 285 482 285 660 q 333 224 285 304 q 479 143 382 143 z "},"Ợ":{"ha":993,"x_min":46,"x_max":990,"o":"m 990 951 q 953 838 990 881 q 849 782 917 796 q 914 482 914 663 q 862 211 914 325 q 712 37 810 97 q 479 -24 614 -24 q 247 36 344 -24 q 98 209 150 96 q 46 482 46 322 q 98 751 46 638 q 247 926 150 865 q 479 986 344 986 q 774 881 661 986 q 825 903 810 885 q 840 958 840 922 q 836 1006 840 986 q 822 1053 832 1026 l 964 1074 q 990 951 990 1024 m 479 143 q 627 223 579 143 q 675 482 675 303 q 626 740 675 661 q 479 819 578 819 q 333 740 381 819 q 285 482 285 660 q 333 224 285 304 q 479 143 382 143 m 479 -83 q 572 -119 536 -83 q 608 -208 608 -154 q 572 -298 608 -262 q 479 -333 536 -333 q 385 -298 422 -333 q 349 -208 349 -262 q 385 -119 349 -154 q 479 -83 422 -83 z "},"Ờ":{"ha":993,"x_min":46,"x_max":990,"o":"m 668 1154 l 613 1043 l 279 1164 l 361 1328 l 668 1154 m 990 951 q 953 838 990 881 q 849 782 917 796 q 914 482 914 663 q 862 211 914 325 q 712 37 810 97 q 479 -24 614 -24 q 247 36 344 -24 q 98 209 150 96 q 46 482 46 322 q 98 751 46 638 q 247 926 150 865 q 479 986 344 986 q 774 881 661 986 q 825 903 810 885 q 840 958 840 922 q 836 1006 840 986 q 822 1053 832 1026 l 964 1074 q 990 951 990 1024 m 479 143 q 627 223 579 143 q 675 482 675 303 q 626 740 675 661 q 479 819 578 819 q 333 740 381 819 q 285 482 285 660 q 333 224 285 304 q 479 143 382 143 z "},"Ở":{"ha":993,"x_min":46,"x_max":990,"o":"m 456 1281 q 372 1263 418 1281 l 336 1354 q 488 1390 399 1390 q 615 1351 569 1390 q 660 1249 660 1313 q 543 1119 660 1142 l 543 1061 l 413 1061 l 413 1185 q 488 1199 465 1188 q 511 1238 511 1211 q 497 1269 511 1258 q 456 1281 482 1281 m 990 951 q 953 838 990 881 q 849 782 917 796 q 914 482 914 663 q 862 211 914 325 q 712 37 810 97 q 479 -24 614 -24 q 247 36 344 -24 q 98 209 150 96 q 46 482 46 322 q 98 751 46 638 q 247 926 150 865 q 479 986 344 986 q 774 881 661 986 q 825 903 810 885 q 840 958 840 922 q 836 1006 840 986 q 822 1053 832 1026 l 964 1074 q 990 951 990 1024 m 479 143 q 627 223 579 143 q 675 482 675 303 q 626 740 675 661 q 479 819 578 819 q 333 740 381 819 q 285 482 285 660 q 333 224 285 304 q 479 143 382 143 z "},"Ỡ":{"ha":993,"x_min":46,"x_max":990,"o":"m 401 1119 q 362 1105 378 1119 q 328 1058 346 1090 l 218 1111 q 292 1229 246 1183 q 397 1275 339 1275 q 452 1265 429 1275 q 503 1236 475 1254 q 534 1218 522 1224 q 558 1213 546 1213 q 597 1227 581 1213 q 631 1274 613 1242 l 740 1219 q 665 1101 711 1146 q 560 1057 618 1057 q 507 1067 529 1057 q 458 1094 485 1076 q 401 1119 424 1119 m 990 951 q 953 838 990 881 q 849 782 917 796 q 914 482 914 663 q 862 211 914 325 q 712 37 810 97 q 479 -24 614 -24 q 247 36 344 -24 q 98 209 150 96 q 46 482 46 322 q 98 751 46 638 q 247 926 150 865 q 479 986 344 986 q 774 881 661 986 q 825 903 810 885 q 840 958 840 922 q 836 1006 840 986 q 822 1053 832 1026 l 964 1074 q 990 951 990 1024 m 479 143 q 627 223 579 143 q 675 482 675 303 q 626 740 675 661 q 479 819 578 819 q 333 740 381 819 q 285 482 285 660 q 333 224 285 304 q 479 143 382 143 z "},"Ő":{"ha":960,"x_min":46,"x_max":914,"o":"m 479 986 q 799 854 685 986 q 914 482 914 722 q 862 211 914 325 q 712 37 810 97 q 479 -24 614 -24 q 247 36 344 -24 q 98 209 150 96 q 46 482 46 322 q 98 751 46 638 q 247 926 150 865 q 479 986 344 986 m 479 819 q 333 740 381 819 q 285 482 285 660 q 333 224 285 304 q 479 143 382 143 q 627 223 579 143 q 675 482 675 303 q 626 740 675 661 q 479 819 578 819 m 417 1369 l 567 1300 l 410 1050 l 294 1096 l 417 1369 m 661 1369 l 808 1296 l 640 1043 l 526 1096 l 661 1369 z "},"Ƣ":{"ha":1333,"x_min":46,"x_max":1244,"o":"m 961 988 q 1169 919 1094 988 q 1244 721 1244 851 l 1244 -292 l 1017 -292 l 1017 729 q 933 828 1017 828 q 832 804 886 828 q 914 482 914 676 q 862 211 914 325 q 712 37 810 97 q 479 -24 614 -24 q 247 36 344 -24 q 98 209 150 96 q 46 482 46 322 q 98 751 46 638 q 247 926 150 865 q 479 986 344 986 q 728 913 625 986 q 838 969 782 950 q 961 988 894 988 m 479 143 q 627 223 579 143 q 675 482 675 303 q 626 740 675 661 q 479 819 578 819 q 333 740 381 819 q 285 482 285 660 q 333 224 285 304 q 479 143 382 143 z "},"Ȏ":{"ha":960,"x_min":46,"x_max":914,"o":"m 479 986 q 799 854 685 986 q 914 482 914 722 q 862 211 914 325 q 712 37 810 97 q 479 -24 614 -24 q 247 36 344 -24 q 98 209 150 96 q 46 482 46 322 q 98 751 46 638 q 247 926 150 865 q 479 986 344 986 m 479 819 q 333 740 381 819 q 285 482 285 660 q 333 224 285 304 q 479 143 382 143 q 627 223 579 143 q 675 482 675 303 q 626 740 675 661 q 479 819 578 819 m 478 1322 q 647 1254 583 1322 q 718 1082 710 1186 l 597 1061 q 478 1169 568 1169 q 360 1061 386 1169 l 239 1082 q 310 1255 247 1188 q 478 1322 372 1322 z "},"Ō":{"ha":960,"x_min":46,"x_max":914,"o":"m 479 986 q 799 854 685 986 q 914 482 914 722 q 862 211 914 325 q 712 37 810 97 q 479 -24 614 -24 q 247 36 344 -24 q 98 209 150 96 q 46 482 46 322 q 98 751 46 638 q 247 926 150 865 q 479 986 344 986 m 479 819 q 333 740 381 819 q 285 482 285 660 q 333 224 285 304 q 479 143 382 143 q 627 223 579 143 q 675 482 675 303 q 626 740 675 661 q 479 819 578 819 m 690 1085 l 267 1085 l 267 1238 l 690 1238 l 690 1085 z "},"Ṓ":{"ha":960,"x_min":46,"x_max":914,"o":"m 479 986 q 799 854 685 986 q 914 482 914 722 q 862 211 914 325 q 712 37 810 97 q 479 -24 614 -24 q 247 36 344 -24 q 98 209 150 96 q 46 482 46 322 q 98 751 46 638 q 247 926 150 865 q 479 986 344 986 m 479 819 q 333 740 381 819 q 285 482 285 660 q 333 224 285 304 q 479 143 382 143 q 627 223 579 143 q 675 482 675 303 q 626 740 675 661 q 479 819 578 819 m 690 1057 l 267 1057 l 267 1210 l 690 1210 l 690 1057 m 593 1536 l 675 1372 l 342 1251 l 286 1363 l 593 1536 z "},"Ṑ":{"ha":960,"x_min":46,"x_max":914,"o":"m 363 1547 l 669 1374 l 614 1263 l 281 1383 l 363 1547 m 690 1057 l 267 1057 l 267 1210 l 690 1210 l 690 1057 m 479 986 q 799 854 685 986 q 914 482 914 722 q 862 211 914 325 q 712 37 810 97 q 479 -24 614 -24 q 247 36 344 -24 q 98 209 150 96 q 46 482 46 322 q 98 751 46 638 q 247 926 150 865 q 479 986 344 986 m 479 819 q 333 740 381 819 q 285 482 285 660 q 333 224 285 304 q 479 143 382 143 q 627 223 579 143 q 675 482 675 303 q 626 740 675 661 q 479 819 578 819 z "},"Ꞷ":{"ha":1232,"x_min":67,"x_max":1165,"o":"m 1056 963 q 1135 723 1106 849 q 1165 419 1165 597 q 851 -24 1165 -24 q 614 149 664 -24 q 532 19 592 63 q 386 -24 472 -24 q 146 83 225 -24 q 67 419 67 189 q 96 722 67 597 q 175 963 125 847 l 386 963 q 317 708 340 826 q 294 432 294 590 q 321 208 294 274 q 411 143 347 143 q 503 268 503 143 l 503 554 l 728 554 l 728 268 q 751 172 728 200 q 822 143 774 143 q 910 207 882 143 q 938 431 938 271 q 912 709 938 590 q 836 963 886 828 l 1056 963 z "},"Ǫ":{"ha":960,"x_min":46,"x_max":914,"o":"m 914 482 q 840 170 914 296 q 633 0 767 44 q 469 -142 469 -61 q 543 -206 469 -206 q 628 -194 576 -206 l 613 -331 q 515 -342 564 -342 q 368 -297 425 -342 q 311 -179 311 -253 q 399 -18 311 -82 q 138 138 231 8 q 46 482 46 268 q 98 751 46 638 q 247 926 150 865 q 479 986 344 986 q 799 854 685 986 q 914 482 914 722 m 479 143 q 627 223 579 143 q 675 482 675 303 q 626 740 675 661 q 479 819 578 819 q 333 740 381 819 q 285 482 285 660 q 333 224 285 304 q 479 143 382 143 z "},"Ǭ":{"ha":960,"x_min":46,"x_max":914,"o":"m 690 1238 l 690 1085 l 267 1085 l 267 1238 l 690 1238 m 914 482 q 840 170 914 296 q 633 0 767 44 q 469 -142 469 -61 q 543 -206 469 -206 q 628 -194 576 -206 l 613 -331 q 515 -342 564 -342 q 368 -297 425 -342 q 311 -179 311 -253 q 399 -18 311 -82 q 138 138 231 8 q 46 482 46 268 q 98 751 46 638 q 247 926 150 865 q 479 986 344 986 q 799 854 685 986 q 914 482 914 722 m 479 143 q 627 223 579 143 q 675 482 675 303 q 626 740 675 661 q 479 819 578 819 q 333 740 381 819 q 285 482 285 660 q 333 224 285 304 q 479 143 382 143 z "},"Ɔ":{"ha":799,"x_min":11,"x_max":753,"o":"m 336 986 q 555 927 461 986 q 701 755 649 868 q 753 483 753 642 q 699 208 753 322 q 546 35 644 93 q 317 -24 447 -24 q 144 11 221 -24 q 11 100 68 46 l 113 229 q 207 172 164 192 q 306 153 250 153 q 459 232 404 153 q 514 483 514 311 q 322 818 514 818 q 223 801 268 818 q 132 749 178 783 l 22 881 q 163 960 88 933 q 336 986 239 986 z "},"Ø":{"ha":960,"x_min":46,"x_max":914,"o":"m 714 926 q 863 754 811 868 q 914 482 914 640 q 862 211 914 325 q 712 37 810 97 q 479 -24 614 -24 q 411 -19 444 -24 l 361 -186 l 189 -142 l 244 38 q 97 210 149 97 q 46 482 46 324 q 98 751 46 638 q 247 926 150 865 q 479 986 344 986 q 549 982 515 986 l 600 1150 l 771 1104 l 714 926 m 479 819 q 333 740 381 819 q 285 482 285 660 q 338 206 285 282 l 521 817 q 479 819 496 819 m 479 143 q 627 223 579 143 q 675 482 675 303 q 622 758 675 685 l 438 146 q 479 143 465 143 z "},"Ǿ":{"ha":960,"x_min":46,"x_max":914,"o":"m 714 926 q 863 754 811 868 q 914 482 914 640 q 862 211 914 325 q 712 37 810 97 q 479 -24 614 -24 q 411 -19 444 -24 l 361 -186 l 189 -142 l 244 38 q 97 210 149 97 q 46 482 46 324 q 98 751 46 638 q 247 926 150 865 q 479 986 344 986 q 549 982 515 986 l 600 1150 l 771 1104 l 714 926 m 479 819 q 333 740 381 819 q 285 482 285 660 q 338 206 285 282 l 521 817 q 479 819 496 819 m 479 143 q 627 223 579 143 q 675 482 675 303 q 622 758 675 685 l 438 146 q 479 143 465 143 m 589 1375 l 671 1211 l 338 1090 l 282 1201 l 589 1375 z "},"Õ":{"ha":960,"x_min":46,"x_max":914,"o":"m 479 986 q 799 854 685 986 q 914 482 914 722 q 862 211 914 325 q 712 37 810 97 q 479 -24 614 -24 q 247 36 344 -24 q 98 209 150 96 q 46 482 46 322 q 98 751 46 638 q 247 926 150 865 q 479 986 344 986 m 479 819 q 333 740 381 819 q 285 482 285 660 q 333 224 285 304 q 479 143 382 143 q 627 223 579 143 q 675 482 675 303 q 626 740 675 661 q 479 819 578 819 m 560 1057 q 507 1067 529 1057 q 458 1094 485 1076 q 401 1119 424 1119 q 362 1105 378 1119 q 328 1058 346 1090 l 218 1111 q 292 1229 246 1183 q 397 1275 339 1275 q 452 1265 429 1275 q 503 1236 475 1254 q 534 1218 522 1224 q 558 1213 546 1213 q 597 1227 581 1213 q 631 1274 613 1242 l 740 1219 q 665 1101 711 1146 q 560 1057 618 1057 z "},"Ṍ":{"ha":960,"x_min":46,"x_max":914,"o":"m 479 986 q 799 854 685 986 q 914 482 914 722 q 862 211 914 325 q 712 37 810 97 q 479 -24 614 -24 q 247 36 344 -24 q 98 209 150 96 q 46 482 46 322 q 98 751 46 638 q 247 926 150 865 q 479 986 344 986 m 479 819 q 333 740 381 819 q 285 482 285 660 q 333 224 285 304 q 479 143 382 143 q 627 223 579 143 q 675 482 675 303 q 626 740 675 661 q 479 819 578 819 m 560 1050 q 507 1060 529 1050 q 458 1088 485 1069 q 401 1113 424 1113 q 362 1098 378 1113 q 328 1051 346 1083 l 218 1104 q 292 1222 246 1176 q 397 1268 339 1268 q 452 1258 429 1268 q 503 1229 475 1247 q 534 1211 522 1217 q 558 1206 546 1206 q 597 1220 581 1206 q 631 1267 613 1235 l 740 1213 q 665 1094 711 1139 q 560 1050 618 1050 m 592 1574 l 674 1410 l 340 1289 l 285 1400 l 592 1574 z "},"Ȭ":{"ha":960,"x_min":46,"x_max":914,"o":"m 479 986 q 799 854 685 986 q 914 482 914 722 q 862 211 914 325 q 712 37 810 97 q 479 -24 614 -24 q 247 36 344 -24 q 98 209 150 96 q 46 482 46 322 q 98 751 46 638 q 247 926 150 865 q 479 986 344 986 m 479 819 q 333 740 381 819 q 285 482 285 660 q 333 224 285 304 q 479 143 382 143 q 627 223 579 143 q 675 482 675 303 q 626 740 675 661 q 479 819 578 819 m 560 1050 q 507 1060 529 1050 q 458 1088 485 1069 q 401 1113 424 1113 q 362 1098 378 1113 q 328 1051 346 1083 l 218 1104 q 292 1222 246 1176 q 397 1268 339 1268 q 452 1258 429 1268 q 503 1229 475 1247 q 534 1211 522 1217 q 558 1206 546 1206 q 597 1220 581 1206 q 631 1267 613 1235 l 740 1213 q 665 1094 711 1139 q 560 1050 618 1050 m 690 1310 l 267 1310 l 267 1463 l 690 1463 l 690 1310 z "},"Œ":{"ha":1257,"x_min":46,"x_max":1207,"o":"m 882 410 q 786 164 864 263 l 1207 164 l 1207 0 l 589 0 q 457 -24 529 -24 q 240 36 332 -24 q 97 210 147 96 q 46 482 46 324 q 97 751 46 638 q 240 926 147 865 q 457 986 333 986 q 594 963 532 986 l 1207 963 l 1183 800 l 792 800 q 881 569 864 706 l 1140 569 l 1140 410 l 882 410 m 465 143 q 601 224 556 143 q 647 482 647 304 q 601 739 647 658 q 465 819 554 819 q 331 739 376 819 q 285 482 285 658 q 465 143 285 143 z "},"P":{"ha":833,"x_min":90,"x_max":803,"o":"m 401 963 q 697 883 592 963 q 803 649 803 804 q 699 403 803 486 q 422 321 596 321 l 318 321 l 318 0 l 90 0 l 90 963 l 401 963 m 403 485 q 526 523 483 485 q 568 649 568 561 q 399 800 568 800 l 318 800 l 318 485 l 403 485 z "},"Ṕ":{"ha":833,"x_min":90,"x_max":803,"o":"m 401 963 q 697 883 592 963 q 803 649 803 804 q 699 403 803 486 q 422 321 596 321 l 318 321 l 318 0 l 90 0 l 90 963 l 401 963 m 403 485 q 526 523 483 485 q 568 649 568 561 q 399 800 568 800 l 318 800 l 318 485 l 403 485 m 529 1328 l 611 1164 l 278 1043 l 222 1154 l 529 1328 z "},"Ṗ":{"ha":833,"x_min":90,"x_max":803,"o":"m 401 963 q 697 883 592 963 q 803 649 803 804 q 699 403 803 486 q 422 321 596 321 l 318 321 l 318 0 l 90 0 l 90 963 l 401 963 m 403 485 q 526 523 483 485 q 568 649 568 561 q 399 800 568 800 l 318 800 l 318 485 l 403 485 m 415 1301 q 509 1266 472 1301 q 546 1176 546 1231 q 509 1087 546 1122 q 415 1051 472 1051 q 322 1087 358 1051 q 286 1176 286 1122 q 322 1266 286 1231 q 415 1301 358 1301 z "},"Ƥ":{"ha":1029,"x_min":6,"x_max":1000,"o":"m 599 963 q 894 883 789 963 q 1000 649 1000 804 q 897 403 1000 486 q 619 321 793 321 l 515 321 l 515 0 l 288 0 l 288 800 l 247 800 q 200 785 217 800 q 183 742 183 769 q 207 651 183 706 l 67 589 q 22 671 39 631 q 6 756 6 711 q 74 907 6 851 q 260 963 143 963 l 599 963 m 600 485 q 723 523 681 485 q 765 649 765 561 q 596 800 765 800 l 515 800 l 515 485 l 600 485 z "},"Þ":{"ha":833,"x_min":90,"x_max":803,"o":"m 401 813 q 697 732 592 813 q 803 494 803 651 q 699 243 803 328 q 422 158 596 158 l 318 158 l 318 0 l 90 0 l 90 963 l 318 963 l 318 813 l 401 813 m 403 324 q 526 363 483 324 q 568 494 568 403 q 526 612 568 574 q 399 650 483 650 l 318 650 l 318 324 l 403 324 z "},"Q":{"ha":958,"x_min":46,"x_max":972,"o":"m 688 63 q 844 41 778 63 q 972 -25 911 19 l 835 -204 q 672 -67 756 -115 q 465 -19 589 -19 q 242 40 336 -19 q 97 211 147 99 q 46 482 46 324 q 98 751 46 638 q 247 926 150 865 q 479 986 344 986 q 799 854 685 986 q 914 482 914 722 q 688 63 914 188 m 285 482 q 333 224 285 304 q 479 143 382 143 q 627 223 579 143 q 675 482 675 303 q 626 740 675 661 q 479 819 578 819 q 333 740 381 819 q 285 482 285 660 z "},"Ɋ":{"ha":935,"x_min":46,"x_max":1092,"o":"m 1092 -249 q 896 -308 1013 -308 q 692 -241 767 -308 q 617 -43 617 -174 l 617 50 q 425 -24 540 -24 q 227 34 313 -24 q 94 202 142 92 q 46 465 46 313 q 95 744 46 626 q 231 924 144 863 q 429 986 318 986 q 633 907 547 986 l 642 963 l 844 963 l 844 -58 q 864 -122 844 -100 q 919 -143 883 -143 q 967 -136 947 -143 q 1017 -114 986 -129 l 1092 -249 m 471 139 q 617 196 556 139 l 617 763 q 475 819 556 819 q 333 736 381 819 q 285 465 285 653 q 333 215 285 290 q 471 139 381 139 z "},"R":{"ha":857,"x_min":90,"x_max":861,"o":"m 407 368 l 318 368 l 318 0 l 90 0 l 90 963 l 406 963 q 702 890 603 963 q 801 669 801 818 q 757 515 801 576 q 617 410 713 453 l 861 0 l 604 0 l 407 368 m 318 525 l 414 525 q 528 560 490 525 q 567 669 567 594 q 526 771 567 739 q 400 803 485 803 l 318 803 l 318 525 z "},"Ŕ":{"ha":857,"x_min":90,"x_max":861,"o":"m 407 368 l 318 368 l 318 0 l 90 0 l 90 963 l 406 963 q 702 890 603 963 q 801 669 801 818 q 757 515 801 576 q 617 410 713 453 l 861 0 l 604 0 l 407 368 m 318 525 l 414 525 q 528 560 490 525 q 567 669 567 594 q 526 771 567 739 q 400 803 485 803 l 318 803 l 318 525 m 531 1328 l 613 1164 l 279 1043 l 224 1154 l 531 1328 z "},"Ř":{"ha":857,"x_min":90,"x_max":861,"o":"m 407 368 l 318 368 l 318 0 l 90 0 l 90 963 l 406 963 q 702 890 603 963 q 801 669 801 818 q 757 515 801 576 q 617 410 713 453 l 861 0 l 604 0 l 407 368 m 318 525 l 414 525 q 528 560 490 525 q 567 669 567 594 q 526 771 567 739 q 400 803 485 803 l 318 803 l 318 525 m 603 1311 l 681 1221 l 485 1042 l 351 1042 l 154 1221 l 233 1311 l 418 1194 l 603 1311 z "},"Ŗ":{"ha":857,"x_min":90,"x_max":861,"o":"m 407 368 l 318 368 l 318 0 l 90 0 l 90 963 l 406 963 q 702 890 603 963 q 801 669 801 818 q 757 515 801 576 q 617 410 713 453 l 861 0 l 604 0 l 407 368 m 318 525 l 414 525 q 528 560 490 525 q 567 669 567 594 q 526 771 567 739 q 400 803 485 803 l 318 803 l 318 525 m 433 -94 q 512 -125 481 -94 q 543 -201 543 -156 q 535 -252 543 -228 q 506 -318 526 -276 l 442 -451 l 332 -451 l 369 -292 q 324 -201 324 -256 q 355 -126 324 -157 q 433 -94 386 -94 z "},"Ȑ":{"ha":857,"x_min":89,"x_max":861,"o":"m 407 368 l 318 368 l 318 0 l 90 0 l 90 963 l 406 963 q 702 890 603 963 q 801 669 801 818 q 757 515 801 576 q 617 410 713 453 l 861 0 l 604 0 l 407 368 m 318 525 l 414 525 q 528 560 490 525 q 567 669 567 594 q 526 771 567 739 q 400 803 485 803 l 318 803 l 318 525 m 236 1369 l 371 1096 l 258 1043 l 89 1296 l 236 1369 m 481 1369 l 603 1096 l 488 1050 l 331 1300 l 481 1369 z "},"Ṛ":{"ha":857,"x_min":90,"x_max":861,"o":"m 407 368 l 318 368 l 318 0 l 90 0 l 90 963 l 406 963 q 702 890 603 963 q 801 669 801 818 q 757 515 801 576 q 617 410 713 453 l 861 0 l 604 0 l 407 368 m 318 525 l 414 525 q 528 560 490 525 q 567 669 567 594 q 526 771 567 739 q 400 803 485 803 l 318 803 l 318 525 m 432 -333 q 338 -298 375 -333 q 301 -208 301 -262 q 338 -119 301 -154 q 432 -83 375 -83 q 525 -119 489 -83 q 561 -208 561 -154 q 525 -298 561 -262 q 432 -333 489 -333 z "},"Ȓ":{"ha":857,"x_min":90,"x_max":861,"o":"m 407 368 l 318 368 l 318 0 l 90 0 l 90 963 l 406 963 q 702 890 603 963 q 801 669 801 818 q 757 515 801 576 q 617 410 713 453 l 861 0 l 604 0 l 407 368 m 318 525 l 414 525 q 528 560 490 525 q 567 669 567 594 q 526 771 567 739 q 400 803 485 803 l 318 803 l 318 525 m 417 1322 q 585 1254 522 1322 q 657 1082 649 1186 l 536 1061 q 417 1169 507 1169 q 299 1061 325 1169 l 178 1082 q 249 1255 186 1188 q 417 1322 311 1322 z "},"Ɍ":{"ha":876,"x_min":19,"x_max":881,"o":"m 624 0 l 426 368 l 338 368 l 338 0 l 110 0 l 110 368 l 19 368 l 19 525 l 110 525 l 110 963 l 425 963 q 722 890 622 963 q 821 669 821 818 q 776 515 821 576 q 636 410 732 453 l 881 0 l 624 0 m 433 525 q 548 560 510 525 q 586 669 586 594 q 545 771 586 739 q 419 803 504 803 l 338 803 l 338 525 l 433 525 z "},"Ɽ":{"ha":857,"x_min":89,"x_max":861,"o":"m 317 0 l 317 -58 q 336 -122 317 -100 q 392 -143 356 -143 q 439 -136 419 -143 q 489 -114 458 -129 l 564 -249 q 368 -308 485 -308 q 164 -241 239 -308 q 89 -43 89 -174 l 89 1 l 90 1 l 90 963 l 406 963 q 702 890 603 963 q 801 669 801 818 q 757 515 801 576 q 617 410 713 453 l 861 0 l 604 0 l 407 368 l 318 368 l 318 0 l 317 0 m 318 803 l 318 525 l 414 525 q 528 560 490 525 q 567 669 567 594 q 526 771 567 739 q 400 803 485 803 l 318 803 z "},"S":{"ha":794,"x_min":13,"x_max":760,"o":"m 400 986 q 588 956 508 986 q 733 863 668 925 l 628 739 q 417 819 529 819 q 322 795 357 819 q 288 725 288 771 q 303 673 288 693 q 357 635 318 653 q 474 592 396 617 q 690 476 621 544 q 760 281 760 407 q 714 122 760 190 q 582 15 668 53 q 378 -24 496 -24 q 169 14 260 -24 q 13 114 78 51 l 128 240 q 242 169 183 193 q 371 146 301 146 q 483 177 442 146 q 524 264 524 208 q 508 324 524 300 q 456 368 493 349 q 347 410 418 388 q 120 529 188 458 q 53 708 53 600 q 97 855 53 792 q 221 952 142 918 q 400 986 300 986 z "},"Ś":{"ha":794,"x_min":13,"x_max":760,"o":"m 400 986 q 588 956 508 986 q 733 863 668 925 l 628 739 q 417 819 529 819 q 322 795 357 819 q 288 725 288 771 q 303 673 288 693 q 357 635 318 653 q 474 592 396 617 q 690 476 621 544 q 760 281 760 407 q 714 122 760 190 q 582 15 668 53 q 378 -24 496 -24 q 169 14 260 -24 q 13 114 78 51 l 128 240 q 242 169 183 193 q 371 146 301 146 q 483 177 442 146 q 524 264 524 208 q 508 324 524 300 q 456 368 493 349 q 347 410 418 388 q 120 529 188 458 q 53 708 53 600 q 97 855 53 792 q 221 952 142 918 q 400 986 300 986 m 522 1328 l 604 1164 l 271 1043 l 215 1154 l 522 1328 z "},"Ꞌ":{"ha":347,"x_min":67,"x_max":281,"o":"m 93 464 l 67 963 l 281 963 l 254 464 l 93 464 z "},"Š":{"ha":794,"x_min":13,"x_max":760,"o":"m 400 986 q 588 956 508 986 q 733 863 668 925 l 628 739 q 417 819 529 819 q 322 795 357 819 q 288 725 288 771 q 303 673 288 693 q 357 635 318 653 q 474 592 396 617 q 690 476 621 544 q 760 281 760 407 q 714 122 760 190 q 582 15 668 53 q 378 -24 496 -24 q 169 14 260 -24 q 13 114 78 51 l 128 240 q 242 169 183 193 q 371 146 301 146 q 483 177 442 146 q 524 264 524 208 q 508 324 524 300 q 456 368 493 349 q 347 410 418 388 q 120 529 188 458 q 53 708 53 600 q 97 855 53 792 q 221 952 142 918 q 400 986 300 986 m 594 1311 l 672 1221 l 476 1042 l 343 1042 l 146 1221 l 225 1311 l 410 1194 l 594 1311 z "},"Ş":{"ha":794,"x_min":13,"x_max":760,"o":"m 760 281 q 678 78 760 160 q 450 -19 596 -3 l 450 -67 q 559 -110 524 -75 q 594 -204 594 -146 q 538 -319 594 -275 q 388 -364 482 -364 q 300 -352 340 -364 q 232 -322 260 -340 l 282 -221 q 371 -244 329 -244 q 436 -203 436 -244 q 406 -167 436 -178 q 308 -156 375 -156 l 324 -21 q 13 114 138 -6 l 128 240 q 242 169 183 193 q 371 146 301 146 q 483 177 442 146 q 524 264 524 208 q 508 324 524 300 q 456 368 493 349 q 347 410 418 388 q 120 529 188 458 q 53 708 53 600 q 97 855 53 792 q 221 952 142 918 q 400 986 300 986 q 588 956 508 986 q 733 863 668 925 l 628 739 q 417 819 529 819 q 322 795 357 819 q 288 725 288 771 q 303 673 288 693 q 357 635 318 653 q 474 592 396 617 q 690 476 621 544 q 760 281 760 407 z "},"Ŝ":{"ha":794,"x_min":13,"x_max":760,"o":"m 400 986 q 588 956 508 986 q 733 863 668 925 l 628 739 q 417 819 529 819 q 322 795 357 819 q 288 725 288 771 q 303 673 288 693 q 357 635 318 653 q 474 592 396 617 q 690 476 621 544 q 760 281 760 407 q 714 122 760 190 q 582 15 668 53 q 378 -24 496 -24 q 169 14 260 -24 q 13 114 78 51 l 128 240 q 242 169 183 193 q 371 146 301 146 q 483 177 442 146 q 524 264 524 208 q 508 324 524 300 q 456 368 493 349 q 347 410 418 388 q 120 529 188 458 q 53 708 53 600 q 97 855 53 792 q 221 952 142 918 q 400 986 300 986 m 225 1049 l 146 1139 l 343 1318 l 476 1318 l 672 1139 l 594 1049 l 410 1165 l 225 1049 z "},"Ș":{"ha":794,"x_min":13,"x_max":760,"o":"m 400 986 q 588 956 508 986 q 733 863 668 925 l 628 739 q 417 819 529 819 q 322 795 357 819 q 288 725 288 771 q 303 673 288 693 q 357 635 318 653 q 474 592 396 617 q 690 476 621 544 q 760 281 760 407 q 714 122 760 190 q 582 15 668 53 q 378 -24 496 -24 q 169 14 260 -24 q 13 114 78 51 l 128 240 q 242 169 183 193 q 371 146 301 146 q 483 177 442 146 q 524 264 524 208 q 508 324 524 300 q 456 368 493 349 q 347 410 418 388 q 120 529 188 458 q 53 708 53 600 q 97 855 53 792 q 221 952 142 918 q 400 986 300 986 m 394 -94 q 473 -125 442 -94 q 504 -201 504 -156 q 496 -252 504 -228 q 467 -318 488 -276 l 403 -451 l 293 -451 l 331 -292 q 285 -201 285 -256 q 316 -126 285 -157 q 394 -94 347 -94 z "},"Ṡ":{"ha":794,"x_min":13,"x_max":760,"o":"m 400 986 q 588 956 508 986 q 733 863 668 925 l 628 739 q 417 819 529 819 q 322 795 357 819 q 288 725 288 771 q 303 673 288 693 q 357 635 318 653 q 474 592 396 617 q 690 476 621 544 q 760 281 760 407 q 714 122 760 190 q 582 15 668 53 q 378 -24 496 -24 q 169 14 260 -24 q 13 114 78 51 l 128 240 q 242 169 183 193 q 371 146 301 146 q 483 177 442 146 q 524 264 524 208 q 508 324 524 300 q 456 368 493 349 q 347 410 418 388 q 120 529 188 458 q 53 708 53 600 q 97 855 53 792 q 221 952 142 918 q 400 986 300 986 m 408 1301 q 502 1266 465 1301 q 539 1176 539 1231 q 502 1087 539 1122 q 408 1051 465 1051 q 315 1087 351 1051 q 279 1176 279 1122 q 315 1266 279 1231 q 408 1301 351 1301 z "},"Ṣ":{"ha":794,"x_min":13,"x_max":760,"o":"m 400 986 q 588 956 508 986 q 733 863 668 925 l 628 739 q 417 819 529 819 q 322 795 357 819 q 288 725 288 771 q 303 673 288 693 q 357 635 318 653 q 474 592 396 617 q 690 476 621 544 q 760 281 760 407 q 714 122 760 190 q 582 15 668 53 q 378 -24 496 -24 q 169 14 260 -24 q 13 114 78 51 l 128 240 q 242 169 183 193 q 371 146 301 146 q 483 177 442 146 q 524 264 524 208 q 508 324 524 300 q 456 368 493 349 q 347 410 418 388 q 120 529 188 458 q 53 708 53 600 q 97 855 53 792 q 221 952 142 918 q 400 986 300 986 m 393 -333 q 299 -298 336 -333 q 263 -208 263 -262 q 299 -119 263 -154 q 393 -83 336 -83 q 486 -119 450 -83 q 522 -208 522 -154 q 486 -298 522 -262 q 393 -333 450 -333 z "},"ẞ":{"ha":929,"x_min":90,"x_max":893,"o":"m 429 986 q 635 960 543 986 q 828 888 728 935 l 828 783 l 624 546 q 893 272 893 504 q 849 111 893 178 q 728 10 804 44 q 558 -24 651 -24 q 376 14 449 -24 l 443 164 q 529 147 481 147 q 621 179 586 147 q 656 276 656 211 q 601 389 656 350 q 426 436 546 428 l 426 557 l 618 788 q 443 819 529 819 q 349 785 379 819 q 318 679 318 751 l 318 0 l 90 0 l 90 674 q 177 904 90 822 q 429 986 264 986 z "},"Ə":{"ha":889,"x_min":32,"x_max":842,"o":"m 429 986 q 734 860 626 986 q 842 489 842 733 q 733 108 842 239 q 433 -24 624 -24 q 132 106 232 -24 q 32 469 32 236 q 40 563 32 521 l 611 563 q 554 757 606 694 q 408 819 503 819 q 292 799 343 819 q 189 740 240 778 l 86 864 q 242 956 158 925 q 429 986 325 986 m 432 143 q 562 204 517 143 q 613 406 607 265 l 251 406 q 432 143 253 143 z "},"T":{"ha":750,"x_min":13,"x_max":749,"o":"m 749 963 l 726 788 l 489 788 l 489 0 l 261 0 l 261 788 l 13 788 l 13 963 l 749 963 z "},"Ŧ":{"ha":750,"x_min":13,"x_max":749,"o":"m 726 786 l 489 786 l 489 540 l 649 540 l 649 413 l 489 413 l 489 -1 l 261 -1 l 261 413 l 101 413 l 101 540 l 261 540 l 261 786 l 13 786 l 13 961 l 749 961 l 726 786 z "},"Ť":{"ha":750,"x_min":13,"x_max":749,"o":"m 749 963 l 726 788 l 489 788 l 489 0 l 261 0 l 261 788 l 13 788 l 13 963 l 749 963 m 560 1311 l 638 1221 l 442 1042 l 308 1042 l 111 1221 l 190 1311 l 375 1194 l 560 1311 z "},"Ţ":{"ha":750,"x_min":13,"x_max":749,"o":"m 489 -67 q 598 -111 561 -75 q 635 -204 635 -147 q 578 -319 635 -275 q 426 -364 521 -364 q 340 -352 381 -364 q 272 -322 299 -340 l 322 -221 q 407 -244 369 -244 q 476 -201 476 -244 q 446 -167 476 -178 q 349 -156 415 -156 l 367 0 l 261 0 l 261 788 l 13 788 l 13 963 l 749 963 l 726 788 l 489 788 l 489 -67 z "},"Ṱ":{"ha":750,"x_min":13,"x_max":749,"o":"m 749 963 l 726 788 l 489 788 l 489 0 l 261 0 l 261 788 l 13 788 l 13 963 l 749 963 m 189 -368 l 111 -278 l 307 -87 l 442 -87 l 638 -278 l 560 -368 l 375 -240 l 189 -368 z "},"Ț":{"ha":750,"x_min":13,"x_max":749,"o":"m 749 963 l 726 788 l 489 788 l 489 0 l 261 0 l 261 788 l 13 788 l 13 963 l 749 963 m 376 -94 q 455 -125 424 -94 q 486 -201 486 -156 q 478 -252 486 -228 q 449 -318 469 -276 l 385 -451 l 275 -451 l 313 -292 q 267 -201 267 -256 q 298 -126 267 -157 q 376 -94 329 -94 z "},"Ⱦ":{"ha":750,"x_min":13,"x_max":749,"o":"m 726 796 l 604 796 l 475 518 l 475 0 l 275 0 l 275 89 l 186 -103 l 117 -71 l 275 269 l 275 796 l 13 796 l 13 963 l 597 963 l 639 1053 l 708 1019 l 682 963 l 749 963 l 726 796 m 475 700 l 519 796 l 475 796 l 475 700 z "},"Ṫ":{"ha":750,"x_min":13,"x_max":749,"o":"m 749 963 l 726 788 l 489 788 l 489 0 l 261 0 l 261 788 l 13 788 l 13 963 l 749 963 m 374 1301 q 467 1266 431 1301 q 504 1176 504 1231 q 467 1087 504 1122 q 374 1051 431 1051 q 281 1087 317 1051 q 244 1176 244 1122 q 281 1266 244 1231 q 374 1301 317 1301 z "},"Ṭ":{"ha":750,"x_min":13,"x_max":749,"o":"m 749 963 l 726 788 l 489 788 l 489 0 l 261 0 l 261 788 l 13 788 l 13 963 l 749 963 m 375 -333 q 281 -298 318 -333 q 244 -208 244 -262 q 281 -119 244 -154 q 375 -83 318 -83 q 468 -119 432 -83 q 504 -208 504 -154 q 468 -298 504 -262 q 375 -333 432 -333 z "},"Ƭ":{"ha":826,"x_min":6,"x_max":825,"o":"m 801 788 l 565 788 l 565 0 l 338 0 l 338 788 l 249 788 q 201 773 218 788 q 185 732 185 758 q 190 694 185 711 q 207 653 196 676 l 57 589 q 6 754 6 675 q 76 907 6 851 q 269 963 146 963 l 825 963 l 801 788 z "},"Ṯ":{"ha":750,"x_min":13,"x_max":749,"o":"m 749 963 l 726 788 l 489 788 l 489 0 l 261 0 l 261 788 l 13 788 l 13 963 l 749 963 m 586 -265 l 163 -265 l 163 -112 l 586 -112 l 586 -265 z "},"Ƽ":{"ha":754,"x_min":18,"x_max":708,"o":"m 640 806 l 292 806 l 292 597 q 439 631 360 631 q 578 594 517 631 q 674 486 639 557 q 708 317 708 415 q 663 138 708 214 q 533 19 617 61 q 335 -24 449 -24 q 156 15 235 -24 q 18 118 76 53 l 140 232 q 328 142 217 142 q 442 186 401 142 q 483 317 483 231 q 351 481 483 481 q 294 473 322 481 q 231 447 267 465 l 81 447 l 81 963 l 665 963 l 640 806 z "},"Ƅ":{"ha":854,"x_min":15,"x_max":833,"o":"m 450 635 q 733 558 633 635 q 833 326 833 481 q 731 82 833 164 q 456 0 628 0 l 119 0 l 119 683 l 15 753 q 156 963 99 839 l 347 963 l 347 635 l 450 635 m 436 165 q 594 324 594 165 q 554 439 594 401 q 431 476 514 476 l 347 476 l 347 165 l 436 165 z "},"Ƨ":{"ha":782,"x_min":33,"x_max":768,"o":"m 406 986 q 583 953 506 986 q 703 858 661 919 q 746 714 746 796 q 676 537 746 604 q 447 419 606 469 q 308 353 346 389 q 271 264 271 318 q 309 177 271 207 q 414 147 347 147 q 654 240 540 147 l 768 114 q 608 14 701 51 q 399 -24 515 -24 q 206 15 289 -24 q 78 121 124 53 q 33 276 33 189 q 104 466 33 397 q 319 581 175 535 q 436 626 396 606 q 493 669 476 646 q 510 726 510 693 q 478 796 510 772 q 389 819 446 819 q 274 800 326 819 q 171 740 222 781 l 64 863 q 406 986 204 986 z "},"Ʈ":{"ha":753,"x_min":13,"x_max":749,"o":"m 564 -143 q 611 -136 592 -143 q 661 -114 631 -129 l 736 -249 q 540 -308 657 -308 q 336 -241 411 -308 q 261 -43 261 -174 l 261 788 l 13 788 l 13 963 l 749 963 l 726 788 l 489 788 l 489 -58 q 508 -122 489 -100 q 564 -143 528 -143 z "},"U":{"ha":904,"x_min":76,"x_max":828,"o":"m 828 319 q 785 143 828 221 q 658 21 743 65 q 451 -24 574 -24 q 172 69 268 -24 q 76 319 76 163 l 76 963 l 304 963 l 304 329 q 340 191 304 236 q 451 146 375 146 q 565 191 529 146 q 600 329 600 236 l 600 963 l 828 963 l 828 319 z "},"Ú":{"ha":904,"x_min":76,"x_max":828,"o":"m 828 319 q 785 143 828 221 q 658 21 743 65 q 451 -24 574 -24 q 172 69 268 -24 q 76 319 76 163 l 76 963 l 304 963 l 304 329 q 340 191 304 236 q 451 146 375 146 q 565 191 529 146 q 600 329 600 236 l 600 963 l 828 963 l 828 319 m 564 1328 l 646 1164 l 313 1043 l 257 1154 l 564 1328 z "},"Ʉ":{"ha":946,"x_min":18,"x_max":928,"o":"m 928 694 l 849 694 l 849 319 q 806 143 849 221 q 679 21 764 65 q 472 -24 594 -24 q 193 69 289 -24 q 97 319 97 163 l 97 694 l 18 694 l 18 822 l 97 822 l 97 963 l 325 963 l 325 822 l 621 822 l 621 963 l 849 963 l 849 822 l 928 822 l 928 694 m 621 694 l 325 694 l 325 329 q 360 191 325 236 q 472 146 396 146 q 585 191 550 146 q 621 329 621 236 l 621 694 z "},"Ŭ":{"ha":904,"x_min":76,"x_max":828,"o":"m 828 319 q 785 143 828 221 q 658 21 743 65 q 451 -24 574 -24 q 172 69 268 -24 q 76 319 76 163 l 76 963 l 304 963 l 304 329 q 340 191 304 236 q 451 146 375 146 q 565 191 529 146 q 600 329 600 236 l 600 963 l 828 963 l 828 319 m 450 1043 q 283 1108 346 1043 q 211 1268 219 1174 l 332 1289 q 375 1220 346 1246 q 450 1194 404 1194 q 525 1220 496 1194 q 569 1289 554 1246 l 690 1268 q 618 1108 682 1174 q 450 1043 554 1043 z "},"Ǔ":{"ha":904,"x_min":76,"x_max":828,"o":"m 828 319 q 785 143 828 221 q 658 21 743 65 q 451 -24 574 -24 q 172 69 268 -24 q 76 319 76 163 l 76 963 l 304 963 l 304 329 q 340 191 304 236 q 451 146 375 146 q 565 191 529 146 q 600 329 600 236 l 600 963 l 828 963 l 828 319 m 636 1311 l 714 1221 l 518 1042 l 385 1042 l 188 1221 l 267 1311 l 451 1194 l 636 1311 z "},"Û":{"ha":904,"x_min":76,"x_max":828,"o":"m 828 319 q 785 143 828 221 q 658 21 743 65 q 451 -24 574 -24 q 172 69 268 -24 q 76 319 76 163 l 76 963 l 304 963 l 304 329 q 340 191 304 236 q 451 146 375 146 q 565 191 529 146 q 600 329 600 236 l 600 963 l 828 963 l 828 319 m 267 1049 l 188 1139 l 385 1318 l 518 1318 l 714 1139 l 636 1049 l 451 1165 l 267 1049 z "},"Ȕ":{"ha":904,"x_min":76,"x_max":828,"o":"m 828 319 q 785 143 828 221 q 658 21 743 65 q 451 -24 574 -24 q 172 69 268 -24 q 76 319 76 163 l 76 963 l 304 963 l 304 329 q 340 191 304 236 q 451 146 375 146 q 565 191 529 146 q 600 329 600 236 l 600 963 l 828 963 l 828 319 m 269 1369 l 404 1096 l 292 1043 l 122 1296 l 269 1369 m 514 1369 l 636 1096 l 521 1050 l 364 1300 l 514 1369 z "},"Ü":{"ha":904,"x_min":76,"x_max":828,"o":"m 828 319 q 785 143 828 221 q 658 21 743 65 q 451 -24 574 -24 q 172 69 268 -24 q 76 319 76 163 l 76 963 l 304 963 l 304 329 q 340 191 304 236 q 451 146 375 146 q 565 191 529 146 q 600 329 600 236 l 600 963 l 828 963 l 828 319 m 289 1285 q 369 1253 336 1285 q 401 1175 401 1221 q 369 1097 401 1129 q 289 1065 336 1065 q 209 1097 242 1065 q 176 1175 176 1129 q 209 1253 176 1221 q 289 1285 242 1285 m 610 1285 q 690 1253 658 1285 q 722 1175 722 1221 q 690 1097 722 1129 q 610 1065 658 1065 q 531 1097 564 1065 q 499 1175 499 1129 q 531 1253 499 1221 q 610 1285 564 1285 z "},"Ǘ":{"ha":904,"x_min":76,"x_max":828,"o":"m 828 319 q 785 143 828 221 q 658 21 743 65 q 451 -24 574 -24 q 172 69 268 -24 q 76 319 76 163 l 76 963 l 304 963 l 304 329 q 340 191 304 236 q 451 146 375 146 q 565 191 529 146 q 600 329 600 236 l 600 963 l 828 963 l 828 319 m 551 1524 l 671 1407 l 451 1211 l 368 1286 l 551 1524 m 282 1258 q 361 1226 328 1258 q 394 1149 394 1194 q 361 1071 394 1103 q 282 1039 328 1039 q 202 1071 235 1039 q 169 1149 169 1103 q 202 1226 169 1194 q 282 1258 235 1258 m 621 1258 q 701 1226 668 1258 q 733 1149 733 1194 q 701 1071 733 1103 q 621 1039 668 1039 q 541 1071 574 1039 q 508 1149 508 1103 q 541 1226 508 1194 q 621 1258 574 1258 z "},"Ǚ":{"ha":904,"x_min":76,"x_max":828,"o":"m 828 319 q 785 143 828 221 q 658 21 743 65 q 451 -24 574 -24 q 172 69 268 -24 q 76 319 76 163 l 76 963 l 304 963 l 304 329 q 340 191 304 236 q 451 146 375 146 q 565 191 529 146 q 600 329 600 236 l 600 963 l 828 963 l 828 319 m 633 1528 l 711 1438 l 515 1258 l 382 1258 l 185 1438 l 264 1528 l 449 1411 l 633 1528 m 281 1258 q 360 1226 328 1258 q 393 1149 393 1194 q 360 1071 393 1103 q 281 1039 328 1039 q 201 1071 233 1039 q 168 1149 168 1103 q 201 1226 168 1194 q 281 1258 233 1258 m 619 1258 q 699 1226 667 1258 q 732 1149 732 1194 q 699 1071 732 1103 q 619 1039 667 1039 q 540 1071 572 1039 q 508 1149 508 1103 q 540 1226 508 1194 q 619 1258 572 1258 z "},"Ǜ":{"ha":904,"x_min":76,"x_max":828,"o":"m 828 319 q 785 143 828 221 q 658 21 743 65 q 451 -24 574 -24 q 172 69 268 -24 q 76 319 76 163 l 76 963 l 304 963 l 304 329 q 340 191 304 236 q 451 146 375 146 q 565 191 529 146 q 600 329 600 236 l 600 963 l 828 963 l 828 319 m 356 1524 l 538 1286 l 456 1211 l 236 1407 l 356 1524 m 282 1258 q 362 1226 329 1258 q 394 1149 394 1194 q 362 1071 394 1103 q 282 1039 329 1039 q 202 1071 235 1039 q 169 1149 169 1103 q 202 1226 169 1194 q 282 1258 235 1258 m 621 1258 q 701 1226 668 1258 q 733 1149 733 1194 q 701 1071 733 1103 q 621 1039 668 1039 q 541 1071 574 1039 q 508 1149 508 1103 q 541 1226 508 1194 q 621 1258 574 1258 z "},"Ǖ":{"ha":904,"x_min":76,"x_max":828,"o":"m 828 319 q 785 143 828 221 q 658 21 743 65 q 451 -24 574 -24 q 172 69 268 -24 q 76 319 76 163 l 76 963 l 304 963 l 304 329 q 340 191 304 236 q 451 146 375 146 q 565 191 529 146 q 600 329 600 236 l 600 963 l 828 963 l 828 319 m 290 1254 q 370 1222 338 1254 q 403 1144 403 1190 q 370 1067 403 1099 q 290 1035 338 1035 q 210 1067 243 1035 q 178 1144 178 1099 q 210 1222 178 1190 q 290 1254 243 1254 m 611 1254 q 692 1222 660 1254 q 724 1144 724 1190 q 692 1067 724 1099 q 611 1035 660 1035 q 533 1067 565 1035 q 500 1144 500 1099 q 533 1222 500 1190 q 611 1254 565 1254 m 667 1306 l 243 1306 l 243 1458 l 667 1458 l 667 1306 z "},"Ụ":{"ha":904,"x_min":76,"x_max":828,"o":"m 828 319 q 785 143 828 221 q 658 21 743 65 q 451 -24 574 -24 q 172 69 268 -24 q 76 319 76 163 l 76 963 l 304 963 l 304 329 q 340 191 304 236 q 451 146 375 146 q 565 191 529 146 q 600 329 600 236 l 600 963 l 828 963 l 828 319 m 451 -333 q 358 -298 394 -333 q 321 -208 321 -262 q 358 -119 321 -154 q 451 -83 394 -83 q 544 -119 508 -83 q 581 -208 581 -154 q 544 -298 581 -262 q 451 -333 508 -333 z "},"Ù":{"ha":904,"x_min":76,"x_max":828,"o":"m 828 319 q 785 143 828 221 q 658 21 743 65 q 451 -24 574 -24 q 172 69 268 -24 q 76 319 76 163 l 76 963 l 304 963 l 304 329 q 340 191 304 236 q 451 146 375 146 q 565 191 529 146 q 600 329 600 236 l 600 963 l 828 963 l 828 319 m 333 1328 l 640 1154 l 585 1043 l 251 1164 l 333 1328 z "},"Ủ":{"ha":904,"x_min":76,"x_max":828,"o":"m 828 319 q 785 143 828 221 q 658 21 743 65 q 451 -24 574 -24 q 172 69 268 -24 q 76 319 76 163 l 76 963 l 304 963 l 304 329 q 340 191 304 236 q 451 146 375 146 q 565 191 529 146 q 600 329 600 236 l 600 963 l 828 963 l 828 319 m 385 1185 q 460 1199 438 1188 q 483 1238 483 1211 q 469 1269 483 1258 q 428 1281 454 1281 q 344 1263 390 1281 l 308 1354 q 460 1390 371 1390 q 587 1351 542 1390 q 632 1249 632 1313 q 515 1119 632 1142 l 515 1061 l 385 1061 l 385 1185 z "},"Ư":{"ha":1007,"x_min":76,"x_max":1035,"o":"m 1008 1074 q 1035 951 1035 1024 q 980 821 1035 865 q 828 775 925 776 l 828 319 q 785 143 828 221 q 658 21 743 65 q 451 -24 574 -24 q 172 69 268 -24 q 76 319 76 163 l 76 963 l 304 963 l 304 329 q 340 191 304 236 q 451 146 375 146 q 565 191 529 146 q 600 329 600 236 l 600 963 l 828 963 l 828 882 q 872 906 858 888 q 885 958 885 925 q 881 1006 885 986 q 867 1053 876 1026 l 1008 1074 z "},"Ứ":{"ha":1007,"x_min":76,"x_max":1035,"o":"m 646 1164 l 313 1043 l 257 1154 l 564 1328 l 646 1164 m 1008 1074 q 1035 951 1035 1024 q 980 821 1035 865 q 828 775 925 776 l 828 319 q 785 143 828 221 q 658 21 743 65 q 451 -24 574 -24 q 172 69 268 -24 q 76 319 76 163 l 76 963 l 304 963 l 304 329 q 340 191 304 236 q 451 146 375 146 q 565 191 529 146 q 600 329 600 236 l 600 963 l 828 963 l 828 882 q 872 906 858 888 q 885 958 885 925 q 881 1006 885 986 q 867 1053 876 1026 l 1008 1074 z "},"Ự":{"ha":1007,"x_min":76,"x_max":1035,"o":"m 1008 1074 q 1035 951 1035 1024 q 980 821 1035 865 q 828 775 925 776 l 828 319 q 785 143 828 221 q 658 21 743 65 q 451 -24 574 -24 q 172 69 268 -24 q 76 319 76 163 l 76 963 l 304 963 l 304 329 q 340 191 304 236 q 451 146 375 146 q 565 191 529 146 q 600 329 600 236 l 600 963 l 828 963 l 828 882 q 872 906 858 888 q 885 958 885 925 q 881 1006 885 986 q 867 1053 876 1026 l 1008 1074 m 451 -83 q 544 -119 508 -83 q 581 -208 581 -154 q 544 -298 581 -262 q 451 -333 508 -333 q 358 -298 394 -333 q 321 -208 321 -262 q 358 -119 321 -154 q 451 -83 394 -83 z "},"Ừ":{"ha":1007,"x_min":76,"x_max":1035,"o":"m 640 1154 l 585 1043 l 251 1164 l 333 1328 l 640 1154 m 1008 1074 q 1035 951 1035 1024 q 980 821 1035 865 q 828 775 925 776 l 828 319 q 785 143 828 221 q 658 21 743 65 q 451 -24 574 -24 q 172 69 268 -24 q 76 319 76 163 l 76 963 l 304 963 l 304 329 q 340 191 304 236 q 451 146 375 146 q 565 191 529 146 q 600 329 600 236 l 600 963 l 828 963 l 828 882 q 872 906 858 888 q 885 958 885 925 q 881 1006 885 986 q 867 1053 876 1026 l 1008 1074 z "},"Ử":{"ha":1007,"x_min":76,"x_max":1035,"o":"m 428 1281 q 344 1263 390 1281 l 308 1354 q 460 1390 372 1390 q 587 1351 542 1390 q 632 1249 632 1313 q 515 1119 632 1142 l 515 1061 l 385 1061 l 385 1185 q 460 1199 438 1188 q 483 1238 483 1211 q 469 1269 483 1258 q 428 1281 454 1281 m 1008 1074 q 1035 951 1035 1024 q 980 821 1035 865 q 828 775 925 776 l 828 319 q 785 143 828 221 q 658 21 743 65 q 451 -24 574 -24 q 172 69 268 -24 q 76 319 76 163 l 76 963 l 304 963 l 304 329 q 340 191 304 236 q 451 146 375 146 q 565 191 529 146 q 600 329 600 236 l 600 963 l 828 963 l 828 882 q 872 906 858 888 q 885 958 885 925 q 881 1006 885 986 q 867 1053 876 1026 l 1008 1074 z "},"Ữ":{"ha":1007,"x_min":76,"x_max":1035,"o":"m 374 1119 q 334 1105 350 1119 q 300 1058 318 1090 l 190 1111 q 265 1229 218 1183 q 369 1275 311 1275 q 424 1265 401 1275 q 475 1236 447 1254 q 506 1218 494 1224 q 531 1213 518 1213 q 569 1227 553 1213 q 603 1274 585 1242 l 713 1219 q 637 1101 683 1146 q 532 1057 590 1057 q 479 1067 501 1057 q 431 1094 457 1076 q 374 1119 396 1119 m 1008 1074 q 1035 951 1035 1024 q 980 821 1035 865 q 828 775 925 776 l 828 319 q 785 143 828 221 q 658 21 743 65 q 451 -24 574 -24 q 172 69 268 -24 q 76 319 76 163 l 76 963 l 304 963 l 304 329 q 340 191 304 236 q 451 146 375 146 q 565 191 529 146 q 600 329 600 236 l 600 963 l 828 963 l 828 882 q 872 906 858 888 q 885 958 885 925 q 881 1006 885 986 q 867 1053 876 1026 l 1008 1074 z "},"Ű":{"ha":904,"x_min":76,"x_max":828,"o":"m 828 319 q 785 143 828 221 q 658 21 743 65 q 451 -24 574 -24 q 172 69 268 -24 q 76 319 76 163 l 76 963 l 304 963 l 304 329 q 340 191 304 236 q 451 146 375 146 q 565 191 529 146 q 600 329 600 236 l 600 963 l 828 963 l 828 319 m 389 1369 l 539 1300 l 382 1050 l 267 1096 l 389 1369 m 633 1369 l 781 1296 l 613 1043 l 499 1096 l 633 1369 z "},"Ȗ":{"ha":904,"x_min":76,"x_max":828,"o":"m 828 319 q 785 143 828 221 q 658 21 743 65 q 451 -24 574 -24 q 172 69 268 -24 q 76 319 76 163 l 76 963 l 304 963 l 304 329 q 340 191 304 236 q 451 146 375 146 q 565 191 529 146 q 600 329 600 236 l 600 963 l 828 963 l 828 319 m 450 1322 q 619 1254 556 1322 q 690 1082 682 1186 l 569 1061 q 450 1169 540 1169 q 332 1061 358 1169 l 211 1082 q 282 1255 219 1188 q 450 1322 344 1322 z "},"Ū":{"ha":904,"x_min":76,"x_max":828,"o":"m 828 319 q 785 143 828 221 q 658 21 743 65 q 451 -24 574 -24 q 172 69 268 -24 q 76 319 76 163 l 76 963 l 304 963 l 304 329 q 340 191 304 236 q 451 146 375 146 q 565 191 529 146 q 600 329 600 236 l 600 963 l 828 963 l 828 319 m 663 1085 l 239 1085 l 239 1238 l 663 1238 l 663 1085 z "},"Ų":{"ha":904,"x_min":76,"x_max":828,"o":"m 828 963 l 828 319 q 771 119 828 204 q 606 -1 714 35 q 444 -142 444 -62 q 518 -206 444 -206 q 603 -194 551 -206 l 588 -331 q 490 -342 540 -342 q 343 -297 400 -342 q 286 -179 286 -253 q 403 -22 286 -78 q 160 83 243 -8 q 76 319 76 174 l 76 963 l 304 963 l 304 329 q 340 191 304 236 q 451 146 375 146 q 565 191 529 146 q 600 329 600 236 l 600 963 l 828 963 z "},"Ʊ":{"ha":960,"x_min":46,"x_max":914,"o":"m 479 -24 q 248 34 346 -24 q 98 192 150 92 q 46 419 46 292 q 94 647 46 556 q 229 800 142 738 l 76 800 l 76 963 l 403 963 l 403 808 q 313 653 340 739 q 285 419 285 567 q 333 213 285 283 q 479 143 382 143 q 625 213 575 143 q 675 419 675 283 q 646 650 675 564 q 557 808 617 736 l 557 963 l 885 963 l 885 800 l 731 800 q 866 650 818 742 q 914 419 914 558 q 861 193 914 294 q 710 34 808 92 q 479 -24 611 -24 z "},"Ů":{"ha":904,"x_min":76,"x_max":828,"o":"m 828 319 q 785 143 828 221 q 658 21 743 65 q 451 -24 574 -24 q 172 69 268 -24 q 76 319 76 163 l 76 963 l 304 963 l 304 329 q 340 191 304 236 q 451 146 375 146 q 565 191 529 146 q 600 329 600 236 l 600 963 l 828 963 l 828 319 m 451 1379 q 592 1326 539 1379 q 644 1197 644 1274 q 592 1068 644 1121 q 451 1015 539 1015 q 311 1068 364 1015 q 258 1197 258 1121 q 311 1326 258 1274 q 451 1379 364 1379 m 451 1267 q 406 1249 422 1267 q 389 1197 389 1231 q 406 1146 389 1164 q 451 1128 422 1128 q 497 1146 479 1128 q 514 1197 514 1164 q 497 1249 514 1231 q 451 1267 481 1267 z "},"Ũ":{"ha":904,"x_min":76,"x_max":828,"o":"m 828 319 q 785 143 828 221 q 658 21 743 65 q 451 -24 574 -24 q 172 69 268 -24 q 76 319 76 163 l 76 963 l 304 963 l 304 329 q 340 191 304 236 q 451 146 375 146 q 565 191 529 146 q 600 329 600 236 l 600 963 l 828 963 l 828 319 m 532 1057 q 479 1067 501 1057 q 431 1094 457 1076 q 374 1119 396 1119 q 334 1105 350 1119 q 300 1058 318 1090 l 190 1111 q 265 1229 218 1183 q 369 1275 311 1275 q 424 1265 401 1275 q 475 1236 447 1254 q 506 1218 494 1224 q 531 1213 518 1213 q 569 1227 553 1213 q 603 1274 585 1242 l 713 1219 q 637 1101 683 1146 q 532 1057 590 1057 z "},"Ṹ":{"ha":904,"x_min":76,"x_max":828,"o":"m 828 319 q 785 143 828 221 q 658 21 743 65 q 451 -24 574 -24 q 172 69 268 -24 q 76 319 76 163 l 76 963 l 304 963 l 304 329 q 340 191 304 236 q 451 146 375 146 q 565 191 529 146 q 600 329 600 236 l 600 963 l 828 963 l 828 319 m 532 1050 q 479 1060 501 1050 q 431 1088 457 1069 q 374 1113 396 1113 q 334 1098 350 1113 q 300 1051 318 1083 l 190 1104 q 265 1222 218 1176 q 369 1268 311 1268 q 424 1258 401 1268 q 475 1229 447 1247 q 506 1211 494 1217 q 531 1206 518 1206 q 569 1220 553 1206 q 603 1267 585 1235 l 713 1213 q 637 1094 683 1139 q 532 1050 590 1050 m 564 1574 l 646 1410 l 313 1289 l 257 1400 l 564 1574 z "},"V":{"ha":792,"x_min":-18,"x_max":811,"o":"m 811 963 l 543 0 l 260 0 l -18 963 l 222 963 l 406 178 l 578 963 l 811 963 z "},"Ʋ":{"ha":904,"x_min":76,"x_max":828,"o":"m 617 986 q 828 756 828 986 l 828 406 q 778 176 828 272 q 636 28 728 79 q 424 -24 544 -24 q 238 17 317 -24 q 118 131 160 58 q 76 297 76 204 l 76 963 l 304 963 l 304 299 q 336 186 304 226 q 429 146 368 146 q 555 208 510 146 q 600 403 600 271 l 600 767 q 590 808 600 796 q 557 821 581 821 q 519 814 538 821 l 483 963 q 617 986 542 986 z "},"Ʌ":{"ha":819,"x_min":-18,"x_max":839,"o":"m 549 963 l 839 0 l 597 0 l 408 797 l 218 0 l -18 0 l 272 963 l 549 963 z "},"W":{"ha":1176,"x_min":13,"x_max":1163,"o":"m 1163 963 l 1001 0 l 706 0 l 586 735 l 460 0 l 171 0 l 13 963 l 240 963 l 336 172 l 469 963 l 708 963 l 833 172 l 946 963 l 1163 963 z "},"Ẃ":{"ha":1176,"x_min":13,"x_max":1163,"o":"m 1163 963 l 1001 0 l 706 0 l 586 735 l 460 0 l 171 0 l 13 963 l 240 963 l 336 172 l 469 963 l 708 963 l 833 172 l 946 963 l 1163 963 m 703 1328 l 785 1164 l 451 1043 l 396 1154 l 703 1328 z "},"Ŵ":{"ha":1176,"x_min":13,"x_max":1163,"o":"m 1163 963 l 1001 0 l 706 0 l 586 735 l 460 0 l 171 0 l 13 963 l 240 963 l 336 172 l 469 963 l 708 963 l 833 172 l 946 963 l 1163 963 m 406 1049 l 326 1139 l 524 1318 l 657 1318 l 853 1139 l 775 1049 l 590 1165 l 406 1049 z "},"Ẅ":{"ha":1176,"x_min":13,"x_max":1163,"o":"m 1163 963 l 1001 0 l 706 0 l 586 735 l 460 0 l 171 0 l 13 963 l 240 963 l 336 172 l 469 963 l 708 963 l 833 172 l 946 963 l 1163 963 m 428 1285 q 508 1253 475 1285 q 540 1175 540 1221 q 508 1097 540 1129 q 428 1065 475 1065 q 348 1097 381 1065 q 315 1175 315 1129 q 348 1253 315 1221 q 428 1285 381 1285 m 749 1285 q 829 1253 797 1285 q 861 1175 861 1221 q 829 1097 861 1129 q 749 1065 797 1065 q 670 1097 703 1065 q 638 1175 638 1129 q 670 1253 638 1221 q 749 1285 703 1285 z "},"Ẁ":{"ha":1176,"x_min":13,"x_max":1163,"o":"m 1163 963 l 1001 0 l 706 0 l 586 735 l 460 0 l 171 0 l 13 963 l 240 963 l 336 172 l 469 963 l 708 963 l 833 172 l 946 963 l 1163 963 m 472 1328 l 779 1154 l 724 1043 l 390 1164 l 472 1328 z "},"Ⱳ":{"ha":1263,"x_min":13,"x_max":1317,"o":"m 171 0 l 460 0 l 586 735 l 706 0 l 996 0 l 1106 746 q 1128 808 1111 789 q 1179 826 1146 826 q 1218 821 1203 826 q 1253 804 1233 815 l 1317 933 q 1240 973 1281 960 q 1146 986 1200 986 q 983 931 1043 986 q 908 747 922 875 l 833 172 l 708 963 l 469 963 l 336 172 l 240 963 l 13 963 l 171 0 z "},"Ƿ":{"ha":833,"x_min":90,"x_max":803,"o":"m 538 986 q 671 953 610 986 q 767 860 732 921 q 803 718 803 799 q 754 535 803 610 q 624 413 706 461 q 422 319 543 364 l 318 281 l 318 0 l 90 0 l 90 963 l 318 963 l 318 903 q 538 986 401 986 m 375 464 q 520 566 472 507 q 568 706 568 625 q 539 792 568 763 q 457 822 510 822 q 318 768 379 822 l 318 440 l 375 464 z "},"X":{"ha":807,"x_min":-6,"x_max":813,"o":"m 535 519 l 813 0 l 564 0 l 399 367 l 236 0 l -6 0 l 264 511 l 15 963 l 263 963 l 401 654 l 547 963 l 789 963 l 535 519 z "},"Y":{"ha":825,"x_min":-10,"x_max":835,"o":"m 835 963 l 526 361 l 526 0 l 299 0 l 299 360 l -10 963 l 239 963 l 417 539 l 594 963 l 835 963 z "},"Ý":{"ha":825,"x_min":-10,"x_max":835,"o":"m 835 963 l 526 361 l 526 0 l 299 0 l 299 360 l -10 963 l 239 963 l 417 539 l 594 963 l 835 963 m 525 1328 l 607 1164 l 274 1043 l 218 1154 l 525 1328 z "},"Ŷ":{"ha":825,"x_min":-10,"x_max":835,"o":"m 835 963 l 526 361 l 526 0 l 299 0 l 299 360 l -10 963 l 239 963 l 417 539 l 594 963 l 835 963 m 228 1049 l 149 1139 l 346 1318 l 479 1318 l 675 1139 l 597 1049 l 413 1165 l 228 1049 z "},"Ÿ":{"ha":825,"x_min":-10,"x_max":835,"o":"m 835 963 l 526 361 l 526 0 l 299 0 l 299 360 l -10 963 l 239 963 l 417 539 l 594 963 l 835 963 m 250 1285 q 330 1253 297 1285 q 363 1175 363 1221 q 330 1097 363 1129 q 250 1065 297 1065 q 170 1097 203 1065 q 138 1175 138 1129 q 170 1253 138 1221 q 250 1285 203 1285 m 571 1285 q 651 1253 619 1285 q 683 1175 683 1221 q 651 1097 683 1129 q 571 1065 619 1065 q 492 1097 525 1065 q 460 1175 460 1129 q 492 1253 460 1221 q 571 1285 525 1285 z "},"Ỵ":{"ha":825,"x_min":-10,"x_max":835,"o":"m 835 963 l 526 361 l 526 0 l 299 0 l 299 360 l -10 963 l 239 963 l 417 539 l 594 963 l 835 963 m 413 -333 q 319 -298 356 -333 q 282 -208 282 -262 q 319 -119 282 -154 q 413 -83 356 -83 q 506 -119 469 -83 q 542 -208 542 -154 q 506 -298 542 -262 q 413 -333 469 -333 z "},"Ỳ":{"ha":825,"x_min":-10,"x_max":835,"o":"m 835 963 l 526 361 l 526 0 l 299 0 l 299 360 l -10 963 l 239 963 l 417 539 l 594 963 l 835 963 m 294 1328 l 601 1154 l 546 1043 l 213 1164 l 294 1328 z "},"Ƴ":{"ha":879,"x_min":-10,"x_max":933,"o":"m 299 360 l -10 963 l 239 963 l 417 539 l 514 786 q 612 940 554 894 q 767 986 669 986 q 933 935 858 986 l 871 804 q 796 826 832 826 q 744 810 764 826 q 704 750 724 793 l 526 361 l 526 0 l 299 0 l 299 360 z "},"Ỷ":{"ha":825,"x_min":-10,"x_max":835,"o":"m 835 963 l 526 361 l 526 0 l 299 0 l 299 360 l -10 963 l 239 963 l 417 539 l 594 963 l 835 963 m 346 1185 q 422 1199 399 1188 q 444 1238 444 1211 q 430 1269 444 1258 q 389 1281 415 1281 q 306 1263 351 1281 l 269 1354 q 421 1390 332 1390 q 548 1351 503 1390 q 593 1249 593 1313 q 476 1119 593 1142 l 476 1061 l 346 1061 l 346 1185 z "},"Ȳ":{"ha":825,"x_min":-10,"x_max":835,"o":"m 835 963 l 526 361 l 526 0 l 299 0 l 299 360 l -10 963 l 239 963 l 417 539 l 594 963 l 835 963 m 624 1085 l 200 1085 l 200 1238 l 624 1238 l 624 1085 z "},"Ʀ":{"ha":857,"x_min":90,"x_max":861,"o":"m 407 208 l 318 208 l 318 0 l 90 0 l 90 963 l 318 963 l 318 804 l 406 804 q 702 732 603 804 q 801 511 801 660 q 757 356 801 417 q 617 250 713 294 l 861 -160 l 604 -160 l 407 208 m 318 367 l 414 367 q 528 401 490 367 q 567 511 567 436 q 526 611 567 579 q 400 643 485 643 l 318 643 l 318 367 z "},"Ɏ":{"ha":825,"x_min":-10,"x_max":836,"o":"m 836 963 l 781 854 l 836 854 l 836 726 l 715 726 l 528 361 l 528 0 l 299 0 l 299 360 l 111 726 l -8 726 l -8 854 l 46 854 l -10 963 l 232 963 l 278 854 l 558 854 l 604 963 l 836 963 m 417 521 l 504 726 l 331 726 l 417 521 z "},"Ỹ":{"ha":825,"x_min":-10,"x_max":835,"o":"m 835 963 l 526 361 l 526 0 l 299 0 l 299 360 l -10 963 l 239 963 l 417 539 l 594 963 l 835 963 m 493 1057 q 440 1067 463 1057 q 392 1094 418 1076 q 335 1119 357 1119 q 295 1105 311 1119 q 261 1058 279 1090 l 151 1111 q 226 1229 179 1183 q 331 1275 272 1275 q 385 1265 363 1275 q 436 1236 408 1254 q 467 1218 456 1224 q 492 1213 479 1213 q 530 1227 514 1213 q 564 1274 546 1242 l 674 1219 q 598 1101 644 1146 q 493 1057 551 1057 z "},"Z":{"ha":756,"x_min":25,"x_max":718,"o":"m 711 963 l 711 790 l 293 182 l 718 182 l 696 0 l 25 0 l 25 171 l 451 786 l 68 786 l 68 963 l 711 963 z "},"Ź":{"ha":756,"x_min":25,"x_max":718,"o":"m 711 963 l 711 790 l 293 182 l 718 182 l 696 0 l 25 0 l 25 171 l 451 786 l 68 786 l 68 963 l 711 963 m 496 1328 l 578 1164 l 244 1043 l 189 1154 l 496 1328 z "},"Ž":{"ha":756,"x_min":25,"x_max":718,"o":"m 711 963 l 711 790 l 293 182 l 718 182 l 696 0 l 25 0 l 25 171 l 451 786 l 68 786 l 68 963 l 711 963 m 568 1311 l 646 1221 l 450 1042 l 317 1042 l 119 1221 l 199 1311 l 383 1194 l 568 1311 z "},"Ż":{"ha":756,"x_min":25,"x_max":718,"o":"m 711 963 l 711 790 l 293 182 l 718 182 l 696 0 l 25 0 l 25 171 l 451 786 l 68 786 l 68 963 l 711 963 m 382 1301 q 476 1266 439 1301 q 513 1176 513 1231 q 476 1087 513 1122 q 382 1051 439 1051 q 289 1087 325 1051 q 253 1176 253 1122 q 289 1266 253 1231 q 382 1301 325 1301 z "},"Ẓ":{"ha":756,"x_min":25,"x_max":718,"o":"m 711 963 l 711 790 l 293 182 l 718 182 l 696 0 l 25 0 l 25 171 l 451 786 l 68 786 l 68 963 l 711 963 m 367 -333 q 273 -298 310 -333 q 236 -208 236 -262 q 273 -119 236 -154 q 367 -83 310 -83 q 460 -119 424 -83 q 496 -208 496 -154 q 460 -298 496 -262 q 367 -333 424 -333 z "},"Ȥ":{"ha":747,"x_min":25,"x_max":711,"o":"m 711 790 l 293 182 l 708 182 l 708 -43 q 633 -241 708 -174 q 429 -308 558 -308 q 233 -249 311 -308 l 307 -114 q 358 -137 339 -131 q 410 -143 378 -143 q 490 -58 490 -143 l 490 0 l 25 0 l 25 171 l 451 786 l 68 786 l 68 963 l 711 963 l 711 790 z "},"Ƶ":{"ha":756,"x_min":25,"x_max":718,"o":"m 274 182 l 718 182 l 696 0 l 25 0 l 25 161 l 203 410 l 90 410 l 90 554 l 306 554 l 471 786 l 68 786 l 68 963 l 711 963 l 711 799 l 538 554 l 649 554 l 649 410 l 435 410 l 274 182 z "},"ʙ":{"ha":774,"x_min":86,"x_max":728,"o":"m 540 406 q 728 224 728 383 q 640 56 728 111 q 399 0 551 0 l 86 0 l 86 731 q 378 761 251 761 q 612 710 528 761 q 696 561 696 660 q 656 459 696 499 q 540 406 617 419 m 374 621 q 306 618 331 621 l 306 449 l 383 449 q 454 470 429 449 q 479 536 479 492 q 374 621 479 621 m 392 144 q 503 243 503 144 q 476 311 503 289 q 393 333 450 333 l 306 333 l 306 144 l 392 144 z "},"ɢ":{"ha":778,"x_min":44,"x_max":719,"o":"m 425 761 q 586 735 518 761 q 713 661 654 710 l 607 546 q 525 591 564 576 q 439 606 486 606 q 315 545 360 606 q 271 372 271 485 q 306 188 271 242 q 413 135 342 135 q 514 154 471 135 l 514 288 l 419 288 l 399 432 l 719 432 l 719 67 q 576 3 656 28 q 410 -21 497 -21 q 44 372 44 -21 q 94 578 44 490 q 231 714 144 667 q 425 761 317 761 z "},"ʛ":{"ha":778,"x_min":44,"x_max":942,"o":"m 754 1054 q 942 1001 860 1054 l 878 865 q 831 885 851 879 q 785 892 810 892 q 731 872 749 892 q 713 807 713 851 l 713 661 l 618 557 q 531 594 569 582 q 442 606 492 606 q 315 546 360 606 q 271 372 271 486 q 306 188 271 242 q 413 135 342 135 q 514 154 471 135 l 514 288 l 419 288 l 399 432 l 719 432 l 719 67 q 581 3 660 26 q 413 -21 503 -21 q 44 372 44 -21 q 93 578 44 489 q 224 714 142 667 q 406 761 307 761 q 519 743 471 761 l 519 817 q 578 992 519 931 q 754 1054 638 1054 z "},"ʜ":{"ha":814,"x_min":86,"x_max":728,"o":"m 508 0 l 508 293 l 306 293 l 306 0 l 86 0 l 86 738 l 306 738 l 306 456 l 508 456 l 508 738 l 728 738 l 728 0 l 508 0 z "},"ɪ":{"ha":468,"x_min":22,"x_max":447,"o":"m 447 581 l 343 581 l 343 158 l 447 158 l 447 0 l 22 0 l 22 158 l 124 158 l 124 581 l 22 581 l 22 738 l 447 738 l 447 581 z "},"ʟ":{"ha":625,"x_min":86,"x_max":614,"o":"m 306 738 l 306 169 l 614 169 l 590 0 l 86 0 l 86 738 l 306 738 z "},"ɴ":{"ha":817,"x_min":86,"x_max":731,"o":"m 731 0 l 467 0 l 247 547 q 272 381 263 456 q 281 208 281 306 l 281 0 l 86 0 l 86 738 l 347 738 l 568 190 q 543 347 550 290 q 536 494 536 404 l 536 738 l 731 738 l 731 0 z "},"ɶ":{"ha":1067,"x_min":44,"x_max":1035,"o":"m 754 300 q 688 153 738 214 l 1032 153 l 1032 0 l 539 0 q 406 -24 475 -24 q 141 80 238 -24 q 44 369 44 183 q 88 576 44 488 q 213 713 132 664 q 406 761 294 761 q 544 738 478 761 l 1035 738 l 1013 586 l 690 586 q 751 447 733 528 l 978 447 l 978 300 l 754 300 m 406 138 q 539 369 539 138 q 406 600 539 600 q 306 544 339 600 q 272 369 272 488 q 305 193 272 249 q 406 138 338 138 z "},"ʀ":{"ha":736,"x_min":86,"x_max":731,"o":"m 357 254 l 297 254 l 297 0 l 86 0 l 86 738 l 351 738 q 593 677 510 738 q 676 494 676 617 q 644 370 676 425 q 550 286 613 315 l 731 0 l 500 0 l 357 254 m 297 388 l 354 388 q 436 412 410 388 q 463 496 463 436 q 434 574 463 551 q 346 597 406 597 l 297 597 l 297 388 z "},"ʁ":{"ha":736,"x_min":86,"x_max":731,"o":"m 551 453 q 645 372 614 424 q 676 249 676 319 q 593 61 676 122 q 351 0 510 0 l 86 0 l 86 738 l 297 738 l 297 483 l 357 483 l 500 738 l 731 738 l 551 453 m 346 142 q 434 165 406 142 q 463 247 463 188 q 435 327 463 303 q 354 351 408 351 l 297 351 l 297 142 l 346 142 z "},"ʏ":{"ha":692,"x_min":-17,"x_max":708,"o":"m 708 738 l 456 267 l 456 0 l 236 0 l 236 265 l -17 738 l 217 738 l 350 407 l 482 738 l 708 738 z "},"a":{"ha":761,"x_min":36,"x_max":722,"o":"m 672 214 q 684 153 672 172 q 722 124 696 133 l 676 -19 q 565 10 608 -14 q 499 88 522 35 q 276 -24 426 -24 q 101 40 167 -24 q 36 207 36 104 q 125 392 36 328 q 382 456 214 456 l 457 456 l 457 488 q 429 577 457 553 q 332 601 401 601 q 244 591 296 601 q 139 563 193 581 l 89 707 q 231 747 158 733 q 367 761 304 761 q 599 696 525 761 q 672 500 672 631 l 672 214 m 340 133 q 457 204 415 133 l 457 335 l 403 335 q 291 308 328 335 q 254 226 254 282 q 277 158 254 182 q 340 133 300 133 z "},"á":{"ha":761,"x_min":36,"x_max":722,"o":"m 672 214 q 684 153 672 172 q 722 124 696 133 l 676 -19 q 565 10 608 -14 q 499 88 522 35 q 276 -24 426 -24 q 101 40 167 -24 q 36 207 36 104 q 125 392 36 328 q 382 456 214 456 l 457 456 l 457 488 q 429 577 457 553 q 332 601 401 601 q 244 591 296 601 q 139 563 193 581 l 89 707 q 231 747 158 733 q 367 761 304 761 q 599 696 525 761 q 672 500 672 631 l 672 214 m 340 133 q 457 204 415 133 l 457 335 l 403 335 q 291 308 328 335 q 254 226 254 282 q 277 158 254 182 q 340 133 300 133 m 476 1160 l 563 996 l 235 864 l 174 976 l 476 1160 z "},"ă":{"ha":761,"x_min":36,"x_max":722,"o":"m 672 214 q 684 153 672 172 q 722 124 696 133 l 676 -19 q 565 10 608 -14 q 499 88 522 35 q 276 -24 426 -24 q 101 40 167 -24 q 36 207 36 104 q 125 392 36 328 q 382 456 214 456 l 457 456 l 457 488 q 429 577 457 553 q 332 601 401 601 q 244 591 296 601 q 139 563 193 581 l 89 707 q 231 747 158 733 q 367 761 304 761 q 599 696 525 761 q 672 500 672 631 l 672 214 m 340 133 q 457 204 415 133 l 457 335 l 403 335 q 291 308 328 335 q 254 226 254 282 q 277 158 254 182 q 340 133 300 133 m 375 878 q 207 945 269 878 q 136 1118 144 1013 l 257 1139 q 375 1031 283 1031 q 494 1139 465 1031 l 615 1118 q 544 946 607 1014 q 375 878 481 878 z "},"ắ":{"ha":761,"x_min":36,"x_max":722,"o":"m 672 214 q 684 153 672 172 q 722 124 696 133 l 676 -19 q 565 10 608 -14 q 499 88 522 35 q 276 -24 426 -24 q 101 40 167 -24 q 36 207 36 104 q 125 392 36 328 q 382 456 214 456 l 457 456 l 457 488 q 429 577 457 553 q 332 601 401 601 q 244 591 296 601 q 139 563 193 581 l 89 707 q 231 747 158 733 q 367 761 304 761 q 599 696 525 761 q 672 500 672 631 l 672 214 m 340 133 q 457 204 415 133 l 457 335 l 403 335 q 291 308 328 335 q 254 226 254 282 q 277 158 254 182 q 340 133 300 133 m 376 836 q 209 901 272 836 q 138 1061 146 967 l 258 1082 q 301 1013 272 1039 q 376 988 331 988 q 451 1013 422 988 q 496 1082 481 1039 l 617 1061 q 544 901 608 967 q 376 836 481 836 m 479 1374 l 599 1257 l 379 1061 l 296 1136 l 479 1374 z "},"ặ":{"ha":761,"x_min":36,"x_max":722,"o":"m 672 214 q 684 153 672 172 q 722 124 696 133 l 676 -19 q 565 10 608 -14 q 499 88 522 35 q 276 -24 426 -24 q 101 40 167 -24 q 36 207 36 104 q 125 392 36 328 q 382 456 214 456 l 457 456 l 457 488 q 429 577 457 553 q 332 601 401 601 q 244 591 296 601 q 139 563 193 581 l 89 707 q 231 747 158 733 q 367 761 304 761 q 599 696 525 761 q 672 500 672 631 l 672 214 m 340 133 q 457 204 415 133 l 457 335 l 403 335 q 291 308 328 335 q 254 226 254 282 q 277 158 254 182 q 340 133 300 133 m 375 878 q 207 945 269 878 q 136 1118 144 1013 l 257 1139 q 375 1031 283 1031 q 494 1139 465 1031 l 615 1118 q 544 946 607 1014 q 375 878 481 878 m 376 -333 q 283 -298 319 -333 q 246 -208 246 -262 q 283 -119 246 -154 q 376 -83 319 -83 q 469 -119 433 -83 q 506 -208 506 -154 q 469 -298 506 -262 q 376 -333 433 -333 z "},"ằ":{"ha":761,"x_min":36,"x_max":722,"o":"m 672 214 q 684 153 672 172 q 722 124 696 133 l 676 -19 q 565 10 608 -14 q 499 88 522 35 q 276 -24 426 -24 q 101 40 167 -24 q 36 207 36 104 q 125 392 36 328 q 382 456 214 456 l 457 456 l 457 488 q 429 577 457 553 q 332 601 401 601 q 244 591 296 601 q 139 563 193 581 l 89 707 q 231 747 158 733 q 367 761 304 761 q 599 696 525 761 q 672 500 672 631 l 672 214 m 340 133 q 457 204 415 133 l 457 335 l 403 335 q 291 308 328 335 q 254 226 254 282 q 277 158 254 182 q 340 133 300 133 m 376 836 q 209 901 272 836 q 138 1061 146 967 l 258 1082 q 301 1013 272 1039 q 376 988 331 988 q 451 1013 422 988 q 496 1082 481 1039 l 617 1061 q 544 901 608 967 q 376 836 481 836 m 272 1374 l 454 1136 l 372 1061 l 153 1257 l 272 1374 z "},"ẳ":{"ha":761,"x_min":36,"x_max":722,"o":"m 672 214 q 684 153 672 172 q 722 124 696 133 l 676 -19 q 565 10 608 -14 q 499 88 522 35 q 276 -24 426 -24 q 101 40 167 -24 q 36 207 36 104 q 125 392 36 328 q 382 456 214 456 l 457 456 l 457 488 q 429 577 457 553 q 332 601 401 601 q 244 591 296 601 q 139 563 193 581 l 89 707 q 231 747 158 733 q 367 761 304 761 q 599 696 525 761 q 672 500 672 631 l 672 214 m 340 133 q 457 204 415 133 l 457 335 l 403 335 q 291 308 328 335 q 254 226 254 282 q 277 158 254 182 q 340 133 300 133 m 376 836 q 209 901 272 836 q 138 1061 146 967 l 258 1082 q 301 1013 272 1039 q 376 988 331 988 q 451 1013 422 988 q 496 1082 481 1039 l 617 1061 q 544 901 608 967 q 376 836 481 836 m 311 1200 q 387 1215 364 1203 q 410 1253 410 1226 q 395 1285 410 1274 q 354 1296 381 1296 q 271 1278 317 1296 l 235 1369 q 386 1406 297 1406 q 513 1367 468 1406 q 558 1265 558 1329 q 528 1178 558 1211 q 442 1135 499 1146 l 442 1063 l 311 1063 l 311 1200 z "},"ẵ":{"ha":761,"x_min":36,"x_max":722,"o":"m 672 214 q 684 153 672 172 q 722 124 696 133 l 676 -19 q 565 10 608 -14 q 499 88 522 35 q 276 -24 426 -24 q 101 40 167 -24 q 36 207 36 104 q 125 392 36 328 q 382 456 214 456 l 457 456 l 457 488 q 429 577 457 553 q 332 601 401 601 q 244 591 296 601 q 139 563 193 581 l 89 707 q 231 747 158 733 q 367 761 304 761 q 599 696 525 761 q 672 500 672 631 l 672 214 m 340 133 q 457 204 415 133 l 457 335 l 403 335 q 291 308 328 335 q 254 226 254 282 q 277 158 254 182 q 340 133 300 133 m 376 836 q 209 901 272 836 q 138 1061 146 967 l 258 1082 q 301 1013 272 1039 q 376 988 331 988 q 451 1013 422 988 q 496 1082 481 1039 l 617 1061 q 544 901 608 967 q 376 836 481 836 m 458 1118 q 405 1128 428 1118 q 357 1154 382 1138 q 326 1172 339 1167 q 300 1178 313 1178 q 260 1164 276 1178 q 226 1119 244 1150 l 117 1169 q 191 1281 144 1238 q 296 1324 238 1324 q 351 1315 328 1324 q 401 1288 374 1306 q 433 1269 421 1275 q 457 1264 444 1264 q 495 1278 479 1264 q 529 1322 511 1292 l 639 1271 q 563 1160 610 1201 q 458 1118 517 1118 z "},"ǎ":{"ha":761,"x_min":36,"x_max":722,"o":"m 672 214 q 684 153 672 172 q 722 124 696 133 l 676 -19 q 565 10 608 -14 q 499 88 522 35 q 276 -24 426 -24 q 101 40 167 -24 q 36 207 36 104 q 125 392 36 328 q 382 456 214 456 l 457 456 l 457 488 q 429 577 457 553 q 332 601 401 601 q 244 591 296 601 q 139 563 193 581 l 89 707 q 231 747 158 733 q 367 761 304 761 q 599 696 525 761 q 672 500 672 631 l 672 214 m 340 133 q 457 204 415 133 l 457 335 l 403 335 q 291 308 328 335 q 254 226 254 282 q 277 158 254 182 q 340 133 300 133 m 561 1129 l 639 1039 l 443 849 l 310 849 l 113 1039 l 192 1129 l 376 1003 l 561 1129 z "},"â":{"ha":761,"x_min":36,"x_max":722,"o":"m 672 214 q 684 153 672 172 q 722 124 696 133 l 676 -19 q 565 10 608 -14 q 499 88 522 35 q 276 -24 426 -24 q 101 40 167 -24 q 36 207 36 104 q 125 392 36 328 q 382 456 214 456 l 457 456 l 457 488 q 429 577 457 553 q 332 601 401 601 q 244 591 296 601 q 139 563 193 581 l 89 707 q 231 747 158 733 q 367 761 304 761 q 599 696 525 761 q 672 500 672 631 l 672 214 m 340 133 q 457 204 415 133 l 457 335 l 403 335 q 291 308 328 335 q 254 226 254 282 q 277 158 254 182 q 340 133 300 133 m 190 861 l 113 951 l 308 1142 l 443 1142 l 639 951 l 561 861 l 376 989 l 190 861 z "},"ấ":{"ha":761,"x_min":36,"x_max":819,"o":"m 672 214 q 684 153 672 172 q 722 124 696 133 l 676 -19 q 565 10 608 -14 q 499 88 522 35 q 276 -24 426 -24 q 101 40 167 -24 q 36 207 36 104 q 125 392 36 328 q 382 456 214 456 l 457 456 l 457 488 q 429 577 457 553 q 332 601 401 601 q 244 591 296 601 q 139 563 193 581 l 89 707 q 231 747 158 733 q 367 761 304 761 q 599 696 525 761 q 672 500 672 631 l 672 214 m 340 133 q 457 204 415 133 l 457 335 l 403 335 q 291 308 328 335 q 254 226 254 282 q 277 158 254 182 q 340 133 300 133 m 189 813 l 110 903 l 307 1082 l 440 1082 l 636 903 l 558 813 l 374 929 l 189 813 m 700 1331 l 819 1214 l 600 1018 l 517 1093 l 700 1331 z "},"ậ":{"ha":761,"x_min":36,"x_max":722,"o":"m 672 214 q 684 153 672 172 q 722 124 696 133 l 676 -19 q 565 10 608 -14 q 499 88 522 35 q 276 -24 426 -24 q 101 40 167 -24 q 36 207 36 104 q 125 392 36 328 q 382 456 214 456 l 457 456 l 457 488 q 429 577 457 553 q 332 601 401 601 q 244 591 296 601 q 139 563 193 581 l 89 707 q 231 747 158 733 q 367 761 304 761 q 599 696 525 761 q 672 500 672 631 l 672 214 m 340 133 q 457 204 415 133 l 457 335 l 403 335 q 291 308 328 335 q 254 226 254 282 q 277 158 254 182 q 340 133 300 133 m 190 861 l 113 951 l 308 1142 l 443 1142 l 639 951 l 561 861 l 376 989 l 190 861 m 376 -333 q 283 -298 319 -333 q 246 -208 246 -262 q 283 -119 246 -154 q 376 -83 319 -83 q 469 -119 433 -83 q 506 -208 506 -154 q 469 -298 506 -262 q 376 -333 433 -333 z "},"ầ":{"ha":761,"x_min":-69,"x_max":722,"o":"m 672 214 q 684 153 672 172 q 722 124 696 133 l 676 -19 q 565 10 608 -14 q 499 88 522 35 q 276 -24 426 -24 q 101 40 167 -24 q 36 207 36 104 q 125 392 36 328 q 382 456 214 456 l 457 456 l 457 488 q 429 577 457 553 q 332 601 401 601 q 244 591 296 601 q 139 563 193 581 l 89 707 q 231 747 158 733 q 367 761 304 761 q 599 696 525 761 q 672 500 672 631 l 672 214 m 340 133 q 457 204 415 133 l 457 335 l 403 335 q 291 308 328 335 q 254 226 254 282 q 277 158 254 182 q 340 133 300 133 m 189 813 l 110 903 l 307 1082 l 440 1082 l 636 903 l 558 813 l 374 929 l 189 813 m 50 1331 l 232 1093 l 150 1018 l -69 1214 l 50 1331 z "},"ẩ":{"ha":761,"x_min":36,"x_max":767,"o":"m 672 214 q 684 153 672 172 q 722 124 696 133 l 676 -19 q 565 10 608 -14 q 499 88 522 35 q 276 -24 426 -24 q 101 40 167 -24 q 36 207 36 104 q 125 392 36 328 q 382 456 214 456 l 457 456 l 457 488 q 429 577 457 553 q 332 601 401 601 q 244 591 296 601 q 139 563 193 581 l 89 707 q 231 747 158 733 q 367 761 304 761 q 599 696 525 761 q 672 500 672 631 l 672 214 m 340 133 q 457 204 415 133 l 457 335 l 403 335 q 291 308 328 335 q 254 226 254 282 q 277 158 254 182 q 340 133 300 133 m 189 813 l 110 903 l 307 1082 l 440 1082 l 636 903 l 558 813 l 374 929 l 189 813 m 519 1185 q 595 1199 572 1188 q 618 1238 618 1211 q 603 1269 618 1258 q 563 1281 589 1281 q 479 1263 525 1281 l 443 1354 q 594 1390 506 1390 q 722 1352 676 1390 q 767 1250 767 1314 q 737 1163 767 1196 q 650 1119 707 1131 l 650 1047 l 519 1047 l 519 1185 z "},"ẫ":{"ha":761,"x_min":36,"x_max":722,"o":"m 672 214 q 684 153 672 172 q 722 124 696 133 l 676 -19 q 565 10 608 -14 q 499 88 522 35 q 276 -24 426 -24 q 101 40 167 -24 q 36 207 36 104 q 125 392 36 328 q 382 456 214 456 l 457 456 l 457 488 q 429 577 457 553 q 332 601 401 601 q 244 591 296 601 q 139 563 193 581 l 89 707 q 231 747 158 733 q 367 761 304 761 q 599 696 525 761 q 672 500 672 631 l 672 214 m 340 133 q 457 204 415 133 l 457 335 l 403 335 q 291 308 328 335 q 254 226 254 282 q 277 158 254 182 q 340 133 300 133 m 189 807 l 110 897 l 307 1076 l 440 1076 l 636 897 l 558 807 l 374 924 l 189 807 m 453 1113 q 399 1122 422 1113 q 351 1149 376 1132 q 320 1167 333 1161 q 294 1172 307 1172 q 255 1158 271 1172 q 221 1114 239 1144 l 111 1164 q 185 1275 139 1232 q 290 1318 232 1318 q 345 1309 322 1318 q 396 1282 368 1300 q 427 1264 415 1269 q 451 1258 439 1258 q 490 1272 474 1258 q 524 1317 506 1286 l 633 1265 q 558 1154 604 1196 q 453 1113 511 1113 z "},"ȁ":{"ha":761,"x_min":36,"x_max":722,"o":"m 672 214 q 684 153 672 172 q 722 124 696 133 l 676 -19 q 565 10 608 -14 q 499 88 522 35 q 276 -24 426 -24 q 101 40 167 -24 q 36 207 36 104 q 125 392 36 328 q 382 456 214 456 l 457 456 l 457 488 q 429 577 457 553 q 332 601 401 601 q 244 591 296 601 q 139 563 193 581 l 89 707 q 231 747 158 733 q 367 761 304 761 q 599 696 525 761 q 672 500 672 631 l 672 214 m 340 133 q 457 204 415 133 l 457 335 l 403 335 q 291 308 328 335 q 254 226 254 282 q 277 158 254 182 q 340 133 300 133 m 211 1194 l 346 921 l 233 868 l 64 1121 l 211 1194 m 456 1194 l 578 921 l 463 875 l 306 1125 l 456 1194 z "},"ä":{"ha":761,"x_min":36,"x_max":722,"o":"m 672 214 q 684 153 672 172 q 722 124 696 133 l 676 -19 q 565 10 608 -14 q 499 88 522 35 q 276 -24 426 -24 q 101 40 167 -24 q 36 207 36 104 q 125 392 36 328 q 382 456 214 456 l 457 456 l 457 488 q 429 577 457 553 q 332 601 401 601 q 244 591 296 601 q 139 563 193 581 l 89 707 q 231 747 158 733 q 367 761 304 761 q 599 696 525 761 q 672 500 672 631 l 672 214 m 340 133 q 457 204 415 133 l 457 335 l 403 335 q 291 308 328 335 q 254 226 254 282 q 277 158 254 182 q 340 133 300 133 m 215 1110 q 295 1078 263 1110 q 328 1000 328 1046 q 295 922 328 954 q 215 890 263 890 q 135 922 168 890 q 103 1000 103 954 q 135 1078 103 1046 q 215 1110 168 1110 m 536 1110 q 617 1078 585 1110 q 649 1000 649 1046 q 617 922 649 954 q 536 890 585 890 q 458 922 490 890 q 425 1000 425 954 q 458 1078 425 1046 q 536 1110 490 1110 z "},"ǟ":{"ha":761,"x_min":36,"x_max":722,"o":"m 672 214 q 684 153 672 172 q 722 124 696 133 l 676 -19 q 565 10 608 -14 q 499 88 522 35 q 276 -24 426 -24 q 101 40 167 -24 q 36 207 36 104 q 125 392 36 328 q 382 456 214 456 l 457 456 l 457 488 q 429 577 457 553 q 332 601 401 601 q 244 591 296 601 q 139 563 193 581 l 89 707 q 231 747 158 733 q 367 761 304 761 q 599 696 525 761 q 672 500 672 631 l 672 214 m 340 133 q 457 204 415 133 l 457 335 l 403 335 q 291 308 328 335 q 254 226 254 282 q 277 158 254 182 q 340 133 300 133 m 214 1056 q 294 1024 261 1056 q 326 946 326 992 q 294 868 326 900 q 214 836 261 836 q 134 868 167 836 q 101 946 101 900 q 134 1024 101 992 q 214 1056 167 1056 m 535 1056 q 615 1024 583 1056 q 647 946 647 992 q 615 868 647 900 q 535 836 583 836 q 456 868 489 836 q 424 946 424 900 q 456 1024 424 992 q 535 1056 489 1056 m 586 1113 l 163 1113 l 163 1265 l 586 1265 l 586 1113 z "},"ȧ":{"ha":761,"x_min":36,"x_max":722,"o":"m 672 214 q 684 153 672 172 q 722 124 696 133 l 676 -19 q 565 10 608 -14 q 499 88 522 35 q 276 -24 426 -24 q 101 40 167 -24 q 36 207 36 104 q 125 392 36 328 q 382 456 214 456 l 457 456 l 457 488 q 429 577 457 553 q 332 601 401 601 q 244 591 296 601 q 139 563 193 581 l 89 707 q 231 747 158 733 q 367 761 304 761 q 599 696 525 761 q 672 500 672 631 l 672 214 m 340 133 q 457 204 415 133 l 457 335 l 403 335 q 291 308 328 335 q 254 226 254 282 q 277 158 254 182 q 340 133 300 133 m 375 1126 q 469 1091 432 1126 q 506 1001 506 1056 q 469 912 506 947 q 375 876 432 876 q 282 912 318 876 q 246 1001 246 947 q 282 1091 246 1056 q 375 1126 318 1126 z "},"ạ":{"ha":761,"x_min":36,"x_max":722,"o":"m 672 214 q 684 153 672 172 q 722 124 696 133 l 676 -19 q 565 10 608 -14 q 499 88 522 35 q 276 -24 426 -24 q 101 40 167 -24 q 36 207 36 104 q 125 392 36 328 q 382 456 214 456 l 457 456 l 457 488 q 429 577 457 553 q 332 601 401 601 q 244 591 296 601 q 139 563 193 581 l 89 707 q 231 747 158 733 q 367 761 304 761 q 599 696 525 761 q 672 500 672 631 l 672 214 m 340 133 q 457 204 415 133 l 457 335 l 403 335 q 291 308 328 335 q 254 226 254 282 q 277 158 254 182 q 340 133 300 133 m 376 -333 q 283 -298 319 -333 q 246 -208 246 -262 q 283 -119 246 -154 q 376 -83 319 -83 q 469 -119 433 -83 q 506 -208 506 -154 q 469 -298 506 -262 q 376 -333 433 -333 z "},"ǡ":{"ha":761,"x_min":36,"x_max":722,"o":"m 672 214 q 684 153 672 172 q 722 124 696 133 l 676 -19 q 565 10 608 -14 q 499 88 522 35 q 276 -24 426 -24 q 101 40 167 -24 q 36 207 36 104 q 125 392 36 328 q 382 456 214 456 l 457 456 l 457 488 q 429 577 457 553 q 332 601 401 601 q 244 591 296 601 q 139 563 193 581 l 89 707 q 231 747 158 733 q 367 761 304 761 q 599 696 525 761 q 672 500 672 631 l 672 214 m 340 133 q 457 204 415 133 l 457 335 l 403 335 q 291 308 328 335 q 254 226 254 282 q 277 158 254 182 q 340 133 300 133 m 375 1074 q 469 1038 432 1074 q 506 949 506 1003 q 469 859 506 894 q 375 824 432 824 q 282 859 318 824 q 246 949 246 894 q 282 1038 246 1003 q 375 1074 318 1074 m 588 1115 l 164 1115 l 164 1268 l 588 1268 l 588 1115 z "},"à":{"ha":761,"x_min":36,"x_max":722,"o":"m 672 214 q 684 153 672 172 q 722 124 696 133 l 676 -19 q 565 10 608 -14 q 499 88 522 35 q 276 -24 426 -24 q 101 40 167 -24 q 36 207 36 104 q 125 392 36 328 q 382 456 214 456 l 457 456 l 457 488 q 429 577 457 553 q 332 601 401 601 q 244 591 296 601 q 139 563 193 581 l 89 707 q 231 747 158 733 q 367 761 304 761 q 599 696 525 761 q 672 500 672 631 l 672 214 m 340 133 q 457 204 415 133 l 457 335 l 403 335 q 291 308 328 335 q 254 226 254 282 q 277 158 254 182 q 340 133 300 133 m 282 1160 l 585 976 l 524 864 l 196 996 l 282 1160 z "},"ả":{"ha":761,"x_min":36,"x_max":722,"o":"m 672 214 q 684 153 672 172 q 722 124 696 133 l 676 -19 q 565 10 608 -14 q 499 88 522 35 q 276 -24 426 -24 q 101 40 167 -24 q 36 207 36 104 q 125 392 36 328 q 382 456 214 456 l 457 456 l 457 488 q 429 577 457 553 q 332 601 401 601 q 244 591 296 601 q 139 563 193 581 l 89 707 q 231 747 158 733 q 367 761 304 761 q 599 696 525 761 q 672 500 672 631 l 672 214 m 340 133 q 457 204 415 133 l 457 335 l 403 335 q 291 308 328 335 q 254 226 254 282 q 277 158 254 182 q 340 133 300 133 m 310 978 q 385 992 363 981 q 408 1031 408 1004 q 394 1063 408 1051 q 353 1074 379 1074 q 269 1056 315 1074 l 233 1147 q 385 1183 296 1183 q 512 1145 467 1183 q 557 1043 557 1107 q 527 956 557 989 q 440 913 497 924 l 440 840 l 310 840 l 310 978 z "},"ȃ":{"ha":761,"x_min":36,"x_max":722,"o":"m 672 214 q 684 153 672 172 q 722 124 696 133 l 676 -19 q 565 10 608 -14 q 499 88 522 35 q 276 -24 426 -24 q 101 40 167 -24 q 36 207 36 104 q 125 392 36 328 q 382 456 214 456 l 457 456 l 457 488 q 429 577 457 553 q 332 601 401 601 q 244 591 296 601 q 139 563 193 581 l 89 707 q 231 747 158 733 q 367 761 304 761 q 599 696 525 761 q 672 500 672 631 l 672 214 m 340 133 q 457 204 415 133 l 457 335 l 403 335 q 291 308 328 335 q 254 226 254 282 q 277 158 254 182 q 340 133 300 133 m 375 1097 q 544 1029 481 1097 q 615 857 607 961 l 494 836 q 375 944 465 944 q 257 836 283 944 l 136 857 q 207 1030 144 963 q 375 1097 269 1097 z "},"ɑ":{"ha":829,"x_min":44,"x_max":796,"o":"m 736 247 q 749 175 736 199 q 796 135 763 151 l 732 -24 q 613 17 658 -10 q 544 89 568 44 q 451 7 507 38 q 329 -24 394 -24 q 118 82 192 -24 q 44 371 44 188 q 82 573 44 485 q 189 711 119 661 q 351 761 258 761 q 533 675 464 761 l 546 738 l 736 738 l 736 247 m 390 138 q 517 218 465 138 l 517 540 q 463 586 490 571 q 400 601 435 601 q 306 545 340 601 q 272 369 272 489 q 303 189 272 240 q 390 138 333 138 z "},"ɒ":{"ha":829,"x_min":33,"x_max":785,"o":"m 500 761 q 711 656 638 761 q 785 367 785 550 q 747 165 785 253 q 640 26 710 76 q 478 -24 571 -24 q 296 63 365 -24 l 283 0 l 93 0 l 93 490 q 80 563 93 539 q 33 603 67 586 l 97 761 q 216 720 171 747 q 285 649 261 693 q 378 731 322 700 q 500 761 435 761 m 429 136 q 523 192 489 136 q 557 368 557 249 q 526 549 557 497 q 439 600 496 600 q 313 519 364 600 l 313 197 q 367 151 339 167 q 429 136 394 136 z "},"ā":{"ha":761,"x_min":36,"x_max":722,"o":"m 672 214 q 684 153 672 172 q 722 124 696 133 l 676 -19 q 565 10 608 -14 q 499 88 522 35 q 276 -24 426 -24 q 101 40 167 -24 q 36 207 36 104 q 125 392 36 328 q 382 456 214 456 l 457 456 l 457 488 q 429 577 457 553 q 332 601 401 601 q 244 591 296 601 q 139 563 193 581 l 89 707 q 231 747 158 733 q 367 761 304 761 q 599 696 525 761 q 672 500 672 631 l 672 214 m 340 133 q 457 204 415 133 l 457 335 l 403 335 q 291 308 328 335 q 254 226 254 282 q 277 158 254 182 q 340 133 300 133 m 588 910 l 164 910 l 164 1063 l 588 1063 l 588 910 z "},"ą":{"ha":761,"x_min":36,"x_max":722,"o":"m 676 -19 q 513 -161 513 -81 q 586 -225 513 -225 q 671 -214 619 -225 l 656 -350 q 558 -361 607 -361 q 411 -317 468 -361 q 354 -199 354 -272 q 550 21 354 -57 q 499 88 519 43 q 276 -24 426 -24 q 101 40 167 -24 q 36 207 36 104 q 125 392 36 328 q 382 456 214 456 l 457 456 l 457 488 q 429 577 457 553 q 332 601 401 601 q 244 591 296 601 q 139 563 193 581 l 89 707 q 231 747 158 733 q 367 761 304 761 q 599 696 525 761 q 672 500 672 631 l 672 214 q 684 153 672 172 q 722 124 696 133 l 676 -19 m 340 133 q 457 204 415 133 l 457 335 l 403 335 q 291 308 328 335 q 254 226 254 282 q 277 158 254 182 q 340 133 300 133 z "},"å":{"ha":761,"x_min":36,"x_max":722,"o":"m 672 214 q 684 153 672 172 q 722 124 696 133 l 676 -19 q 565 10 608 -14 q 499 88 522 35 q 276 -24 426 -24 q 101 40 167 -24 q 36 207 36 104 q 125 392 36 328 q 382 456 214 456 l 457 456 l 457 488 q 429 577 457 553 q 332 601 401 601 q 244 591 296 601 q 139 563 193 581 l 89 707 q 231 747 158 733 q 367 761 304 761 q 599 696 525 761 q 672 500 672 631 l 672 214 m 340 133 q 457 204 415 133 l 457 335 l 403 335 q 291 308 328 335 q 254 226 254 282 q 277 158 254 182 q 340 133 300 133 m 376 1204 q 517 1151 464 1204 q 569 1022 569 1099 q 517 893 569 946 q 376 840 464 840 q 236 893 289 840 q 183 1022 183 946 q 236 1151 183 1099 q 376 1204 289 1204 m 376 1092 q 331 1074 347 1092 q 314 1022 314 1056 q 331 971 314 989 q 376 953 347 953 q 422 971 404 953 q 439 1022 439 989 q 422 1074 439 1056 q 376 1092 406 1092 z "},"ǻ":{"ha":761,"x_min":36,"x_max":722,"o":"m 571 1292 l 238 1171 l 182 1282 l 489 1456 l 571 1292 m 375 801 q 235 854 288 801 q 182 983 182 907 q 235 1113 182 1060 q 375 1165 288 1165 q 515 1113 463 1165 q 568 983 568 1060 q 515 854 568 907 q 375 801 463 801 m 375 1053 q 329 1035 346 1053 q 313 983 313 1017 q 329 932 313 950 q 375 914 346 914 q 420 932 403 914 q 438 983 438 950 q 421 1035 438 1017 q 375 1053 404 1053 m 672 214 q 684 153 672 172 q 722 124 696 133 l 676 -19 q 565 10 608 -14 q 499 88 522 35 q 276 -24 426 -24 q 101 40 167 -24 q 36 207 36 104 q 125 392 36 328 q 382 456 214 456 l 457 456 l 457 488 q 429 577 457 553 q 332 601 401 601 q 244 591 296 601 q 139 563 193 581 l 89 707 q 231 747 158 733 q 367 761 304 761 q 599 696 525 761 q 672 500 672 631 l 672 214 m 340 133 q 457 204 415 133 l 457 335 l 403 335 q 291 308 328 335 q 254 226 254 282 q 277 158 254 182 q 340 133 300 133 z "},"ⱥ":{"ha":761,"x_min":36,"x_max":722,"o":"m 672 214 q 684 153 672 172 q 722 124 696 133 l 676 -19 q 565 10 608 -14 q 499 88 522 35 q 317 -21 438 -10 l 296 -103 l 222 -86 l 239 -21 q 91 53 146 -10 q 36 207 36 115 q 118 379 36 317 q 354 447 200 442 l 396 613 q 358 614 385 614 q 253 603 314 614 q 139 575 192 593 l 89 707 q 231 747 158 733 q 367 761 304 761 q 432 758 393 761 l 451 835 l 524 817 l 506 744 q 672 500 672 696 l 672 214 m 482 501 q 464 578 482 551 l 432 447 l 482 447 l 482 501 m 353 125 q 482 201 425 133 l 482 335 l 404 335 l 353 125 m 238 221 q 278 136 238 158 l 325 328 q 238 221 238 310 z "},"ã":{"ha":761,"x_min":36,"x_max":722,"o":"m 672 214 q 684 153 672 172 q 722 124 696 133 l 676 -19 q 565 10 608 -14 q 499 88 522 35 q 276 -24 426 -24 q 101 40 167 -24 q 36 207 36 104 q 125 392 36 328 q 382 456 214 456 l 457 456 l 457 488 q 429 577 457 553 q 332 601 401 601 q 244 591 296 601 q 139 563 193 581 l 89 707 q 231 747 158 733 q 367 761 304 761 q 599 696 525 761 q 672 500 672 631 l 672 214 m 340 133 q 457 204 415 133 l 457 335 l 403 335 q 291 308 328 335 q 254 226 254 282 q 277 158 254 182 q 340 133 300 133 m 457 882 q 404 892 426 882 q 356 919 382 901 q 299 944 321 944 q 259 930 275 944 q 225 883 243 915 l 115 936 q 190 1054 143 1008 q 294 1100 236 1100 q 349 1090 326 1100 q 400 1061 372 1079 q 431 1043 419 1049 q 456 1038 443 1038 q 494 1052 478 1038 q 528 1099 510 1067 l 638 1044 q 562 926 608 971 q 457 882 515 882 z "},"ɐ":{"ha":761,"x_min":39,"x_max":725,"o":"m 429 136 q 517 147 465 136 q 622 175 568 157 l 672 31 q 530 -10 603 4 q 394 -24 457 -24 q 163 42 236 -24 q 89 238 89 107 l 89 524 q 77 585 89 565 q 39 614 65 604 l 85 757 q 196 727 153 751 q 263 650 239 703 q 485 761 335 761 q 660 697 594 761 q 725 531 725 633 q 636 346 725 410 q 379 282 547 282 l 304 282 l 304 250 q 332 160 304 185 q 429 136 360 136 m 421 604 q 304 533 346 604 l 304 403 l 358 403 q 470 429 433 403 q 507 511 507 456 q 484 580 507 556 q 421 604 461 604 z "},"æ":{"ha":1188,"x_min":36,"x_max":1150,"o":"m 1150 383 q 1146 304 1150 338 l 689 304 q 741 174 699 211 q 857 136 783 136 q 943 152 901 136 q 1033 201 985 168 l 1124 79 q 836 -24 994 -24 q 665 10 739 -24 q 543 103 590 43 q 282 -24 454 -24 q 103 40 169 -24 q 36 207 36 104 q 127 392 36 328 q 390 456 218 456 l 465 456 l 465 486 q 437 575 465 550 q 340 600 408 600 q 253 590 304 600 q 147 561 201 579 l 97 707 q 240 747 167 733 q 375 761 313 761 q 601 668 529 761 q 826 761 690 761 q 997 716 924 761 q 1110 586 1069 671 q 1150 383 1150 501 m 933 446 q 814 615 933 615 q 727 574 758 615 q 689 436 696 532 l 933 436 l 933 446 m 351 133 q 422 156 392 133 q 483 222 453 178 q 468 325 471 265 l 468 331 l 413 331 q 303 305 339 331 q 268 222 268 279 q 290 157 268 181 q 351 133 311 133 z "},"ǽ":{"ha":1188,"x_min":36,"x_max":1150,"o":"m 1150 383 q 1146 304 1150 338 l 689 304 q 741 174 699 211 q 857 136 783 136 q 943 152 901 136 q 1033 201 985 168 l 1124 79 q 836 -24 994 -24 q 665 10 739 -24 q 543 103 590 43 q 282 -24 454 -24 q 103 40 169 -24 q 36 207 36 104 q 127 392 36 328 q 390 456 218 456 l 465 456 l 465 486 q 437 575 465 550 q 340 600 408 600 q 253 590 304 600 q 147 561 201 579 l 97 707 q 240 747 167 733 q 375 761 313 761 q 601 668 529 761 q 826 761 690 761 q 997 716 924 761 q 1110 586 1069 671 q 1150 383 1150 501 m 933 446 q 814 615 933 615 q 727 574 758 615 q 689 436 696 532 l 933 436 l 933 446 m 351 133 q 422 156 392 133 q 483 222 453 178 q 468 325 471 265 l 468 331 l 413 331 q 303 305 339 331 q 268 222 268 279 q 290 157 268 181 q 351 133 311 133 m 696 1160 l 782 996 l 454 864 l 393 976 l 696 1160 z "},"ǣ":{"ha":1188,"x_min":36,"x_max":1150,"o":"m 1150 383 q 1146 304 1150 338 l 689 304 q 741 174 699 211 q 857 136 783 136 q 943 152 901 136 q 1033 201 985 168 l 1124 79 q 836 -24 994 -24 q 665 10 739 -24 q 543 103 590 43 q 282 -24 454 -24 q 103 40 169 -24 q 36 207 36 104 q 127 392 36 328 q 390 456 218 456 l 465 456 l 465 486 q 437 575 465 550 q 340 600 408 600 q 253 590 304 600 q 147 561 201 579 l 97 707 q 240 747 167 733 q 375 761 313 761 q 601 668 529 761 q 826 761 690 761 q 997 716 924 761 q 1110 586 1069 671 q 1150 383 1150 501 m 933 446 q 814 615 933 615 q 727 574 758 615 q 689 436 696 532 l 933 436 l 933 446 m 351 133 q 422 156 392 133 q 483 222 453 178 q 468 325 471 265 l 468 331 l 413 331 q 303 305 339 331 q 268 222 268 279 q 290 157 268 181 q 351 133 311 133 m 807 910 l 383 910 l 383 1063 l 807 1063 l 807 910 z "},"b":{"ha":829,"x_min":86,"x_max":778,"o":"m 504 761 q 707 658 636 761 q 778 368 778 554 q 742 165 778 254 q 641 26 707 76 q 485 -24 575 -24 q 376 1 425 -24 q 292 71 326 26 l 281 0 l 86 0 l 86 1031 l 306 1054 l 306 663 q 391 735 339 708 q 504 761 443 761 m 421 136 q 550 368 550 136 q 519 550 550 500 q 431 600 489 600 q 306 514 357 600 l 306 207 q 356 155 326 174 q 421 136 386 136 z "},"ḃ":{"ha":829,"x_min":86,"x_max":778,"o":"m 504 761 q 707 658 636 761 q 778 368 778 554 q 742 165 778 254 q 641 26 707 76 q 485 -24 575 -24 q 376 1 425 -24 q 292 71 326 26 l 281 0 l 86 0 l 86 1031 l 306 1054 l 306 663 q 391 735 339 708 q 504 761 443 761 m 421 136 q 550 368 550 136 q 519 550 550 500 q 431 600 489 600 q 306 514 357 600 l 306 207 q 356 155 326 174 q 421 136 386 136 m 442 1369 q 535 1334 499 1369 q 572 1244 572 1299 q 535 1155 572 1190 q 442 1119 499 1119 q 349 1155 385 1119 q 313 1244 313 1190 q 349 1334 313 1299 q 442 1369 385 1369 z "},"ḅ":{"ha":829,"x_min":86,"x_max":778,"o":"m 504 761 q 707 658 636 761 q 778 368 778 554 q 742 165 778 254 q 641 26 707 76 q 485 -24 575 -24 q 376 1 425 -24 q 292 71 326 26 l 281 0 l 86 0 l 86 1031 l 306 1054 l 306 663 q 391 735 339 708 q 504 761 443 761 m 421 136 q 550 368 550 136 q 519 550 550 500 q 431 600 489 600 q 306 514 357 600 l 306 207 q 356 155 326 174 q 421 136 386 136 m 428 -333 q 334 -298 371 -333 q 297 -208 297 -262 q 334 -119 297 -154 q 428 -83 371 -83 q 521 -119 485 -83 q 557 -208 557 -154 q 521 -298 557 -262 q 428 -333 485 -333 z "},"ꞵ":{"ha":843,"x_min":86,"x_max":807,"o":"m 536 563 q 728 491 649 551 q 807 288 807 431 q 766 125 807 196 q 654 15 725 54 q 494 -24 583 -24 q 297 39 385 -24 l 297 -278 l 86 -308 l 86 758 q 176 975 86 896 q 413 1054 265 1054 q 580 1021 508 1054 q 690 928 651 988 q 729 792 729 868 q 679 642 729 700 q 536 563 629 583 m 438 144 q 545 185 504 144 q 586 306 586 225 q 408 478 586 478 l 354 478 l 368 626 l 401 626 q 486 663 456 626 q 517 772 517 700 q 488 867 517 836 q 410 899 460 899 q 297 760 297 899 l 297 178 q 438 144 356 144 z "},"ɓ":{"ha":829,"x_min":86,"x_max":778,"o":"m 500 761 q 706 658 635 761 q 778 368 778 556 q 742 165 778 254 q 641 26 707 76 q 485 -24 575 -24 q 376 1 425 -24 q 292 71 326 26 l 281 0 l 86 0 l 86 803 q 159 984 86 914 q 368 1054 232 1054 q 569 1007 478 1054 l 510 867 q 394 892 451 892 q 326 869 347 892 q 306 794 306 847 l 306 663 q 391 735 339 708 q 500 761 443 761 m 422 136 q 550 368 550 136 q 519 549 550 499 q 432 600 489 600 q 306 514 357 600 l 306 207 q 357 155 326 174 q 422 136 388 136 z "},"ʭ":{"ha":507,"x_min":42,"x_max":465,"o":"m 42 554 l 42 783 l 465 783 l 465 554 l 335 554 l 335 671 l 172 671 l 172 554 l 42 554 m 42 -1 l 42 228 l 465 228 l 465 -1 l 335 -1 l 335 115 l 172 115 l 172 -1 l 42 -1 z "},"ʘ":{"ha":1108,"x_min":46,"x_max":1061,"o":"m 554 986 q 819 925 704 986 q 997 749 933 864 q 1061 482 1061 635 q 997 219 1061 333 q 818 40 933 104 q 554 -24 703 -24 q 289 38 404 -24 q 110 215 174 100 q 46 482 46 329 q 110 744 46 629 q 290 922 174 858 q 554 986 406 986 m 554 833 q 338 747 415 833 q 261 482 261 660 q 338 216 261 303 q 554 129 415 129 q 771 216 694 129 q 847 482 847 303 q 768 746 847 658 q 554 833 689 833 m 557 592 q 639 560 607 592 q 671 482 671 529 q 639 404 671 436 q 557 372 607 372 q 475 404 507 372 q 443 482 443 436 q 475 560 443 529 q 557 592 507 592 z "},"ʬ":{"ha":651,"x_min":43,"x_max":610,"o":"m 610 926 l 525 556 l 381 556 l 331 825 l 276 556 l 133 556 l 43 926 l 154 926 l 210 640 l 267 926 l 399 926 l 451 639 l 504 926 l 610 926 m 610 371 l 525 0 l 381 0 l 331 269 l 276 0 l 133 0 l 43 371 l 154 371 l 210 85 l 267 371 l 399 371 l 451 83 l 504 371 l 610 371 z "},"ƀ":{"ha":842,"x_min":11,"x_max":789,"o":"m 515 761 q 718 658 647 761 q 789 368 789 554 q 753 165 789 254 q 652 26 718 76 q 496 -24 586 -24 q 387 1 436 -24 q 303 71 338 26 l 292 0 l 97 0 l 97 828 l 11 828 l 11 956 l 97 956 l 97 1031 l 317 1054 l 317 956 l 500 956 l 500 828 l 317 828 l 317 663 q 402 735 350 708 q 515 761 454 761 m 432 136 q 561 368 561 136 q 531 550 561 500 q 442 600 500 600 q 317 514 368 600 l 317 207 q 367 155 338 174 q 432 136 397 136 z "},"ƃ":{"ha":829,"x_min":86,"x_max":778,"o":"m 500 744 q 706 643 635 744 q 778 360 778 542 q 742 163 778 250 q 641 26 707 75 q 485 -24 575 -24 q 376 1 425 -24 q 292 71 326 26 l 281 0 l 86 0 l 86 1031 l 608 1031 l 585 874 l 306 874 l 306 646 q 392 717 339 690 q 500 744 444 744 m 422 136 q 550 360 550 136 q 519 534 550 485 q 432 583 489 583 q 306 497 357 583 l 306 207 q 357 155 326 174 q 422 136 388 136 z "},"c":{"ha":665,"x_min":44,"x_max":658,"o":"m 406 761 q 543 739 482 761 q 658 671 604 717 l 564 540 q 424 593 494 593 q 313 539 350 593 q 275 364 275 485 q 313 199 275 247 q 421 150 350 150 q 489 162 458 150 q 563 200 519 174 l 658 64 q 410 -24 549 -24 q 215 24 297 -24 q 89 159 133 72 q 44 363 44 246 q 89 569 44 479 q 215 710 133 660 q 406 761 297 761 z "},"ć":{"ha":665,"x_min":44,"x_max":658,"o":"m 406 761 q 543 739 482 761 q 658 671 604 717 l 564 540 q 424 593 494 593 q 313 539 350 593 q 275 364 275 485 q 313 199 275 247 q 421 150 350 150 q 489 162 458 150 q 563 200 519 174 l 658 64 q 410 -24 549 -24 q 215 24 297 -24 q 89 159 133 72 q 44 363 44 246 q 89 569 44 479 q 215 710 133 660 q 406 761 297 761 m 504 1160 l 590 996 l 263 864 l 201 976 l 504 1160 z "},"č":{"ha":665,"x_min":44,"x_max":667,"o":"m 406 761 q 543 739 482 761 q 658 671 604 717 l 564 540 q 424 593 494 593 q 313 539 350 593 q 275 364 275 485 q 313 199 275 247 q 421 150 350 150 q 489 162 458 150 q 563 200 519 174 l 658 64 q 410 -24 549 -24 q 215 24 297 -24 q 89 159 133 72 q 44 363 44 246 q 89 569 44 479 q 215 710 133 660 q 406 761 297 761 m 589 1129 l 667 1039 l 471 849 l 338 849 l 140 1039 l 219 1129 l 404 1003 l 589 1129 z "},"ç":{"ha":665,"x_min":44,"x_max":658,"o":"m 658 64 q 449 -22 564 -11 l 449 -67 q 558 -110 522 -75 q 593 -204 593 -146 q 537 -319 593 -275 q 386 -364 481 -364 q 299 -352 339 -364 q 231 -322 258 -340 l 281 -221 q 369 -244 328 -244 q 435 -203 435 -244 q 404 -167 435 -178 q 307 -156 374 -156 l 324 -15 q 119 111 193 11 q 44 363 44 211 q 89 569 44 479 q 215 710 133 660 q 406 761 297 761 q 543 739 482 761 q 658 671 604 717 l 564 540 q 424 593 494 593 q 313 539 350 593 q 275 364 275 485 q 313 199 275 247 q 421 150 350 150 q 489 162 458 150 q 563 200 519 174 l 658 64 z "},"ĉ":{"ha":665,"x_min":44,"x_max":667,"o":"m 406 761 q 543 739 482 761 q 658 671 604 717 l 564 540 q 424 593 494 593 q 313 539 350 593 q 275 364 275 485 q 313 199 275 247 q 421 150 350 150 q 489 162 458 150 q 563 200 519 174 l 658 64 q 410 -24 549 -24 q 215 24 297 -24 q 89 159 133 72 q 44 363 44 246 q 89 569 44 479 q 215 710 133 660 q 406 761 297 761 m 218 861 l 140 951 l 336 1142 l 471 1142 l 667 951 l 589 861 l 404 989 l 218 861 z "},"ɕ":{"ha":696,"x_min":44,"x_max":688,"o":"m 510 354 q 638 310 588 354 q 688 188 688 265 q 613 31 688 85 q 422 -24 538 -24 q 325 -14 371 -24 l 278 -117 l 171 -75 l 218 26 q 90 158 135 71 q 44 363 44 246 q 89 569 44 479 q 215 710 133 660 q 406 761 297 761 q 543 739 482 761 q 658 671 604 717 l 563 539 q 424 593 496 593 q 313 539 350 593 q 275 364 275 485 q 304 206 275 264 q 388 319 339 285 q 510 354 436 354 m 450 135 q 533 193 533 135 q 490 235 533 235 q 439 214 461 235 q 393 142 417 193 q 450 135 424 135 z "},"ċ":{"ha":665,"x_min":44,"x_max":658,"o":"m 406 761 q 543 739 482 761 q 658 671 604 717 l 564 540 q 424 593 494 593 q 313 539 350 593 q 275 364 275 485 q 313 199 275 247 q 421 150 350 150 q 489 162 458 150 q 563 200 519 174 l 658 64 q 410 -24 549 -24 q 215 24 297 -24 q 89 159 133 72 q 44 363 44 246 q 89 569 44 479 q 215 710 133 660 q 406 761 297 761 m 403 1126 q 497 1091 460 1126 q 533 1001 533 1056 q 497 912 533 947 q 403 876 460 876 q 310 912 346 876 q 274 1001 274 947 q 310 1091 274 1056 q 403 1126 346 1126 z "},"ƈ":{"ha":665,"x_min":44,"x_max":888,"o":"m 700 1054 q 888 1001 806 1054 l 824 865 q 776 885 797 879 q 729 892 754 892 q 676 872 693 892 q 658 807 658 851 l 658 671 l 576 557 q 426 593 507 593 q 313 539 351 593 q 275 364 275 485 q 313 199 275 247 q 421 150 350 150 q 489 162 458 150 q 563 200 519 174 l 658 64 q 410 -24 549 -24 q 215 24 297 -24 q 89 159 133 72 q 44 363 44 246 q 88 569 44 478 q 207 710 131 660 q 379 761 283 761 q 464 749 426 761 l 464 817 q 524 992 464 931 q 700 1054 583 1054 z "},"ʗ":{"ha":678,"x_min":58,"x_max":671,"o":"m 436 761 q 671 671 572 761 l 581 544 q 513 581 544 569 q 447 593 482 593 q 328 506 368 593 q 288 222 288 419 q 326 -52 288 29 q 440 -133 365 -133 q 506 -122 476 -133 q 575 -83 536 -110 l 671 -219 q 433 -307 563 -307 q 156 -169 253 -307 q 58 222 58 -32 q 103 512 58 390 q 233 697 147 633 q 436 761 318 761 z "},"ȼ":{"ha":665,"x_min":44,"x_max":658,"o":"m 421 150 q 489 162 458 150 q 563 200 519 174 l 658 64 q 410 -24 549 -24 q 343 -19 375 -24 l 321 -103 l 243 -85 l 265 0 q 103 135 161 40 q 44 363 44 229 q 89 569 44 479 q 215 710 133 660 q 406 761 297 761 q 468 757 439 761 l 489 835 l 565 815 l 544 738 q 658 671 601 718 l 564 540 q 501 578 539 560 l 389 153 q 421 150 408 150 m 275 364 q 317 193 275 243 l 424 593 q 313 539 350 593 q 275 364 275 485 z "},"d":{"ha":833,"x_min":51,"x_max":747,"o":"m 747 1031 l 747 0 l 553 0 l 542 86 q 332 -24 464 -24 q 123 82 194 -24 q 51 371 51 188 q 89 572 51 483 q 195 711 126 661 q 353 761 264 761 q 528 692 458 761 l 528 1054 l 747 1031 m 400 138 q 528 221 476 138 l 528 539 q 474 586 501 571 q 413 601 447 601 q 315 544 351 601 q 279 369 279 488 q 310 189 279 240 q 400 138 342 138 z "},"ð":{"ha":804,"x_min":44,"x_max":753,"o":"m 496 931 q 693 700 633 833 q 753 385 753 567 q 710 176 753 269 q 585 30 667 83 q 393 -24 504 -24 q 214 18 293 -24 q 90 138 135 60 q 44 325 44 217 q 82 497 44 418 q 185 620 119 575 q 333 665 251 665 q 517 600 443 665 q 465 715 497 665 q 375 808 432 764 l 299 732 l 161 796 l 240 878 q 113 908 174 899 l 157 1053 q 360 1000 268 1033 l 461 1108 l 572 1010 l 496 931 m 396 136 q 497 190 464 136 q 529 356 529 244 l 528 454 q 393 513 474 513 q 268 329 268 513 q 301 183 268 231 q 396 136 335 136 z "},"ȸ":{"ha":1215,"x_min":51,"x_max":1164,"o":"m 910 761 q 1097 657 1029 761 q 1164 368 1164 553 q 1129 166 1164 256 q 1031 26 1094 76 q 885 -24 968 -24 q 783 4 829 -24 q 707 82 738 32 l 694 0 l 525 0 l 514 85 q 429 6 479 36 q 318 -24 379 -24 q 121 83 190 -24 q 51 371 51 189 q 87 572 51 483 q 186 711 122 661 q 333 761 250 761 q 424 739 381 761 q 500 672 467 717 l 500 1031 l 719 1054 l 719 661 q 801 735 753 708 q 910 761 850 761 m 388 138 q 500 219 447 138 l 500 531 q 393 601 453 601 q 310 544 342 601 q 279 369 279 488 q 388 138 279 138 m 826 136 q 905 192 874 136 q 936 368 936 247 q 908 549 936 499 q 832 600 881 600 q 719 522 771 600 l 719 218 q 826 136 764 136 z "},"ď":{"ha":953,"x_min":51,"x_max":999,"o":"m 747 1031 l 747 0 l 553 0 l 542 86 q 332 -24 464 -24 q 123 82 194 -24 q 51 371 51 188 q 89 572 51 483 q 195 711 126 661 q 353 761 264 761 q 528 692 458 761 l 528 1054 l 747 1031 m 400 138 q 528 221 476 138 l 528 539 q 474 586 501 571 q 413 601 447 601 q 315 544 351 601 q 279 369 279 488 q 310 189 279 240 q 400 138 342 138 m 922 732 l 999 1031 l 832 1054 l 800 750 l 922 732 z "},"ḓ":{"ha":833,"x_min":51,"x_max":747,"o":"m 747 1031 l 747 0 l 553 0 l 542 86 q 332 -24 464 -24 q 123 82 194 -24 q 51 371 51 188 q 89 572 51 483 q 195 711 126 661 q 353 761 264 761 q 528 692 458 761 l 528 1054 l 747 1031 m 400 138 q 528 221 476 138 l 528 539 q 474 586 501 571 q 413 601 447 601 q 315 544 351 601 q 279 369 279 488 q 310 189 279 240 q 400 138 342 138 m 242 -368 l 164 -278 l 360 -87 l 494 -87 l 690 -278 l 613 -368 l 428 -240 l 242 -368 z "},"đ":{"ha":844,"x_min":51,"x_max":833,"o":"m 833 956 l 833 828 l 747 828 l 747 0 l 553 0 l 542 86 q 332 -24 464 -24 q 123 82 194 -24 q 51 371 51 188 q 89 572 51 483 q 195 711 126 661 q 353 761 264 761 q 528 692 458 761 l 528 828 l 338 828 l 338 956 l 528 956 l 528 1054 l 747 1031 l 747 956 l 833 956 m 400 138 q 528 221 476 138 l 528 539 q 474 586 501 571 q 413 601 447 601 q 315 544 351 601 q 279 369 279 488 q 310 189 279 240 q 400 138 342 138 z "},"ȡ":{"ha":1094,"x_min":51,"x_max":1106,"o":"m 938 340 q 1058 297 1010 340 q 1106 182 1106 254 q 1031 29 1106 82 q 839 -24 957 -24 q 769 -18 801 -24 l 726 -117 l 618 -75 l 661 17 q 563 114 594 53 q 332 -24 476 -24 q 123 82 194 -24 q 51 371 51 188 q 88 573 51 485 q 194 711 125 661 q 357 761 264 761 q 451 743 407 761 q 528 692 494 725 l 528 1054 l 747 1031 l 747 264 q 753 204 747 225 q 829 308 786 276 q 938 340 872 340 m 401 138 q 472 159 440 138 q 531 224 503 181 q 528 269 528 254 l 528 539 q 475 586 501 571 q 414 601 449 601 q 315 545 351 601 q 279 369 279 489 q 310 189 279 240 q 401 138 342 138 m 871 135 q 953 185 953 135 q 943 213 953 203 q 915 222 933 222 q 876 204 892 222 q 838 136 860 186 q 871 135 847 135 z "},"ḋ":{"ha":833,"x_min":51,"x_max":747,"o":"m 747 1031 l 747 0 l 553 0 l 542 86 q 332 -24 464 -24 q 123 82 194 -24 q 51 371 51 188 q 89 572 51 483 q 195 711 126 661 q 353 761 264 761 q 528 692 458 761 l 528 1054 l 747 1031 m 400 138 q 528 221 476 138 l 528 539 q 474 586 501 571 q 413 601 447 601 q 315 544 351 601 q 279 369 279 488 q 310 189 279 240 q 400 138 342 138 m 413 1369 q 506 1334 469 1369 q 543 1244 543 1299 q 506 1155 543 1190 q 413 1119 469 1119 q 319 1155 356 1119 q 283 1244 283 1190 q 319 1334 283 1299 q 413 1369 356 1369 z "},"ḍ":{"ha":833,"x_min":51,"x_max":747,"o":"m 747 1031 l 747 0 l 553 0 l 542 86 q 332 -24 464 -24 q 123 82 194 -24 q 51 371 51 188 q 89 572 51 483 q 195 711 126 661 q 353 761 264 761 q 528 692 458 761 l 528 1054 l 747 1031 m 400 138 q 528 221 476 138 l 528 539 q 474 586 501 571 q 413 601 447 601 q 315 544 351 601 q 279 369 279 488 q 310 189 279 240 q 400 138 342 138 m 428 -333 q 334 -298 371 -333 q 297 -208 297 -262 q 334 -119 297 -154 q 428 -83 371 -83 q 521 -119 485 -83 q 557 -208 557 -154 q 521 -298 557 -262 q 428 -333 485 -333 z "},"ƍ":{"ha":801,"x_min":44,"x_max":757,"o":"m 544 103 q 653 13 625 58 q 682 -94 682 -33 q 607 -249 682 -187 q 385 -310 532 -310 q 119 -225 229 -310 l 219 -108 q 291 -145 256 -133 q 369 -157 326 -157 q 447 -139 422 -157 q 472 -90 472 -121 q 463 -51 472 -67 q 423 -18 453 -35 q 332 24 393 -1 q 113 169 181 86 q 44 393 44 253 q 88 586 44 503 q 213 715 132 669 q 401 761 293 761 q 662 666 567 761 q 757 403 757 571 q 703 227 757 303 q 544 103 649 151 m 272 393 q 285 288 272 326 q 331 219 297 249 q 432 156 364 189 q 509 258 486 201 q 532 394 532 314 q 500 550 532 500 q 401 600 468 600 q 305 549 338 600 q 272 393 272 499 z "},"ʤ":{"ha":1415,"x_min":51,"x_max":1392,"o":"m 1092 296 q 1315 216 1238 286 q 1392 13 1392 146 q 1347 -152 1392 -79 q 1217 -267 1301 -225 q 1018 -308 1133 -308 q 692 -165 810 -308 l 807 -54 q 903 -120 857 -100 q 1006 -140 949 -140 q 1123 -99 1081 -140 q 1165 26 1165 -57 q 1122 134 1165 101 q 990 167 1079 167 l 863 167 l 863 294 l 1100 574 l 747 574 l 747 0 l 553 0 l 542 86 q 332 -24 464 -24 q 123 82 194 -24 q 51 371 51 188 q 89 572 51 483 q 195 711 126 661 q 353 761 264 761 q 528 692 458 761 l 528 1054 l 747 1031 l 747 738 l 1347 738 l 1347 588 l 1092 296 m 400 138 q 528 221 476 138 l 528 539 q 474 586 501 571 q 413 601 447 601 q 315 544 351 601 q 279 369 279 488 q 310 189 279 240 q 400 138 342 138 z "},"ɗ":{"ha":833,"x_min":51,"x_max":976,"o":"m 789 1054 q 976 1001 894 1054 l 913 865 q 865 885 886 879 q 819 892 844 892 q 765 872 783 892 q 747 807 747 851 l 747 0 l 553 0 l 542 86 q 332 -24 464 -24 q 123 82 194 -24 q 51 371 51 188 q 88 573 51 485 q 194 711 125 661 q 357 761 264 761 q 451 743 407 761 q 528 692 494 725 l 528 800 q 596 985 528 915 q 789 1054 664 1054 m 401 138 q 528 221 476 138 l 528 539 q 475 586 501 571 q 414 601 449 601 q 315 545 351 601 q 279 369 279 489 q 310 189 279 240 q 401 138 342 138 z "},"ḏ":{"ha":833,"x_min":51,"x_max":747,"o":"m 747 1031 l 747 0 l 553 0 l 542 86 q 332 -24 464 -24 q 123 82 194 -24 q 51 371 51 188 q 89 572 51 483 q 195 711 126 661 q 353 761 264 761 q 528 692 458 761 l 528 1054 l 747 1031 m 400 138 q 528 221 476 138 l 528 539 q 474 586 501 571 q 413 601 447 601 q 315 544 351 601 q 279 369 279 488 q 310 189 279 240 q 400 138 342 138 m 639 -265 l 215 -265 l 215 -112 l 639 -112 l 639 -265 z "},"ɖ":{"ha":833,"x_min":51,"x_max":997,"o":"m 997 -249 q 800 -308 918 -308 q 601 -240 675 -308 q 528 -43 528 -172 l 528 68 q 332 -24 453 -24 q 123 82 194 -24 q 51 371 51 188 q 88 573 51 485 q 194 711 125 661 q 357 761 264 761 q 451 743 407 761 q 528 692 494 725 l 528 1054 l 747 1031 l 747 -64 q 768 -127 747 -106 q 826 -149 789 -149 q 874 -142 854 -149 q 924 -121 893 -136 l 997 -249 m 401 138 q 528 221 476 138 l 528 539 q 475 586 501 571 q 414 601 449 601 q 315 545 351 601 q 279 369 279 489 q 310 189 279 240 q 401 138 342 138 z "},"ƌ":{"ha":833,"x_min":51,"x_max":747,"o":"m 747 0 l 553 0 l 542 86 q 332 -24 464 -24 q 123 80 194 -24 q 51 361 51 183 q 88 558 51 471 q 194 695 125 646 q 357 744 264 744 q 451 726 407 744 q 528 674 494 707 l 528 874 l 238 874 l 238 1031 l 747 1031 l 747 0 m 401 138 q 528 221 476 138 l 528 522 q 475 569 501 554 q 414 585 449 585 q 315 529 351 585 q 279 361 279 474 q 311 188 279 238 q 401 138 343 138 z "},"ǳ":{"ha":1471,"x_min":51,"x_max":1446,"o":"m 747 1031 l 747 0 l 553 0 l 542 86 q 332 -24 464 -24 q 123 82 194 -24 q 51 371 51 188 q 89 572 51 483 q 195 711 126 661 q 353 761 264 761 q 528 692 458 761 l 528 1054 l 747 1031 m 400 138 q 528 221 476 138 l 528 539 q 474 586 501 571 q 413 601 447 601 q 315 544 351 601 q 279 369 279 488 q 310 189 279 240 q 400 138 342 138 m 1439 738 l 1439 583 l 1106 167 l 1446 167 l 1426 0 l 851 0 l 851 156 l 1186 572 l 881 572 l 881 738 l 1439 738 z "},"ʣ":{"ha":1364,"x_min":51,"x_max":1339,"o":"m 1339 167 l 1318 0 l 553 0 l 542 86 q 332 -24 464 -24 q 123 82 194 -24 q 51 371 51 188 q 89 572 51 483 q 195 711 126 661 q 353 761 264 761 q 528 692 458 761 l 528 1054 l 747 1031 l 747 738 l 1332 738 l 1332 583 l 986 167 l 1339 167 m 400 138 q 528 221 476 138 l 528 539 q 474 586 501 571 q 413 601 447 601 q 315 544 351 601 q 279 369 279 488 q 310 189 279 240 q 400 138 342 138 m 747 572 l 747 157 l 1090 572 l 747 572 z "},"ǆ":{"ha":1471,"x_min":51,"x_max":1446,"o":"m 747 1031 l 747 0 l 553 0 l 542 86 q 332 -24 464 -24 q 123 82 194 -24 q 51 371 51 188 q 89 572 51 483 q 195 711 126 661 q 353 761 264 761 q 528 692 458 761 l 528 1054 l 747 1031 m 400 138 q 528 221 476 138 l 528 539 q 474 586 501 571 q 413 601 447 601 q 315 544 351 601 q 279 369 279 488 q 310 189 279 240 q 400 138 342 138 m 1439 738 l 1439 583 l 1106 167 l 1446 167 l 1426 0 l 851 0 l 851 156 l 1186 572 l 881 572 l 881 738 l 1439 738 m 1342 1129 l 1419 1039 l 1224 849 l 1090 849 l 893 1039 l 972 1129 l 1157 1003 l 1342 1129 z "},"ʥ":{"ha":1481,"x_min":51,"x_max":1504,"o":"m 1332 369 q 1456 326 1407 369 q 1504 206 1504 282 q 1431 51 1504 104 q 1211 0 1358 -1 q 1204 -129 1204 -49 l 1204 -178 l 1078 -178 q 1086 0 1078 -79 l 553 0 l 542 86 q 332 -24 464 -24 q 123 82 194 -24 q 51 371 51 188 q 89 572 51 483 q 195 711 126 661 q 353 761 264 761 q 528 692 458 761 l 528 1054 l 747 1031 l 747 738 l 1331 738 l 1331 592 l 981 167 l 1110 167 q 1194 322 1138 274 q 1332 369 1250 369 m 400 138 q 528 221 476 138 l 528 539 q 474 586 501 571 q 413 601 447 601 q 315 544 351 601 q 279 369 279 488 q 310 189 279 240 q 400 138 342 138 m 747 572 l 747 161 l 1088 572 l 747 572 m 1243 167 q 1327 178 1301 167 q 1353 217 1353 189 q 1314 254 1353 254 q 1236 167 1257 254 l 1243 167 m 1218 46 l 1218 44 l 1217 42 l 1218 46 z "},"e":{"ha":767,"x_min":44,"x_max":729,"o":"m 729 383 q 725 304 729 338 l 268 304 q 321 174 279 211 q 436 136 363 136 q 522 152 481 136 q 613 201 564 168 l 703 79 q 415 -24 574 -24 q 140 82 236 -24 q 44 365 44 188 q 85 567 44 478 q 203 709 125 657 q 389 761 281 761 q 639 661 549 761 q 729 383 729 561 m 514 446 q 394 615 511 615 q 306 574 338 615 q 268 436 275 532 l 514 436 l 514 446 z "},"é":{"ha":767,"x_min":44,"x_max":729,"o":"m 729 383 q 725 304 729 338 l 268 304 q 321 174 279 211 q 436 136 363 136 q 522 152 481 136 q 613 201 564 168 l 703 79 q 415 -24 574 -24 q 140 82 236 -24 q 44 365 44 188 q 85 567 44 478 q 203 709 125 657 q 389 761 281 761 q 639 661 549 761 q 729 383 729 561 m 514 446 q 394 615 511 615 q 306 574 338 615 q 268 436 275 532 l 514 436 l 514 446 m 493 1160 l 579 996 l 251 864 l 190 976 l 493 1160 z "},"ĕ":{"ha":767,"x_min":44,"x_max":729,"o":"m 729 383 q 725 304 729 338 l 268 304 q 321 174 279 211 q 436 136 363 136 q 522 152 481 136 q 613 201 564 168 l 703 79 q 415 -24 574 -24 q 140 82 236 -24 q 44 365 44 188 q 85 567 44 478 q 203 709 125 657 q 389 761 281 761 q 639 661 549 761 q 729 383 729 561 m 514 446 q 394 615 511 615 q 306 574 338 615 q 268 436 275 532 l 514 436 l 514 446 m 392 878 q 224 945 286 878 q 153 1118 161 1013 l 274 1139 q 392 1031 300 1031 q 511 1139 482 1031 l 632 1118 q 560 946 624 1014 q 392 878 497 878 z "},"ě":{"ha":767,"x_min":44,"x_max":729,"o":"m 729 383 q 725 304 729 338 l 268 304 q 321 174 279 211 q 436 136 363 136 q 522 152 481 136 q 613 201 564 168 l 703 79 q 415 -24 574 -24 q 140 82 236 -24 q 44 365 44 188 q 85 567 44 478 q 203 709 125 657 q 389 761 281 761 q 639 661 549 761 q 729 383 729 561 m 514 446 q 394 615 511 615 q 306 574 338 615 q 268 436 275 532 l 514 436 l 514 446 m 578 1129 l 656 1039 l 460 849 l 326 849 l 129 1039 l 208 1129 l 393 1003 l 578 1129 z "},"ȩ":{"ha":767,"x_min":44,"x_max":729,"o":"m 729 383 q 725 304 729 338 l 268 304 q 321 174 279 211 q 436 136 363 136 q 522 152 481 136 q 613 201 564 168 l 703 79 q 468 -21 597 -6 l 468 -67 q 577 -110 542 -75 q 613 -204 613 -146 q 556 -319 613 -275 q 406 -364 500 -364 q 318 -352 358 -364 q 250 -322 278 -340 l 300 -221 q 389 -244 347 -244 q 454 -203 454 -244 q 424 -167 454 -178 q 326 -156 393 -156 l 343 -18 q 121 105 197 3 q 44 365 44 207 q 85 567 44 478 q 203 709 125 657 q 389 761 281 761 q 639 661 549 761 q 729 383 729 561 m 514 446 q 394 615 511 615 q 306 574 338 615 q 268 436 275 532 l 514 436 l 514 446 z "},"ê":{"ha":767,"x_min":44,"x_max":729,"o":"m 729 383 q 725 304 729 338 l 268 304 q 321 174 279 211 q 436 136 363 136 q 522 152 481 136 q 613 201 564 168 l 703 79 q 415 -24 574 -24 q 140 82 236 -24 q 44 365 44 188 q 85 567 44 478 q 203 709 125 657 q 389 761 281 761 q 639 661 549 761 q 729 383 729 561 m 514 446 q 394 615 511 615 q 306 574 338 615 q 268 436 275 532 l 514 436 l 514 446 m 207 861 l 129 951 l 325 1142 l 460 1142 l 656 951 l 578 861 l 393 989 l 207 861 z "},"ế":{"ha":767,"x_min":44,"x_max":836,"o":"m 729 383 q 725 304 729 338 l 268 304 q 321 174 279 211 q 436 136 363 136 q 522 152 481 136 q 613 201 564 168 l 703 79 q 415 -24 574 -24 q 140 82 236 -24 q 44 365 44 188 q 85 567 44 478 q 203 709 125 657 q 389 761 281 761 q 639 661 549 761 q 729 383 729 561 m 514 446 q 394 615 511 615 q 306 574 338 615 q 268 436 275 532 l 514 436 l 514 446 m 206 813 l 126 903 l 324 1082 l 457 1082 l 653 903 l 575 813 l 390 929 l 206 813 m 717 1331 l 836 1214 l 617 1018 l 533 1093 l 717 1331 z "},"ệ":{"ha":767,"x_min":44,"x_max":729,"o":"m 729 383 q 725 304 729 338 l 268 304 q 321 174 279 211 q 436 136 363 136 q 522 152 481 136 q 613 201 564 168 l 703 79 q 415 -24 574 -24 q 140 82 236 -24 q 44 365 44 188 q 85 567 44 478 q 203 709 125 657 q 389 761 281 761 q 639 661 549 761 q 729 383 729 561 m 514 446 q 394 615 511 615 q 306 574 338 615 q 268 436 275 532 l 514 436 l 514 446 m 207 861 l 129 951 l 325 1142 l 460 1142 l 656 951 l 578 861 l 393 989 l 207 861 m 408 -333 q 315 -298 351 -333 q 278 -208 278 -262 q 315 -119 278 -154 q 408 -83 351 -83 q 501 -119 465 -83 q 538 -208 538 -154 q 501 -298 538 -262 q 408 -333 465 -333 z "},"ề":{"ha":767,"x_min":-53,"x_max":729,"o":"m 729 383 q 725 304 729 338 l 268 304 q 321 174 279 211 q 436 136 363 136 q 522 152 481 136 q 613 201 564 168 l 703 79 q 415 -24 574 -24 q 140 82 236 -24 q 44 365 44 188 q 85 567 44 478 q 203 709 125 657 q 389 761 281 761 q 639 661 549 761 q 729 383 729 561 m 514 446 q 394 615 511 615 q 306 574 338 615 q 268 436 275 532 l 514 436 l 514 446 m 206 813 l 126 903 l 324 1082 l 457 1082 l 653 903 l 575 813 l 390 929 l 206 813 m 67 1331 l 249 1093 l 167 1018 l -53 1214 l 67 1331 z "},"ể":{"ha":767,"x_min":44,"x_max":783,"o":"m 729 383 q 725 304 729 338 l 268 304 q 321 174 279 211 q 436 136 363 136 q 522 152 481 136 q 613 201 564 168 l 703 79 q 415 -24 574 -24 q 140 82 236 -24 q 44 365 44 188 q 85 567 44 478 q 203 709 125 657 q 389 761 281 761 q 639 661 549 761 q 729 383 729 561 m 514 446 q 394 615 511 615 q 306 574 338 615 q 268 436 275 532 l 514 436 l 514 446 m 206 813 l 126 903 l 324 1082 l 457 1082 l 653 903 l 575 813 l 390 929 l 206 813 m 536 1185 q 612 1199 589 1188 q 635 1238 635 1211 q 620 1269 635 1258 q 579 1281 606 1281 q 496 1263 542 1281 l 460 1354 q 611 1390 522 1390 q 738 1352 693 1390 q 783 1250 783 1314 q 753 1163 783 1196 q 667 1119 724 1131 l 667 1047 l 536 1047 l 536 1185 z "},"ễ":{"ha":767,"x_min":44,"x_max":729,"o":"m 729 383 q 725 304 729 338 l 268 304 q 321 174 279 211 q 436 136 363 136 q 522 152 481 136 q 613 201 564 168 l 703 79 q 415 -24 574 -24 q 140 82 236 -24 q 44 365 44 188 q 85 567 44 478 q 203 709 125 657 q 389 761 281 761 q 639 661 549 761 q 729 383 729 561 m 514 446 q 394 615 511 615 q 306 574 338 615 q 268 436 275 532 l 514 436 l 514 446 m 206 807 l 126 897 l 324 1076 l 457 1076 l 653 897 l 575 807 l 390 924 l 206 807 m 469 1113 q 416 1122 439 1113 q 368 1149 393 1132 q 337 1167 350 1161 q 311 1172 324 1172 q 272 1158 288 1172 q 238 1114 256 1144 l 128 1164 q 202 1275 156 1232 q 307 1318 249 1318 q 362 1309 339 1318 q 413 1282 385 1300 q 444 1264 432 1269 q 468 1258 456 1258 q 506 1272 490 1258 q 540 1317 522 1286 l 650 1265 q 574 1154 621 1196 q 469 1113 528 1113 z "},"ȅ":{"ha":767,"x_min":44,"x_max":729,"o":"m 729 383 q 725 304 729 338 l 268 304 q 321 174 279 211 q 436 136 363 136 q 522 152 481 136 q 613 201 564 168 l 703 79 q 415 -24 574 -24 q 140 82 236 -24 q 44 365 44 188 q 85 567 44 478 q 203 709 125 657 q 389 761 281 761 q 639 661 549 761 q 729 383 729 561 m 514 446 q 394 615 511 615 q 306 574 338 615 q 268 436 275 532 l 514 436 l 514 446 m 228 1194 l 363 921 l 250 868 l 81 1121 l 228 1194 m 472 1194 l 594 921 l 479 875 l 322 1125 l 472 1194 z "},"ë":{"ha":767,"x_min":44,"x_max":729,"o":"m 729 383 q 725 304 729 338 l 268 304 q 321 174 279 211 q 436 136 363 136 q 522 152 481 136 q 613 201 564 168 l 703 79 q 415 -24 574 -24 q 140 82 236 -24 q 44 365 44 188 q 85 567 44 478 q 203 709 125 657 q 389 761 281 761 q 639 661 549 761 q 729 383 729 561 m 514 446 q 394 615 511 615 q 306 574 338 615 q 268 436 275 532 l 514 436 l 514 446 m 232 1110 q 312 1078 279 1110 q 344 1000 344 1046 q 312 922 344 954 q 232 890 279 890 q 152 922 185 890 q 119 1000 119 954 q 152 1078 119 1046 q 232 1110 185 1110 m 553 1110 q 633 1078 601 1110 q 665 1000 665 1046 q 633 922 665 954 q 553 890 601 890 q 474 922 507 890 q 442 1000 442 954 q 474 1078 442 1046 q 553 1110 507 1110 z "},"ė":{"ha":767,"x_min":44,"x_max":729,"o":"m 729 383 q 725 304 729 338 l 268 304 q 321 174 279 211 q 436 136 363 136 q 522 152 481 136 q 613 201 564 168 l 703 79 q 415 -24 574 -24 q 140 82 236 -24 q 44 365 44 188 q 85 567 44 478 q 203 709 125 657 q 389 761 281 761 q 639 661 549 761 q 729 383 729 561 m 514 446 q 394 615 511 615 q 306 574 338 615 q 268 436 275 532 l 514 436 l 514 446 m 392 1126 q 485 1091 449 1126 q 522 1001 522 1056 q 485 912 522 947 q 392 876 449 876 q 299 912 335 876 q 263 1001 263 947 q 299 1091 263 1056 q 392 1126 335 1126 z "},"ẹ":{"ha":767,"x_min":44,"x_max":729,"o":"m 729 383 q 725 304 729 338 l 268 304 q 321 174 279 211 q 436 136 363 136 q 522 152 481 136 q 613 201 564 168 l 703 79 q 415 -24 574 -24 q 140 82 236 -24 q 44 365 44 188 q 85 567 44 478 q 203 709 125 657 q 389 761 281 761 q 639 661 549 761 q 729 383 729 561 m 514 446 q 394 615 511 615 q 306 574 338 615 q 268 436 275 532 l 514 436 l 514 446 m 408 -333 q 315 -298 351 -333 q 278 -208 278 -262 q 315 -119 278 -154 q 408 -83 351 -83 q 501 -119 465 -83 q 538 -208 538 -154 q 501 -298 538 -262 q 408 -333 465 -333 z "},"è":{"ha":767,"x_min":44,"x_max":729,"o":"m 729 383 q 725 304 729 338 l 268 304 q 321 174 279 211 q 436 136 363 136 q 522 152 481 136 q 613 201 564 168 l 703 79 q 415 -24 574 -24 q 140 82 236 -24 q 44 365 44 188 q 85 567 44 478 q 203 709 125 657 q 389 761 281 761 q 639 661 549 761 q 729 383 729 561 m 514 446 q 394 615 511 615 q 306 574 338 615 q 268 436 275 532 l 514 436 l 514 446 m 299 1160 l 601 976 l 540 864 l 213 996 l 299 1160 z "},"ẻ":{"ha":767,"x_min":44,"x_max":729,"o":"m 729 383 q 725 304 729 338 l 268 304 q 321 174 279 211 q 436 136 363 136 q 522 152 481 136 q 613 201 564 168 l 703 79 q 415 -24 574 -24 q 140 82 236 -24 q 44 365 44 188 q 85 567 44 478 q 203 709 125 657 q 389 761 281 761 q 639 661 549 761 q 729 383 729 561 m 514 446 q 394 615 511 615 q 306 574 338 615 q 268 436 275 532 l 514 436 l 514 446 m 326 978 q 402 992 379 981 q 425 1031 425 1004 q 410 1063 425 1051 q 369 1074 396 1074 q 286 1056 332 1074 l 250 1147 q 401 1183 313 1183 q 528 1145 483 1183 q 574 1043 574 1107 q 544 956 574 989 q 457 913 514 924 l 457 840 l 326 840 l 326 978 z "},"ȇ":{"ha":767,"x_min":44,"x_max":729,"o":"m 729 383 q 725 304 729 338 l 268 304 q 321 174 279 211 q 436 136 363 136 q 522 152 481 136 q 613 201 564 168 l 703 79 q 415 -24 574 -24 q 140 82 236 -24 q 44 365 44 188 q 85 567 44 478 q 203 709 125 657 q 389 761 281 761 q 639 661 549 761 q 729 383 729 561 m 514 446 q 394 615 511 615 q 306 574 338 615 q 268 436 275 532 l 514 436 l 514 446 m 392 1097 q 560 1029 497 1097 q 632 857 624 961 l 511 836 q 392 944 482 944 q 274 836 300 944 l 153 857 q 224 1030 161 963 q 392 1097 286 1097 z "},"ē":{"ha":767,"x_min":44,"x_max":729,"o":"m 729 383 q 725 304 729 338 l 268 304 q 321 174 279 211 q 436 136 363 136 q 522 152 481 136 q 613 201 564 168 l 703 79 q 415 -24 574 -24 q 140 82 236 -24 q 44 365 44 188 q 85 567 44 478 q 203 709 125 657 q 389 761 281 761 q 639 661 549 761 q 729 383 729 561 m 514 446 q 394 615 511 615 q 306 574 338 615 q 268 436 275 532 l 514 436 l 514 446 m 604 910 l 181 910 l 181 1063 l 604 1063 l 604 910 z "},"ę":{"ha":767,"x_min":44,"x_max":729,"o":"m 729 383 q 725 304 729 338 l 268 304 q 321 174 279 211 q 436 136 363 136 q 522 152 481 136 q 613 201 564 168 l 703 79 q 551 -3 632 22 q 425 -129 425 -58 q 499 -193 425 -193 q 583 -182 532 -193 l 568 -318 q 471 -329 521 -329 q 324 -285 381 -329 q 267 -167 267 -240 q 361 -21 267 -75 q 126 99 207 -4 q 44 365 44 201 q 85 567 44 478 q 203 709 125 657 q 389 761 281 761 q 639 661 549 761 q 729 383 729 561 m 514 446 q 394 615 511 615 q 306 574 338 615 q 268 436 275 532 l 514 436 l 514 446 z "},"ɛ":{"ha":667,"x_min":44,"x_max":664,"o":"m 367 761 q 642 678 528 761 l 551 564 q 474 599 510 588 q 394 610 438 610 q 322 590 349 610 q 294 532 294 569 q 322 472 294 494 q 399 450 349 450 l 492 450 l 469 308 l 389 308 q 300 287 328 308 q 272 222 272 265 q 303 157 272 181 q 394 133 333 133 q 481 147 439 133 q 572 189 524 160 l 664 65 q 531 -1 608 22 q 364 -24 454 -24 q 133 35 221 -24 q 44 204 44 94 q 242 393 44 369 q 72 558 72 426 q 153 706 72 651 q 367 761 233 761 z "},"ʚ":{"ha":796,"x_min":44,"x_max":751,"o":"m 382 -24 q 136 38 228 -24 q 44 213 44 100 q 94 335 44 292 q 242 393 143 379 q 81 556 81 435 q 165 706 81 650 q 383 761 249 761 q 581 713 499 761 q 708 576 664 664 q 751 369 751 488 q 656 79 751 182 q 382 -24 561 -24 m 383 133 q 499 188 467 133 q 532 369 532 242 q 497 552 532 494 q 389 610 463 610 q 322 590 347 610 q 297 533 297 569 q 326 472 297 493 q 406 450 354 450 l 424 450 l 436 308 l 389 308 q 298 290 329 308 q 267 226 267 271 q 383 133 267 133 z "},"ɜ":{"ha":692,"x_min":4,"x_max":646,"o":"m 321 761 q 527 706 444 761 q 610 557 610 651 q 449 393 610 435 q 597 335 547 379 q 646 213 646 292 q 552 37 646 97 q 304 -24 458 -24 q 4 65 125 -24 l 107 188 q 200 145 157 157 q 297 133 243 133 q 419 225 419 133 q 292 308 419 308 l 176 308 l 189 450 l 275 450 q 359 472 329 450 q 389 535 389 493 q 362 591 389 572 q 290 610 335 610 q 206 597 243 610 q 128 560 168 585 l 26 675 q 160 740 89 718 q 321 761 232 761 z "},"ɞ":{"ha":796,"x_min":44,"x_max":751,"o":"m 414 -24 q 140 79 235 -24 q 44 369 44 182 q 88 576 44 488 q 215 713 132 664 q 413 761 297 761 q 631 706 547 761 q 715 556 715 650 q 554 393 715 435 q 702 335 653 379 q 751 213 751 292 q 660 38 751 100 q 414 -24 568 -24 m 413 133 q 529 226 529 133 q 498 290 529 271 q 407 308 467 308 l 360 308 l 372 450 l 390 450 q 470 472 442 450 q 499 533 499 493 q 474 590 499 569 q 407 610 449 610 q 299 552 333 610 q 264 369 264 494 q 297 188 264 242 q 413 133 329 133 z "},"ɝ":{"ha":1053,"x_min":4,"x_max":1071,"o":"m 1071 478 q 897 426 994 426 q 745 471 800 426 q 679 594 690 515 l 678 603 l 610 564 l 610 557 q 449 393 610 435 q 597 335 547 379 q 646 213 646 292 q 552 37 646 97 q 304 -24 458 -24 q 4 65 125 -24 l 107 188 q 200 145 157 157 q 297 133 243 133 q 419 225 419 133 q 292 308 419 308 l 176 308 l 189 450 l 275 450 q 359 472 329 450 q 389 535 389 493 q 362 591 389 572 q 290 610 335 610 q 206 597 243 610 q 128 560 168 585 l 26 675 q 160 740 89 718 q 321 761 232 761 q 457 740 394 761 q 558 681 519 719 l 668 738 l 850 738 l 850 656 q 922 579 850 579 q 965 585 947 579 q 1010 601 983 590 l 1071 478 z "},"ɘ":{"ha":767,"x_min":38,"x_max":722,"o":"m 378 761 q 636 654 550 761 q 722 365 722 547 q 626 82 722 188 q 351 -24 531 -24 q 65 79 193 -24 l 156 201 q 247 151 204 167 q 336 136 289 136 q 450 173 410 136 q 499 304 490 210 l 42 304 q 38 383 38 371 q 129 661 38 561 q 378 761 221 761 m 254 436 l 500 436 q 466 576 494 538 q 376 615 438 615 q 254 446 254 615 l 254 436 z "},"ʃ":{"ha":392,"x_min":-164,"x_max":535,"o":"m 347 1054 q 535 1001 453 1054 l 471 865 q 424 885 444 879 q 378 892 403 892 q 324 872 342 892 q 306 807 306 851 l 306 -43 q 232 -240 306 -172 q 33 -308 158 -308 q -164 -249 -85 -308 l -90 -121 q -40 -142 -60 -136 q 7 -149 -21 -149 q 65 -127 44 -149 q 86 -64 86 -106 l 86 800 q 154 985 86 915 q 347 1054 222 1054 z "},"ʆ":{"ha":471,"x_min":-112,"x_max":614,"o":"m 385 42 q 383 -6 385 10 q 524 -61 457 -26 l 485 -153 q 368 -110 438 -132 q 274 -260 342 -211 q 93 -308 206 -308 q -59 -265 -6 -308 q -112 -144 -112 -221 q -53 -12 -112 -60 q 106 35 6 35 q 165 32 129 35 l 165 800 q 233 985 165 915 q 426 1054 301 1054 q 614 1001 532 1054 l 550 865 q 503 885 524 879 q 457 892 482 892 q 403 872 421 892 q 385 807 385 851 l 385 42 m 79 -193 q 141 -165 121 -193 q 164 -74 161 -137 q 106 -71 133 -71 q 18 -137 18 -71 q 79 -193 18 -193 z "},"ƪ":{"ha":560,"x_min":-51,"x_max":724,"o":"m 724 -249 q 526 -308 644 -308 q 328 -240 401 -308 q 254 -43 254 -172 l 254 596 q 168 581 211 581 q 10 645 71 581 q -51 815 -51 710 q 18 988 -51 921 q 204 1054 88 1054 q 402 984 331 1054 q 474 796 474 914 l 474 -64 q 494 -127 474 -106 q 553 -149 515 -149 q 600 -142 581 -149 q 650 -121 619 -136 l 724 -249 m 208 732 q 254 739 229 732 l 254 828 q 197 901 254 901 q 139 819 139 901 q 208 732 139 732 z "},"ʅ":{"ha":674,"x_min":-12,"x_max":686,"o":"m 686 36 q 489 -24 607 -24 q 290 44 364 -24 q 217 242 217 113 l 217 515 q 199 580 217 560 q 144 600 181 600 q 99 594 119 600 q 51 574 78 588 l -12 710 q 175 763 69 763 q 368 693 300 763 q 436 508 436 624 l 436 221 q 457 158 436 179 q 515 136 478 136 q 563 142 543 136 q 613 164 582 149 l 686 36 z "},"ɇ":{"ha":767,"x_min":44,"x_max":729,"o":"m 406 308 l 363 144 q 436 136 394 136 q 522 152 481 136 q 613 201 564 168 l 703 79 q 415 -24 574 -24 q 319 -15 364 -24 l 296 -103 l 222 -85 l 247 7 q 96 142 147 49 q 44 365 44 236 q 85 567 44 478 q 203 709 125 657 q 389 761 281 761 q 447 757 421 761 l 468 835 l 542 815 l 521 739 q 675 611 621 703 q 729 383 729 519 q 725 308 729 342 l 406 308 m 394 619 q 292 576 326 619 q 251 432 258 533 l 360 432 l 410 619 l 394 619 m 535 442 q 482 594 535 553 l 439 432 l 535 432 l 535 442 m 328 308 l 251 308 q 294 186 260 228 l 328 308 z "},"ẽ":{"ha":767,"x_min":44,"x_max":729,"o":"m 729 383 q 725 304 729 338 l 268 304 q 321 174 279 211 q 436 136 363 136 q 522 152 481 136 q 613 201 564 168 l 703 79 q 415 -24 574 -24 q 140 82 236 -24 q 44 365 44 188 q 85 567 44 478 q 203 709 125 657 q 389 761 281 761 q 639 661 549 761 q 729 383 729 561 m 514 446 q 394 615 511 615 q 306 574 338 615 q 268 436 275 532 l 514 436 l 514 446 m 474 882 q 421 892 443 882 q 372 919 399 901 q 315 944 338 944 q 276 930 292 944 q 242 883 260 915 l 132 936 q 206 1054 160 1008 q 311 1100 253 1100 q 366 1090 343 1100 q 417 1061 389 1079 q 448 1043 436 1049 q 472 1038 460 1038 q 510 1052 494 1038 q 544 1099 526 1067 l 654 1044 q 578 926 625 971 q 474 882 532 882 z "},"ǝ":{"ha":772,"x_min":38,"x_max":728,"o":"m 374 761 q 640 656 551 761 q 728 369 728 551 q 687 167 728 257 q 567 27 646 78 q 379 -24 489 -24 q 199 22 276 -24 q 80 151 122 67 q 38 354 38 236 q 42 433 38 399 l 515 433 q 472 564 510 522 q 365 606 435 606 q 270 592 314 606 q 179 544 226 578 l 88 667 q 374 761 207 761 m 379 132 q 476 172 442 132 q 515 301 510 211 l 244 301 l 244 292 q 281 174 246 217 q 379 132 315 132 z "},"ə":{"ha":772,"x_min":38,"x_max":728,"o":"m 374 761 q 640 656 551 761 q 728 369 728 551 q 687 167 728 257 q 567 27 646 78 q 379 -24 489 -24 q 199 22 276 -24 q 80 151 122 67 q 38 354 38 236 q 42 433 38 399 l 515 433 q 472 564 510 522 q 365 606 435 606 q 270 592 314 606 q 179 544 226 578 l 88 667 q 374 761 207 761 m 379 132 q 476 172 442 132 q 515 301 510 211 l 244 301 l 244 292 q 281 174 246 217 q 379 132 315 132 z "},"ɚ":{"ha":1147,"x_min":38,"x_max":1165,"o":"m 1165 478 q 992 426 1089 426 q 840 471 894 426 q 774 594 785 515 l 772 603 l 696 558 q 728 369 728 481 q 687 167 728 257 q 567 27 646 78 q 379 -24 489 -24 q 199 22 276 -24 q 80 151 122 67 q 38 354 38 236 q 42 433 38 399 l 515 433 q 472 564 510 522 q 365 606 435 606 q 270 592 314 606 q 179 544 226 578 l 88 667 q 374 761 207 761 q 629 668 536 761 l 763 738 l 944 738 l 944 656 q 1017 579 944 579 q 1060 585 1042 579 q 1104 601 1078 590 l 1165 478 m 379 132 q 476 172 442 132 q 515 301 510 211 l 244 301 l 244 292 q 281 174 246 217 q 379 132 315 132 z "},"ʒ":{"ha":708,"x_min":-17,"x_max":683,"o":"m 383 296 q 606 216 529 286 q 683 13 683 146 q 638 -152 683 -79 q 509 -267 593 -225 q 310 -308 425 -308 q -17 -165 101 -308 l 99 -54 q 194 -120 149 -100 q 297 -140 240 -140 q 415 -99 372 -140 q 457 26 457 -57 q 414 134 457 101 q 282 167 371 167 l 154 167 l 154 294 l 392 574 l 38 574 l 38 738 l 639 738 l 639 588 l 383 296 z "},"ǯ":{"ha":708,"x_min":-17,"x_max":683,"o":"m 383 296 q 606 216 529 286 q 683 13 683 146 q 638 -152 683 -79 q 509 -267 593 -225 q 310 -308 425 -308 q -17 -165 101 -308 l 99 -54 q 194 -120 149 -100 q 297 -140 240 -140 q 415 -99 372 -140 q 457 26 457 -57 q 414 134 457 101 q 282 167 371 167 l 154 167 l 154 294 l 392 574 l 38 574 l 38 738 l 639 738 l 639 588 l 383 296 m 524 1129 l 601 1039 l 406 849 l 272 849 l 75 1039 l 154 1129 l 339 1003 l 524 1129 z "},"ʓ":{"ha":708,"x_min":-35,"x_max":683,"o":"m 683 17 q 624 -171 683 -92 q 447 -285 564 -250 l 482 -361 l 372 -403 l 328 -306 q 268 -308 289 -308 q 45 -252 125 -308 q -35 -93 -35 -196 q 15 32 -35 -14 q 142 78 64 78 q 269 35 219 78 q 364 -114 318 -7 l 369 -125 q 436 -69 415 -107 q 457 29 457 -32 q 415 142 457 108 q 282 175 372 175 l 154 175 l 154 303 l 393 574 l 38 574 l 38 738 l 639 738 l 639 588 l 383 303 q 606 224 529 294 q 683 17 683 153 m 117 -83 q 147 -128 117 -115 q 257 -140 178 -140 q 210 -62 231 -83 q 161 -40 189 -40 q 128 -52 140 -40 q 117 -83 117 -64 z "},"ƹ":{"ha":708,"x_min":25,"x_max":725,"o":"m 725 -165 q 586 -272 667 -235 q 394 -308 506 -308 q 198 -267 282 -308 q 69 -156 114 -226 q 25 4 25 -85 q 103 211 25 136 q 325 294 182 286 l 69 588 l 69 738 l 669 738 l 669 574 l 314 574 l 554 290 l 554 167 l 425 167 q 294 130 338 167 q 251 17 251 93 q 294 -100 251 -60 q 408 -140 336 -140 q 514 -121 467 -140 q 613 -56 561 -101 l 725 -165 z "},"ƺ":{"ha":707,"x_min":31,"x_max":676,"o":"m 260 -308 q 96 -223 154 -276 q 38 -97 38 -169 q 96 24 38 -21 q 276 90 154 68 q 410 128 371 107 q 450 193 450 150 q 423 245 450 229 q 339 261 396 261 l 156 261 l 156 381 l 374 582 l 31 582 l 31 738 l 629 738 l 629 596 l 390 389 l 426 389 q 610 335 543 389 q 676 186 676 281 q 602 24 676 79 q 400 -53 528 -32 q 273 -84 304 -69 q 242 -122 242 -99 q 259 -156 242 -140 q 313 -187 276 -171 l 260 -308 z "},"f":{"ha":494,"x_min":4,"x_max":599,"o":"m 424 892 q 356 869 376 892 q 335 794 335 847 l 335 738 l 508 738 l 485 585 l 335 585 l 335 0 l 115 0 l 115 585 l 4 585 l 4 738 l 115 738 l 115 803 q 188 984 115 914 q 397 1054 261 1054 q 599 1007 507 1054 l 539 864 q 424 892 483 892 z "},"ḟ":{"ha":494,"x_min":4,"x_max":599,"o":"m 424 892 q 356 869 376 892 q 335 794 335 847 l 335 738 l 508 738 l 485 585 l 335 585 l 335 0 l 115 0 l 115 585 l 4 585 l 4 738 l 115 738 l 115 803 q 188 984 115 914 q 397 1054 261 1054 q 599 1007 507 1054 l 539 864 q 424 892 483 892 m 368 1369 q 462 1334 425 1369 q 499 1244 499 1299 q 462 1155 499 1190 q 368 1119 425 1119 q 275 1155 311 1119 q 239 1244 239 1190 q 275 1334 239 1299 q 368 1369 311 1369 z "},"ʩ":{"ha":1225,"x_min":4,"x_max":1146,"o":"m 942 761 q 1092 703 1038 761 q 1146 539 1146 644 l 1146 -43 q 1072 -240 1146 -172 q 874 -308 999 -308 q 676 -249 756 -308 l 750 -121 q 800 -142 781 -136 q 847 -149 819 -149 q 906 -127 885 -149 q 926 -64 926 -106 l 926 501 q 909 578 926 557 q 857 600 892 600 q 729 504 790 600 l 729 0 l 510 0 l 510 585 l 335 585 l 335 0 l 115 0 l 115 585 l 4 585 l 4 738 l 115 738 l 115 803 q 188 984 115 914 q 397 1054 261 1054 q 599 1007 507 1054 l 539 864 q 424 892 483 892 q 356 869 376 892 q 335 794 335 847 l 335 738 l 701 738 l 717 650 q 819 733 764 706 q 942 761 874 761 z "}}}
